<?xml version="1.0" encoding="utf-8"?>
<!-- Generator: Adobe Illustrator 25.2.1, SVG Export Plug-In . SVG Version: 6.00 Build 0)  -->
<svg version="1.1" id="Camada_1" xmlns="http://www.w3.org/2000/svg" xmlns:xlink="http://www.w3.org/1999/xlink" x="0px" y="0px"
	 viewBox="0 0 115.4 86.1" style="enable-background:new 0 0 115.4 86.1;" xml:space="preserve">
<style type="text/css">
	.st0{fill:#782681;}
</style>
<path class="st0" d="M57.6,86.1c-12.9,0-25.9,0-38.8,0C7.5,86.1,0.1,78.7,0,67.4c0-16.2,0-32.5,0-48.7C0.1,7.4,7.6,0,18.8,0
	c26,0,51.9,0,77.9,0c11.1,0,18.6,7.5,18.7,18.6c0,16.3,0,32.6,0,48.9c0,11.1-7.6,18.5-18.7,18.6C83.6,86.1,70.6,86.1,57.6,86.1z
	 M107.1,19.1c-1.1,0.9-1.7,1.3-2.3,1.8c-12,9.7-24,19.4-36,29.1c-7.2,5.8-14.8,5.9-22,0.1c-9-7.2-18-14.4-27-21.6
	c-3.6-2.9-7.3-5.8-11.2-8.9c-0.1,1.3-0.1,2.2-0.1,3c0,14.7,0,29.3,0,44c0,7.7,3.6,11.3,11.3,11.3c25.3,0,50.7,0,76,0
	c7.9,0,11.5-3.5,11.5-11.4c0-14.7,0-29.5,0-44.2C107.1,21.3,107.1,20.5,107.1,19.1z M11.3,11.1c1.1,0.9,2,1.6,2.8,2.3
	c12.5,10,25.1,20,37.6,30c4.4,3.5,7.5,3.5,11.9,0c8.6-6.9,17.1-13.8,25.7-20.7c4.8-3.9,9.7-7.8,14.6-11.8c-2.2-2.2-4.8-2.6-7.6-2.6
	c-13.7,0-27.4,0-41.1,0c-12.1,0-24.1,0-36.2,0C16.2,8.3,13.5,8.7,11.3,11.1z"/>
<g>
</g>
<g>
</g>
<g>
</g>
<g>
</g>
<g>
</g>
<g>
</g>
</svg>
