<?xml version="1.0" encoding="utf-8"?>
<!-- Generator: Adobe Illustrator 25.2.1, SVG Export Plug-In . SVG Version: 6.00 Build 0)  -->
<svg version="1.1" id="Camada_1" xmlns="http://www.w3.org/2000/svg" xmlns:xlink="http://www.w3.org/1999/xlink" x="0px" y="0px"
	 viewBox="0 0 110.5 117.8" style="enable-background:new 0 0 110.5 117.8;" xml:space="preserve">
<style type="text/css">
	.st0{fill:url(#SVGID_1_);}
	.st1{fill:url(#SVGID_2_);}
	.st2{fill:url(#SVGID_3_);}
	.st3{fill:url(#SVGID_4_);}
</style>
<g>
	<linearGradient id="SVGID_1_" gradientUnits="userSpaceOnUse" x1="4.2534" y1="63.3614" x2="107.529" y2="63.3614">
		<stop  offset="8.379889e-03" style="stop-color:#772182"/>
		<stop  offset="1" style="stop-color:#812082"/>
	</linearGradient>
	<path class="st0" d="M107.5,60c-0.1,13.3-4.4,24.4-12.5,34.1c-1.6,1.9-1.5,1.3-0.2,3.4c2.3,4,4.6,8,5.9,12.4
		c0.4,1.4,0.6,2.9,0.6,4.3c0,2.2-1.6,3.6-3.8,3.5c-2.8-0.1-5.2-1.3-7.5-2.8c-3.6-2.3-7-4.8-10.5-7.3c-0.7-0.5-1.3-0.6-2.2-0.3
		c-14.2,6.2-28.5,6.3-42.7,0c-1-0.4-1.6-0.3-2.5,0.3c-4.3,2.9-8.6,5.9-13,8.6c-1.3,0.8-3.1,1.2-4.7,1.4c-2.1,0.3-3.8-1-3.9-3.1
		c-0.1-1.8,0.2-3.7,0.7-5.4c1.3-4.4,3.6-8.3,6-12.1c0.7-1.1,0.6-1.8-0.2-2.7c-2.8-3.2-5.2-6.7-7.2-10.5c-4.8-9.6-6.6-19.7-5.2-30.3
		c2-14.1,8.7-25.6,19.9-34.3c7.3-5.6,15.5-9,24.6-10c16.6-1.9,30.9,2.9,42.9,14.5c8.1,7.9,12.9,17.6,14.7,28.7
		C107.4,55.2,107.4,57.9,107.5,60z M55.8,17.8C34.7,17.1,13.6,35,13.1,59.4c-0.5,24.1,18.7,43.9,42.8,43.9
		c24.7,0,42.5-20.6,42.9-42.1C99.2,37.8,79.3,17.1,55.8,17.8z"/>
	<linearGradient id="SVGID_2_" gradientUnits="userSpaceOnUse" x1="79.8248" y1="14.87" x2="110.4738" y2="14.87">
		<stop  offset="0" style="stop-color:#EB5E1D"/>
		<stop  offset="0.9693" style="stop-color:#F28A1A"/>
	</linearGradient>
	<path class="st1" d="M79.8,8.2c0.2-0.4,0.3-0.6,0.5-0.8c1.8-1.9,3.6-3.9,5.5-5.7c2.4-2.2,6.2-2.4,8.7-0.3c4.8,4,9.4,8.1,14,12.3
		c2,1.9,3.2,6.2,0.1,9.9c-1.7,2-3.4,3.9-5.3,6.1C100.5,25,97,21,93.1,17.3C89.1,13.7,84.8,10.5,79.8,8.2z"/>
	<linearGradient id="SVGID_3_" gradientUnits="userSpaceOnUse" x1="0" y1="14.9246" x2="30.7133" y2="14.9246">
		<stop  offset="0" style="stop-color:#EB5E1D"/>
		<stop  offset="0.9693" style="stop-color:#F28A1A"/>
	</linearGradient>
	<path class="st2" d="M30.7,8.2C20.7,13,13.2,20.5,7,29.8c-2.1-2.7-4.3-5.2-6.1-7.9c-1.6-2.5-0.9-6.4,1.3-8.4c4.4-4,8.8-8,13.3-11.8
		c2.7-2.4,6.8-2.2,9.5,0.3c1.8,1.7,3.5,3.6,5.3,5.4C30.4,7.6,30.5,7.8,30.7,8.2z"/>
	<linearGradient id="SVGID_4_" gradientUnits="userSpaceOnUse" x1="50.6656" y1="46.3892" x2="84.8153" y2="46.3892">
		<stop  offset="0" style="stop-color:#EB5E1D"/>
		<stop  offset="0.9693" style="stop-color:#F28A1A"/>
	</linearGradient>
	<path class="st3" d="M58,42c0,4.1,0,8.3,0,12.4c0,1.4,0.3,1.8,1.8,2c1.5,0.2,3,0.2,4.5,0.2c5.8,0.1,11.5,0.2,17.3,0.3
		c1.6,0,2.7,0.9,3.1,2.4c0.5,1.5,0.1,2.8-1.2,3.8c-0.5,0.4-1.2,0.6-1.8,0.6c-5,0.1-10,0.2-15,0.2c-1.5,0-3,0-4.5,0.1
		c-1.4,0-2.7,0.2-4,0.9c-2.5,1.4-5.4,0.4-6.9-2c-1.4-2.3-0.8-5.3,1.6-6.9c0.8-0.5,1-1.1,1-2.1c0-8.3,0-16.7,0.1-25
		c0-0.8,0-1.6,0.9-1.9c0.9-0.4,1.8-0.1,2.4,0.6c0.3,0.4,0.5,0.9,0.5,1.4C58,33.5,58,37.8,58,42C58,42,58,42,58,42z"/>
</g>
<g>
</g>
<g>
</g>
<g>
</g>
<g>
</g>
<g>
</g>
<g>
</g>
</svg>
