<?xml version="1.0" encoding="utf-8"?>
<!-- Generator: Adobe Illustrator 25.2.1, SVG Export Plug-In . SVG Version: 6.00 Build 0)  -->
<svg version="1.1" id="Camada_1" xmlns="http://www.w3.org/2000/svg" xmlns:xlink="http://www.w3.org/1999/xlink" x="0px" y="0px"
	 viewBox="0 0 72.5 86.1" style="enable-background:new 0 0 72.5 86.1;" xml:space="preserve">
<style type="text/css">
	.st0{fill:url(#SVGID_1_);}
	.st1{fill:url(#SVGID_2_);}
</style>
<g>
	<linearGradient id="SVGID_1_" gradientUnits="userSpaceOnUse" x1="0" y1="43.0451" x2="72.4518" y2="43.0451">
		<stop  offset="8.379889e-03" style="stop-color:#772182"/>
		<stop  offset="1" style="stop-color:#812082"/>
	</linearGradient>
	<path class="st0" d="M37.2,86.1c-0.6,0-1.3,0-1.9,0c-0.5-0.3-1.1-0.6-1.6-0.9C12.2,74.8,0.8,57.7,0.1,33.7c-0.2-5.2,0-10.4,0-15.7
		c0-2.8,0.4-3.4,3-4.4c8.4-3.5,16.9-7,25.3-10.5c2.3-1,4.6-2,6.9-3.1c0.6,0,1.3,0,1.9,0c0.8,0.4,1.5,0.8,2.3,1.2
		c10.1,4.2,20.2,8.4,30.3,12.6c1.5,0.6,2.6,1.4,2.6,3.1c-0.1,7.7,0.4,15.5-0.5,23.1c-2.2,19.4-12.3,33.8-29.4,43.3
		C40.8,84.3,39,85.2,37.2,86.1z M65.9,30.1c0-4,0-6.7,0-9.5c0-1.1-0.3-1.6-1.3-2c-9.1-3.7-18.2-7.6-27.3-11.3
		c-0.6-0.3-1.5-0.3-2.1,0C26,11.1,16.9,14.9,7.8,18.8c-0.5,0.2-1.2,1-1.2,1.6C6.6,26.7,6.3,33,7,39.2c2.1,18.1,11.8,31,27.9,39.3
		c1.2,0.6,2,0.4,3-0.1c9.8-4.9,17.3-12.1,22.4-21.7C64.9,48,66.5,38.6,65.9,30.1z"/>
	<linearGradient id="SVGID_2_" gradientUnits="userSpaceOnUse" x1="19.8915" y1="41.3863" x2="52.5912" y2="41.3863">
		<stop  offset="0" style="stop-color:#EB5E1D"/>
		<stop  offset="0.9693" style="stop-color:#F28A1A"/>
	</linearGradient>
	<path class="st1" d="M32.5,45.2c4.6-4.6,8.9-9,13.3-13.3c0.4-0.5,0.9-0.9,1.4-1.3c1.3-1.1,3.3-1.1,4.5,0c1.2,1.2,1.3,3.2,0.1,4.5
		c-1.6,1.7-3.3,3.4-5,5c-3.7,3.7-7.4,7.4-11.1,11.1c-2.5,2.5-3.9,2.4-6.4-0.1c-2.7-2.7-5.3-5.3-8-8c-1.6-1.7-1.8-3.7-0.5-5.1
		c1.4-1.5,3.4-1.3,5.2,0.5C28.1,40.7,30.1,42.9,32.5,45.2z"/>
</g>
<g>
</g>
<g>
</g>
<g>
</g>
<g>
</g>
<g>
</g>
<g>
</g>
</svg>
