<?xml version="1.0" encoding="utf-8"?>
<!-- Generator: Adobe Illustrator 25.2.1, SVG Export Plug-In . SVG Version: 6.00 Build 0)  -->
<svg version="1.1" id="Camada_1" xmlns="http://www.w3.org/2000/svg" xmlns:xlink="http://www.w3.org/1999/xlink" x="0px" y="0px"
	 viewBox="0 0 131.9 132.5" style="enable-background:new 0 0 131.9 132.5;" xml:space="preserve">
<style type="text/css">
	.st0{fill:#782681;}
</style>
<g>
	<g>
		<path class="st0" d="M97.4,14.6c-4.4,7.7-4.2,13.8,0.9,18.7c4.9,4.8,11.2,4.8,19.5-0.3c4.1,4.2,8.3,8.5,12.4,13
			c2.6,2.9,2,7.1-0.9,10.2c-8.1,8.3-16.2,16.6-24.4,24.9c-15.7,16-31.4,32-47,48c-4.3,4.4-8.2,4.4-12.7,0.1
			c-3.3-3.2-6.5-6.4-9.8-9.6c-1-1-1.3-1.7-0.6-3.1c2.9-6,1.9-11.8-2.4-16c-4.3-4.2-10.1-5-16.1-2c-1.4,0.7-2.2,0.3-3.1-0.6
			c-3.4-3.4-6.9-6.8-10.3-10.2c-3.7-3.7-3.8-7.9-0.1-11.6c17.8-18.2,35.7-36.5,53.6-54.7c6-6.1,12-12.3,18-18.4
			c3.9-4,8.1-4.1,12-0.1C90,6.7,93.6,10.6,97.4,14.6z M7.5,81.7c2.7,2.8,5.2,5.5,7.7,8c0.5,0.5,1.7,0.7,2.4,0.5
			C32,86.1,46.8,99,43.1,115.1c-0.2,0.7,0,1.8,0.5,2.4c2.3,2.8,4.8,5.5,7.4,8.4c17.5-17.9,34.4-35.1,51.6-52.7
			c-1.7-1.5-3.2-2.9-4.8-4.2c1.8-1.9,3.4-3.5,5-5.2c1.6,1.5,3,2.9,3.8,3.6c6-5.7,11.9-11.2,17.6-16.5c-2.3-2.4-4.4-4.6-6.5-6.9
			c-0.9-1-1.8-1-3.2-0.8c-3.7,0.6-7.5,1.4-11.1,0.7C91.2,41.5,84.3,29.2,88,17.2c0.2-0.8,0.2-2-0.2-2.6c-2.2-2.6-4.6-5.1-6.2-6.9
			c-6.4,6-12.4,11.5-18.5,17.2c1.7,1.6,3.2,2.9,4.9,4.4c-1.8,1.7-3.5,3.3-5.3,4.9c-1.4-1.3-2.9-2.8-4.5-4.3
			C41.1,47.4,24.3,64.5,7.5,81.7z"/>
		<path class="st0" d="M72.2,33.5c3.4,3.6,7,7.4,10.7,11.4c-1.4,1.2-3.2,2.7-5.1,4.3c-3.2-3.5-6.8-7.3-10.5-11.3
			C68.6,36.8,70.3,35.3,72.2,33.5z"/>
		<path class="st0" d="M93.4,64.8c-3.5-3.7-7-7.5-10.8-11.6c1.6-1.2,3.4-2.6,5.2-3.9c3.1,3.3,6.8,7.1,10.4,11
			C97,61.3,95.4,62.9,93.4,64.8z"/>
	</g>
</g>
<g>
</g>
<g>
</g>
<g>
</g>
<g>
</g>
<g>
</g>
<g>
</g>
</svg>
