<?xml version="1.0" encoding="utf-8"?>
<!-- Generator: Adobe Illustrator 25.2.1, SVG Export Plug-In . SVG Version: 6.00 Build 0)  -->
<svg version="1.1" id="Camada_1" xmlns="http://www.w3.org/2000/svg" xmlns:xlink="http://www.w3.org/1999/xlink" x="0px" y="0px"
	 viewBox="0 0 139.5 112.5" style="enable-background:new 0 0 139.5 112.5;" xml:space="preserve">
<style type="text/css">
	.st0{fill:url(#SVGID_1_);}
	.st1{fill:url(#SVGID_2_);}
	.st2{fill:url(#SVGID_3_);}
	.st3{fill:url(#SVGID_4_);}
	.st4{fill:url(#SVGID_5_);}
	.st5{fill:url(#SVGID_6_);}
	.st6{fill:url(#SVGID_7_);}
</style>
<g>
	<linearGradient id="SVGID_1_" gradientUnits="userSpaceOnUse" x1="0" y1="56.2493" x2="139.5098" y2="56.2493">
		<stop  offset="8.379889e-03" style="stop-color:#772182"/>
		<stop  offset="1" style="stop-color:#812082"/>
	</linearGradient>
	<path class="st0" d="M0,5.3C0.2,5,0.3,4.7,0.5,4.3c1.1-2.6,3-4,5.8-4.3C6.8,0,7.4,0,8,0c41.2,0,82.4,0,123.5,0
		c1.3,0,2.7,0.1,3.9,0.6c2.4,0.9,3.7,2.9,4.1,5.5c0.1,0.4,0,0.9,0,1.4c0,32.5,0,65,0,97.5c0,3.7-1.8,6.4-5,7.2
		c-0.8,0.2-1.7,0.3-2.6,0.3c-41.5,0-82.9,0-124.4,0c-3.9,0-6.3-1.8-7.6-5.3C0,73.2,0,39.3,0,5.3z M69.7,108c20.6,0,41.2,0,61.8,0
		c2.8,0,3.4-0.6,3.4-3.4c0-32.2,0-64.5,0-96.7c0-2.7-0.6-3.4-3.4-3.4c-41.2,0-82.5,0-123.7,0c-2.8,0-3.4,0.6-3.4,3.4
		c0,32.2,0,64.4,0,96.6c0,2.9,0.6,3.5,3.5,3.5C28.6,108,49.2,108,69.7,108z"/>
	<linearGradient id="SVGID_2_" gradientUnits="userSpaceOnUse" x1="13.6145" y1="42.7241" x2="125.87" y2="42.7241">
		<stop  offset="8.379889e-03" style="stop-color:#772182"/>
		<stop  offset="1" style="stop-color:#812082"/>
	</linearGradient>
	<path class="st1" d="M13.6,9.1c37.4,0,74.8,0,112.3,0c0,22.4,0,44.8,0,67.3c-37.4,0-74.8,0-112.3,0C13.6,54,13.6,31.6,13.6,9.1z
		 M18.1,71.9c34.5,0,68.9,0,103.4,0c0-19.5,0-38.9,0-58.4c-34.5,0-68.9,0-103.4,0C18.1,33,18.1,52.5,18.1,71.9z"/>
	<linearGradient id="SVGID_3_" gradientUnits="userSpaceOnUse" x1="51.8544" y1="92.2256" x2="130.4657" y2="92.2256">
		<stop  offset="0" style="stop-color:#EB5E1D"/>
		<stop  offset="0.9693" style="stop-color:#F28A1A"/>
	</linearGradient>
	<path class="st2" d="M130.5,90c0,1.6,0,3,0,4.5c-12,0-23.9,0-35.9,0c0,3.1,0,5.9,0,8.9c-4.6,0-9,0-13.5,0c0-2.9,0-5.8,0-8.8
		c-9.8,0-19.4,0-29.2,0c0-1.5,0-2.9,0-4.5c9.6,0,19.3,0,29.1,0c0-3.1,0-6,0-9c4.6,0,9,0,13.6,0c0,2.9,0,5.8,0,8.9
		C106.5,90,118.4,90,130.5,90z M89.9,98.9c0-4.5,0-8.9,0-13.4c-1.5,0-2.9,0-4.3,0c0,4.5,0,8.9,0,13.4C87.1,98.9,88.4,98.9,89.9,98.9
		z"/>
	<linearGradient id="SVGID_4_" gradientUnits="userSpaceOnUse" x1="9.1003" y1="92.2447" x2="29.7787" y2="92.2447">
		<stop  offset="0" style="stop-color:#EB5E1D"/>
		<stop  offset="0.9693" style="stop-color:#F28A1A"/>
	</linearGradient>
	<path class="st3" d="M9.1,81.9c6.9,3.4,13.6,6.8,20.7,10.3c-7,3.5-13.8,6.9-20.7,10.4C9.1,95.7,9.1,88.9,9.1,81.9z M19.7,92.2
		c-2.2-1.1-4.1-2-6.1-3c0,2.1,0,4,0,6.1C15.7,94.3,17.5,93.3,19.7,92.2z"/>
	<linearGradient id="SVGID_5_" gradientUnits="userSpaceOnUse" x1="33.8838" y1="92.2157" x2="38.1406" y2="92.2157">
		<stop  offset="0" style="stop-color:#EB5E1D"/>
		<stop  offset="0.9693" style="stop-color:#F28A1A"/>
	</linearGradient>
	<path class="st4" d="M33.9,81.1c1.5,0,2.8,0,4.3,0c0,7.4,0,14.8,0,22.3c-1.4,0-2.8,0-4.3,0C33.9,95.9,33.9,88.5,33.9,81.1z"/>
	<linearGradient id="SVGID_6_" gradientUnits="userSpaceOnUse" x1="42.8485" y1="92.2432" x2="47.1038" y2="92.2432">
		<stop  offset="0" style="stop-color:#EB5E1D"/>
		<stop  offset="0.9693" style="stop-color:#F28A1A"/>
	</linearGradient>
	<path class="st5" d="M47.1,103.4c-1.5,0-2.8,0-4.3,0c0-7.5,0-14.9,0-22.3c1.4,0,2.8,0,4.3,0C47.1,88.6,47.1,96,47.1,103.4z"/>
	<linearGradient id="SVGID_7_" gradientUnits="userSpaceOnUse" x1="47.2807" y1="42.6906" x2="92.2893" y2="42.6906">
		<stop  offset="0" style="stop-color:#EB5E1D"/>
		<stop  offset="0.9693" style="stop-color:#F28A1A"/>
	</linearGradient>
	<path class="st6" d="M47.4,67.4c0-4.4-0.4-8.8,0.1-13c0.5-4.7,3.7-7.6,8.2-9c2.4-0.7,4.8-1.4,7.4-2.1c-0.3-0.5-0.5-0.8-0.8-1.1
		c-2.5-2.3-3.9-5.2-3.8-8.7c0.1-2.5,0-5.1,0.6-7.5c1.4-5.2,6.5-8.4,11.9-7.8c5,0.6,9.4,5,9.8,10.2c0.2,2.2,0.2,4.5,0,6.7
		c-0.2,2.8-1.5,5.1-3.5,7c-0.3,0.3-0.6,0.7-1.2,1.2c2.7,0.8,5.1,1.5,7.4,2.1c4.4,1.3,7.3,4.1,8.3,8.6c0.3,1.5,0.3,3.1,0.3,4.6
		c0,2.9,0,5.8,0,8.8C77.2,67.4,62.3,67.4,47.4,67.4z M87.7,62.9c0-1.8,0-3.6,0-5.3c0-4.9-1.5-6.9-6.2-8.2c-3.2-0.9-6.3-1.8-9.5-2.7
		c0-1.8,0-3.6,0-5.3c0-0.8,0.2-1.3,0.9-1.7c1.7-0.9,3.1-2.3,3.3-4.3c0.3-2.5,0.3-5,0-7.4c-0.5-3.3-3.5-5.5-6.7-5.5
		c-3.3,0.1-6,2.5-6.4,5.9c-0.2,1.4-0.1,2.9-0.1,4.3c-0.1,3.1,1.1,5.4,3.8,7c0.3,0.2,0.7,0.6,0.7,1c0.1,1.9,0,3.9,0,5.9
		c-0.5,0.1-0.8,0.3-1.2,0.4c-3.1,0.9-6.3,1.8-9.4,2.7c-2.4,0.7-4.3,2.2-4.7,4.6c-0.5,2.8-0.4,5.7-0.5,8.6
		C63.8,62.9,75.7,62.9,87.7,62.9z"/>
</g>
<g>
</g>
<g>
</g>
<g>
</g>
<g>
</g>
<g>
</g>
<g>
</g>
</svg>
