<?xml version="1.0" encoding="utf-8"?>
<!-- Generator: Adobe Illustrator 25.2.1, SVG Export Plug-In . SVG Version: 6.00 Build 0)  -->
<svg version="1.1" id="Camada_1" xmlns="http://www.w3.org/2000/svg" xmlns:xlink="http://www.w3.org/1999/xlink" x="0px" y="0px"
	 viewBox="0 0 80.7 80.7" style="enable-background:new 0 0 80.7 80.7;" xml:space="preserve">
<style type="text/css">
	.st0{fill:url(#SVGID_1_);}
	.st1{fill:url(#SVGID_2_);}
</style>
<g>
	<linearGradient id="SVGID_1_" gradientUnits="userSpaceOnUse" x1="0" y1="40.3376" x2="80.6773" y2="40.3376">
		<stop  offset="0" style="stop-color:#482567"/>
		<stop  offset="1" style="stop-color:#772182"/>
	</linearGradient>
	<path class="st0" d="M40.3,0c22.3,0,40.4,18,40.4,40.2c0,22.3-18,40.4-40.1,40.5C18.2,80.7,0,62.8,0,40.6C0,18.1,17.9,0,40.3,0z
		 M7.6,40.3C7.6,58.2,22.1,72.9,40.1,73c18.2,0.1,32.9-14.4,33-32.5C73.1,22.5,58.6,7.7,40.7,7.6C22.4,7.6,7.7,22,7.6,40.3z"/>
	<linearGradient id="SVGID_2_" gradientUnits="userSpaceOnUse" x1="37.2734" y1="28.5601" x2="63.225" y2="28.5601">
		<stop  offset="0" style="stop-color:#EB5E1D"/>
		<stop  offset="0.9693" style="stop-color:#F28A1A"/>
	</linearGradient>
	<path class="st1" d="M43.4,37.3c0.5,0,0.9,0,1.3,0c5.1,0,10.2,0,15.3,0c2.6,0,4.1,2.4,2.9,4.6c-0.6,1-1.5,1.5-2.6,1.5
		c-6.6,0-13.3,0-19.9,0c-1.7,0-3-1.3-3-3.1c0-7.8,0-15.6,0-23.4c0-1.8,1.3-3.1,3.1-3.2c1.8,0,3.1,1.3,3.1,3.2c0,6.4,0,12.7,0,19.1
		C43.4,36.4,43.4,36.8,43.4,37.3z"/>
</g>
<g>
</g>
<g>
</g>
<g>
</g>
<g>
</g>
<g>
</g>
<g>
</g>
</svg>
