<?xml version="1.0" encoding="utf-8"?>
<!-- Generator: Adobe Illustrator 24.1.2, SVG Export Plug-In . SVG Version: 6.00 Build 0)  -->
<svg version="1.1" id="Camada_1" xmlns="http://www.w3.org/2000/svg" xmlns:xlink="http://www.w3.org/1999/xlink" x="0px" y="0px"
	 viewBox="0 0 99.9 106.8" style="enable-background:new 0 0 99.9 106.8;" xml:space="preserve">
<style type="text/css">
	.st0{fill:url(#SVGID_1_);}
	.st1{fill:url(#SVGID_2_);}
	.st2{fill:url(#SVGID_3_);}
	.st3{fill:url(#SVGID_4_);}
	.st4{fill:url(#SVGID_5_);}
</style>
<g>
	<linearGradient id="SVGID_1_" gradientUnits="userSpaceOnUse" x1="9.094947e-13" y1="53.3754" x2="93.4125" y2="53.3754">
		<stop  offset="0" style="stop-color:#FF5C00"/>
		<stop  offset="0.9693" style="stop-color:#FF8F00"/>
	</linearGradient>
	<path class="st0" d="M48.9,0c2.3,0.6,4.7,0.9,6.8,1.7c8.8,3.5,14.1,9.9,15.7,19.3c0.2,1.4,0.3,2.8,0.3,4.3c0,4.2,0,8.4,0,12.6
		c0,0.4,0,0.8,0,1.3c1.6,0,3.1,0,4.6,0c8.7,0,15.5,5.7,16.8,14.3c0.4,2.4,0.2,4.9,0.1,7.4c-0.1,2-2,3.6-4.1,3.6
		c-2.1,0-3.9-1.5-4.1-3.6c-0.2-1.8,0-3.6-0.2-5.4c-0.4-4.6-3.7-7.8-8.4-7.9c-0.1,0-0.3,0-0.4,0c-19.7,0-39.3,0-59,0
		c-3.6,0-6.4,1.5-8,4.8c-0.6,1.2-0.8,2.7-0.8,4.1c-0.1,11-0.1,22,0,33c0,5.4,3.5,8.9,9,8.9c7,0,14,0,21,0c2.6,0,4.4,1.7,4.5,4.1
		c0,2.4-1.8,4.2-4.2,4.2c-3.4,0-6.7,0-10.1,0c-3.8,0-7.6,0-11.4,0c-8.7,0-15.4-5.7-16.8-14.3C0,91.4,0,90.3,0,89.3
		c0-10.9,0-21.8,0-32.7c0-7.3,3.2-12.6,9.8-15.9c2.2-1.1,4.7-1.5,7.2-1.5c1.5,0,3,0,4.7,0c0-0.5,0-0.9,0-1.3c0-4.9-0.1-9.8,0.1-14.7
		c0.3-7.5,3.7-13.5,9.6-18c3.6-2.8,7.8-4.4,12.4-5c0.2,0,0.5-0.1,0.7-0.2C46,0,47.4,0,48.9,0z M63.3,39.2c0-0.3,0.1-0.4,0.1-0.6
		c0-4.7,0-9.3,0-14c0-2.4-0.5-4.6-1.5-6.8C58.6,11,51.2,7.3,43.6,8.6C36,10,30.4,16.1,30.1,23.8c-0.2,5-0.1,9.9-0.1,14.9
		c0,0.2,0.1,0.3,0.1,0.5C41.2,39.2,52.2,39.2,63.3,39.2z"/>
	<linearGradient id="SVGID_2_" gradientUnits="userSpaceOnUse" x1="42.3238" y1="86.5144" x2="99.8663" y2="86.5144">
		<stop  offset="0" style="stop-color:#FF5C00"/>
		<stop  offset="0.9693" style="stop-color:#FF8F00"/>
	</linearGradient>
	<path class="st1" d="M71.1,106.7c-5.9-0.1-11.1-2.2-15.8-5.6C50.7,98,46.9,94,43.5,89.5c-1.6-2.2-1.6-3.9,0-6.1
		c4.3-5.6,9.2-10.6,15.5-14c8.8-4.7,17.5-4.1,25.9,1c5.5,3.4,10,8,13.9,13.2c1.3,1.8,1.4,3.6,0.1,5.4c-4.4,5.9-9.5,11.1-16.2,14.6
		C79.2,105.6,74.9,106.7,71.1,106.7z M51.8,86.5c3.5,4.1,7.1,7.7,11.9,10c3.3,1.6,6.7,2.3,10.3,1.5c7.1-1.6,11.8-6.4,16.4-11.5
		c-3.4-3.9-7-7.5-11.6-9.9c-5.2-2.7-10.3-2.7-15.5,0C58.8,79,55.2,82.6,51.8,86.5z"/>
	<linearGradient id="SVGID_3_" gradientUnits="userSpaceOnUse" x1="19.2184" y1="72.1339" x2="27.4954" y2="72.1339">
		<stop  offset="0" style="stop-color:#FF5C00"/>
		<stop  offset="0.9693" style="stop-color:#FF8F00"/>
	</linearGradient>
	<path class="st2" d="M27.5,72.3c-0.1,2.3-2,4.1-4.3,4c-2.3-0.1-4.1-2-4-4.4c0.1-2.3,2-4,4.3-4C25.8,68,27.6,70,27.5,72.3z"/>
	<linearGradient id="SVGID_4_" gradientUnits="userSpaceOnUse" x1="34.8488" y1="72.1345" x2="43.1345" y2="72.1345">
		<stop  offset="0" style="stop-color:#FF5C00"/>
		<stop  offset="0.9693" style="stop-color:#FF8F00"/>
	</linearGradient>
	<path class="st3" d="M43.1,72.1c0,2.3-1.8,4.2-4.1,4.2c-2.3,0-4.2-1.9-4.2-4.2c0-2.3,1.8-4.1,4.1-4.2
		C41.2,67.9,43.1,69.8,43.1,72.1z"/>
	<linearGradient id="SVGID_5_" gradientUnits="userSpaceOnUse" x1="63.4116" y1="86.519" x2="79.1994" y2="86.519">
		<stop  offset="0" style="stop-color:#FF5C00"/>
		<stop  offset="0.9693" style="stop-color:#FF8F00"/>
	</linearGradient>
	<path class="st4" d="M79.2,86.5c0,4.3-3.5,7.9-7.9,7.9c-4.3,0-8-3.6-7.9-8c0.1-4.4,3.6-7.9,7.9-7.9C75.7,78.6,79.2,82.2,79.2,86.5z
		"/>
</g>
<g>
</g>
<g>
</g>
<g>
</g>
<g>
</g>
<g>
</g>
<g>
</g>
<g>
</g>
<g>
</g>
<g>
</g>
<g>
</g>
<g>
</g>
</svg>
