<?xml version="1.0" encoding="utf-8"?>
<!-- Generator: Adobe Illustrator 25.2.1, SVG Export Plug-In . SVG Version: 6.00 Build 0)  -->
<svg version="1.1" id="Camada_1" xmlns="http://www.w3.org/2000/svg" xmlns:xlink="http://www.w3.org/1999/xlink" x="0px" y="0px"
	 viewBox="0 0 118.3 115" style="enable-background:new 0 0 118.3 115;" xml:space="preserve">
<style type="text/css">
	.st0{fill:url(#SVGID_1_);}
	.st1{fill:url(#SVGID_2_);}
	.st2{fill:url(#SVGID_3_);}
</style>
<g>
	<g>
		<linearGradient id="SVGID_1_" gradientUnits="userSpaceOnUse" x1="0" y1="58.8422" x2="118.3179" y2="58.8422">
			<stop  offset="8.379889e-03" style="stop-color:#772182"/>
			<stop  offset="1" style="stop-color:#812082"/>
		</linearGradient>
		<path class="st0" d="M93.7,19.7c-10.4,0-20.5,0-30.8,0c0,26.1,0,51.9,0,78.4c2.7,0,5.5,0,8.2,0c2,0,3.9,0,5.9,0
			c1.9,0,3.5,0.5,3.5,2.7c0,2.1-1.6,2.5-3.4,2.5c-2.9,0-5.8,0-8.7,0c-8.1,0-16.1,0-24.2,0c-0.7,0-1.7,0.2-2.2-0.1
			c-1.1-0.6-2.5-1.5-2.7-2.5c-0.4-1.8,1.1-2.6,2.8-2.6c3.9,0,7.9,0,11.8,0c1,0,2,0,3.2,0c0-26.2,0-52.2,0-78.3
			c-10.9,0-21.6,0-32.7,0c0.3,1.1,0.5,2.1,0.8,3c3.3,10.3,6.7,20.7,10.1,31c0.3,0.9,1.3,2.1,2.2,2.2c3.6,0.6,4.3,1.3,3.9,4.9
			c-1.1,9.8-8.8,17.2-18.7,18.3c-9.2,1-18.4-4.8-21.5-13.8c-0.6-1.8-0.9-3.8-1.2-5.8c-0.3-2.3,0.7-3.7,3.1-3.6
			c1.9,0.1,2.6-0.8,3.1-2.4C10,41.8,14,30,17.7,18.1c0.9-2.8,2.4-3.8,5.3-3.8c24.5,0.1,49.1,0,73.6,0c2.2,0,3.2,0.9,3.8,2.9
			c3.8,11.9,7.7,23.9,11.5,35.8c0.6,1.8,1.2,3,3.4,2.8c2.1-0.2,2.9,1.2,2.9,3.2c0.1,10.6-9.7,19.9-21,19.9
			c-10.9,0-20.4-9.2-20.5-19.8c0-2.4,1-3.3,3.4-3.5c0.9-0.1,2.3-1,2.5-1.8C86.4,43,89.9,32,93.4,21.1C93.5,20.8,93.6,20.4,93.7,19.7
			z M107.3,55.6c-3.2-10-6.4-19.7-9.5-29.3c-0.2,0-0.4,0-0.6,0c-3.1,9.6-6.3,19.3-9.5,29.3C94.5,55.6,100.7,55.6,107.3,55.6z
			 M82.5,61c0.6,7.3,7.9,13.1,15.5,12.8c7.5-0.4,14.4-6.4,14.3-12.8C102.5,61,92.6,61,82.5,61z M21.2,26.8c-0.3,0-0.5,0-0.8,0
			C17.3,36.4,14.2,46,11,55.8c6.7,0,12.9,0,19.5,0C27.4,46,24.3,36.4,21.2,26.8z M5.8,61.4C6.6,68.9,14,74.6,21.9,74
			c7.2-0.5,13.9-6.6,13.8-12.6C25.7,61.4,15.7,61.4,5.8,61.4z"/>
		<linearGradient id="SVGID_2_" gradientUnits="userSpaceOnUse" x1="27.8574" y1="112.3918" x2="94.3906" y2="112.3918">
			<stop  offset="0" style="stop-color:#EB5E1D"/>
			<stop  offset="0.9693" style="stop-color:#F28A1A"/>
		</linearGradient>
		<path class="st1" d="M61.3,115c-9.5,0-19.1,0-28.6,0c-0.8,0-1.8,0.2-2.5-0.1c-0.9-0.5-2.4-1.6-2.3-2.2c0.1-1,1.2-2,2.2-2.7
			c0.6-0.4,1.6-0.1,2.5-0.1c19.2,0,38.3,0,57.5,0c0.8,0,1.9-0.2,2.5,0.2c0.9,0.6,1.8,1.7,1.9,2.6c0,0.7-1.1,1.8-2,2.2
			c-0.9,0.4-2,0.1-3,0.1C80,114.9,70.6,114.9,61.3,115C61.3,115,61.3,115,61.3,115z"/>
		<linearGradient id="SVGID_3_" gradientUnits="userSpaceOnUse" x1="55.0644" y1="4.9348" x2="65.0647" y2="4.9348">
			<stop  offset="0" style="stop-color:#EB5E1D"/>
			<stop  offset="0.9693" style="stop-color:#F28A1A"/>
		</linearGradient>
		<path class="st2" d="M65.1,4.9c0,2.7-2.2,4.9-5,5c-2.8,0-5-2.1-5-4.9c0-2.7,2.2-5,5-5C62.8,0,65,2.2,65.1,4.9z"/>
	</g>
</g>
<g>
</g>
<g>
</g>
<g>
</g>
<g>
</g>
<g>
</g>
<g>
</g>
</svg>
