<?xml version="1.0" encoding="utf-8"?>
<!-- Generator: Adobe Illustrator 25.2.1, SVG Export Plug-In . SVG Version: 6.00 Build 0)  -->
<svg version="1.1" id="Camada_1" xmlns="http://www.w3.org/2000/svg" xmlns:xlink="http://www.w3.org/1999/xlink" x="0px" y="0px"
	 viewBox="0 0 135.2 123.6" style="enable-background:new 0 0 135.2 123.6;" xml:space="preserve">
<style type="text/css">
	.st0{fill:url(#SVGID_1_);}
	.st1{fill:url(#SVGID_2_);}
</style>
<g>
	<linearGradient id="SVGID_1_" gradientUnits="userSpaceOnUse" x1="0" y1="84.2445" x2="135.2318" y2="84.2445">
		<stop  offset="8.379889e-03" style="stop-color:#772182"/>
		<stop  offset="1" style="stop-color:#812082"/>
	</linearGradient>
	<path class="st0" d="M135.2,123.6c-4.4,0-8.9-0.1-13.3-0.1c-40,0-80.1,0-120.1,0c-0.6,0-1.1,0-1.8,0c0-2.6,0-5.2,0-7.9
		c2.6,0,5.1,0,7.8,0c0-7.8,0-15.4,0-23.2c8,0,15.8,0,23.7,0c0,7.6,0,15.3,0,23c2.7,0,5.3,0,8,0c0-13,0-25.9,0-38.9
		c8,0,15.8,0,23.7,0c0,12.9,0,25.8,0,38.9c2.7,0,5.3,0,8,0c0-18.2,0-36.4,0-54.7c8,0,15.8,0,23.8,0c0,18.3,0,36.5,0,54.8
		c2.7,0,5.2,0,7.9,0c0-23.5,0-47,0-70.6c8,0,15.8,0,23.8,0c0,23.5,0,47,0,70.8c2.9,0,5.7,0,8.5,0C135.2,118.3,135.2,121,135.2,123.6
		z M111,115.5c2.7,0,5.3,0,7.8,0c0-21,0-41.8,0-62.6c-2.6,0-5.2,0-7.8,0C111,73.7,111,94.6,111,115.5z M87.1,68.7
		c-2.7,0-5.3,0-7.8,0c0,15.7,0,31.2,0,46.8c2.7,0,5.2,0,7.8,0C87.1,99.8,87.1,84.3,87.1,68.7z M47.6,84.5c0,10.3,0,20.6,0,31
		c2.6,0,5.2,0,7.8,0c0-10.4,0-20.7,0-31C52.7,84.5,50.2,84.5,47.6,84.5z M23.6,115.5c0-5.1,0-10.1,0-15.1c-2.6,0-5.2,0-7.8,0
		c0,5.1,0,10,0,15.1C18.5,115.5,21,115.5,23.6,115.5z"/>
	<linearGradient id="SVGID_2_" gradientUnits="userSpaceOnUse" x1="16.9517" y1="33.9142" x2="120.2564" y2="33.9142">
		<stop  offset="0" style="stop-color:#EB5E1D"/>
		<stop  offset="0.9693" style="stop-color:#F28A1A"/>
	</linearGradient>
	<path class="st1" d="M105.2,9.3c-2.2-0.6-4.1-1.1-6.1-1.6c0.7-2.5,1.3-5,2-7.6c6.4,1.7,12.7,3.3,19.2,5c-1.7,6.4-3.3,12.7-5.1,19.2
		c-2.6-0.7-5-1.3-7.6-2c0.5-2,1-3.9,1.5-6C79.6,33.5,50.3,50.6,21,67.8c-1.3-2.3-2.6-4.5-4-6.8C46.3,43.8,75.6,26.6,105.2,9.3z"/>
</g>
<g>
</g>
<g>
</g>
<g>
</g>
<g>
</g>
<g>
</g>
<g>
</g>
</svg>
