<?xml version="1.0" encoding="utf-8"?>
<!-- Generator: Adobe Illustrator 25.2.1, SVG Export Plug-In . SVG Version: 6.00 Build 0)  -->
<svg version="1.1" id="Camada_1" xmlns="http://www.w3.org/2000/svg" xmlns:xlink="http://www.w3.org/1999/xlink" x="0px" y="0px"
	 viewBox="0 0 67.52 79.75" style="enable-background:new 0 0 67.52 79.75;" xml:space="preserve">
<style type="text/css">
	.st0{fill:url(#SVGID_1_);}
	.st1{fill:url(#SVGID_2_);}
	.st2{fill:url(#SVGID_3_);}
</style>
<g>
	<linearGradient id="SVGID_1_" gradientUnits="userSpaceOnUse" x1="0" y1="39.8755" x2="67.5218" y2="39.8755">
		<stop  offset="8.379889e-03" style="stop-color:#772182"/>
		<stop  offset="1" style="stop-color:#812082"/>
	</linearGradient>
	<path class="st0" d="M55.91,46.23c3.6,6.33,7.21,12.65,10.79,18.99c1.49,2.64,0.99,3.49-1.99,3.51c-2.75,0.02-5.53,0.2-8.26-0.06
		c-2.41-0.23-3.67,0.68-4.64,2.79c-1.04,2.27-2.39,4.4-3.65,6.58c-1.33,2.31-2.33,2.3-3.71-0.07c-3.14-5.38-6.24-10.78-9.37-16.17
		c-0.39-0.68-0.85-1.31-1.42-2.18c-3.58,6.1-7.02,11.95-10.46,17.8c-1.68,2.85-2.46,2.87-4.08,0.09c-1.43-2.45-2.74-4.96-4.3-7.32
		c-0.47-0.7-1.57-1.34-2.41-1.38c-3.31-0.16-6.64-0.04-9.96-0.07c-2.54-0.03-3.06-0.91-1.81-3.14c3.67-6.56,7.38-13.1,11.16-19.82
		c-2.6-1.61-2.06-4.03-1.53-6.29c0.72-3.07,0.39-5.65-2.31-7.65C7.2,31.25,6.6,30.44,6,29.68c-1.16-1.46-1.21-2.95,0.05-4.4
		c0.43-0.49,0.82-1.04,1.34-1.4c3.38-2.36,3.8-5.51,2.98-9.31c-0.81-3.79-0.06-5.09,3.82-5.34c4.61-0.3,7.01-2.61,8.73-6.55
		c1.26-2.9,2.73-3.41,5.4-1.71C32.2,3.44,35.7,3.54,39.66,1.1c2.65-1.63,3.97-0.94,5.47,1.81c0.04,0.07,0.09,0.14,0.11,0.22
		c1.38,4.22,4.27,6.16,8.72,6.55c3.54,0.32,4.42,1.62,3.56,5.13c-1.04,4.22-0.1,7.33,3.22,10.19c2.67,2.3,2.65,3.92-0.13,6.23
		c-3.4,2.83-4.27,6.02-3.33,10.2c0.32,1.44-0.4,3.11-0.64,4.67C56.4,46.13,56.15,46.18,55.91,46.23z M42.16,2.8
		c-5.61,4.7-10.81,4.55-15.94,0.23c-1.21,2.18-2.21,3.92-3.13,5.7c-0.8,1.55-1.92,2.47-3.74,2.68c-2.06,0.24-4.09,0.74-6.18,1.13
		c0.23,2.99,1.27,6.06,0.45,8.52c-0.84,2.53-3.48,4.46-5.59,6.95c5.57,3.54,6.9,8.59,4.25,15.25c7.36-0.63,11.58,2.64,13.33,9.69
		c5.52-4.8,10.71-4.72,16.17-0.07c1.81-6.79,5.94-9.94,13.1-9.34c-2.47-6.69-0.91-11.75,5.28-15.46c-6.35-3.79-7.47-8.97-4.94-15.55
		C47.98,13.05,43.91,9.8,42.16,2.8z M33.76,51.98c-0.17,0.16-0.35,0.32-0.52,0.48c4.31,7.47,8.62,14.93,13.1,22.7
		c1.29-2.27,2.54-4.09,3.38-6.07c1.14-2.66,2.82-3.78,5.78-3.43c2.5,0.29,5.05,0.06,8.02,0.06C59.92,59.35,56.6,53.46,53.2,47.6
		c-0.24-0.42-1.02-0.79-1.52-0.76c-2.2,0.14-4.31,0.48-5.17,3.05c-0.35,1.05-1.06,1.99-1.61,2.98c-1.58,2.81-2.75,3.16-5.74,1.72
		C37.36,53.72,35.56,52.85,33.76,51.98z M30.11,53.68c-0.52,0.23-1.1,0.47-1.68,0.72c-3.25,1.47-4.36,1.11-6.05-1.97
		c-0.78-1.42-1.48-2.87-2.32-4.25c-1.34-2.18-4.93-2.08-6.18,0.12c-2.9,5.13-5.81,10.25-8.7,15.39c-0.33,0.58-0.57,1.21-0.94,2.02
		c3.35,0,6.34,0.08,9.32-0.03c1.66-0.06,2.68,0.44,3.46,1.96c1.23,2.39,2.7,4.65,4.12,7.05c0.34-0.38,0.47-0.48,0.55-0.62
		c2.99-5.17,5.88-10.41,9-15.5C31.86,56.66,31.82,55.23,30.11,53.68z"/>
	<linearGradient id="SVGID_2_" gradientUnits="userSpaceOnUse" x1="18.0578" y1="27.8343" x2="49.4426" y2="27.8343">
		<stop  offset="8.379889e-03" style="stop-color:#772182"/>
		<stop  offset="1" style="stop-color:#812082"/>
	</linearGradient>
	<path class="st1" d="M33.78,12.18c8.75,0.03,15.72,7.07,15.66,15.81c-0.06,8.58-7.11,15.52-15.73,15.5
		c-8.65-0.03-15.63-6.97-15.65-15.57C18.03,19.16,25.04,12.16,33.78,12.18z M33.67,15.2c-6.98,0.03-12.57,5.7-12.54,12.7
		c0.03,6.98,5.72,12.62,12.69,12.58c6.91-0.04,12.65-5.83,12.61-12.73C46.38,20.84,40.62,15.17,33.67,15.2z"/>
	<linearGradient id="SVGID_3_" gradientUnits="userSpaceOnUse" x1="26.5824" y1="28.0648" x2="40.8819" y2="28.0648">
		<stop  offset="0" style="stop-color:#EB5E1D"/>
		<stop  offset="0.9693" style="stop-color:#F28A1A"/>
	</linearGradient>
	<path class="st2" d="M31.28,30.03c2.46-2.58,4.49-4.88,6.74-6.95c0.62-0.57,1.89-0.42,2.87-0.6c-0.21,0.98-0.1,2.25-0.68,2.9
		c-2.27,2.53-4.78,4.82-7.14,7.27c-1.2,1.24-2.26,1.39-3.47,0.06c-0.87-0.96-1.98-1.74-2.68-2.8c-0.41-0.63-0.24-1.65-0.33-2.49
		c0.85,0.04,1.83-0.16,2.53,0.19C29.84,27.99,30.3,28.9,31.28,30.03z"/>
</g>
</svg>
