<?xml version="1.0" encoding="utf-8"?>
<!-- Generator: Adobe Illustrator 25.2.1, SVG Export Plug-In . SVG Version: 6.00 Build 0)  -->
<svg version="1.1" id="Camada_1" xmlns="http://www.w3.org/2000/svg" xmlns:xlink="http://www.w3.org/1999/xlink" x="0px" y="0px"
	 viewBox="0 0 74.54 58.11" style="enable-background:new 0 0 74.54 58.11;" xml:space="preserve">
<style type="text/css">
	.st0{fill:url(#SVGID_1_);}
	.st1{fill:url(#SVGID_2_);}
	.st2{fill:url(#SVGID_3_);}
	.st3{fill:url(#SVGID_4_);}
	.st4{fill:url(#SVGID_5_);}
	.st5{fill:url(#SVGID_6_);}
	.st6{fill:url(#SVGID_7_);}
	.st7{fill:url(#SVGID_8_);}
	.st8{fill:url(#SVGID_9_);}
</style>
<g>
	<linearGradient id="SVGID_1_" gradientUnits="userSpaceOnUse" x1="0" y1="29.0553" x2="74.5365" y2="29.0553">
		<stop  offset="8.379889e-03" style="stop-color:#772182"/>
		<stop  offset="1" style="stop-color:#812082"/>
	</linearGradient>
	<path class="st0" d="M74.54,29.03C51.5,54.85,23.27,55.53,0,29.05C23.48,2.37,51.61,3.48,74.54,29.03z M68.1,29.04
		C49.94,9.52,20.29,9.65,6.53,29.18C26.85,49.22,48.07,48.64,68.1,29.04z"/>
	<linearGradient id="SVGID_2_" gradientUnits="userSpaceOnUse" x1="53.1751" y1="51.1075" x2="65.6378" y2="51.1075">
		<stop  offset="0" style="stop-color:#EB5E1D"/>
		<stop  offset="0.9693" style="stop-color:#F28A1A"/>
	</linearGradient>
	<path class="st1" d="M53.18,48.53c4.19-2.62,4.16-2.59,7.13,0.29c1.68,1.63,3.48,3.14,5.33,4.81c-4.45,2.72-4.44,2.71-7.59-0.4
		C56.46,51.66,54.84,50.13,53.18,48.53z"/>
	<linearGradient id="SVGID_3_" gradientUnits="userSpaceOnUse" x1="53.071" y1="7.0575" x2="65.0767" y2="7.0575">
		<stop  offset="0" style="stop-color:#EB5E1D"/>
		<stop  offset="0.9693" style="stop-color:#F28A1A"/>
	</linearGradient>
	<path class="st2" d="M53.07,9.21c2.12-1.99,4.03-4.33,6.45-5.83c1.29-0.8,3.48-0.14,5.27-0.14c0.1,0.39,0.19,0.77,0.29,1.16
		c-2.29,2.21-4.37,4.72-6.96,6.48c-1.04,0.7-3.19-0.25-4.84-0.44C53.21,10.02,53.14,9.62,53.07,9.21z"/>
	<linearGradient id="SVGID_4_" gradientUnits="userSpaceOnUse" x1="9.5409" y1="50.4359" x2="21.85" y2="50.4359">
		<stop  offset="0" style="stop-color:#EB5E1D"/>
		<stop  offset="0.9693" style="stop-color:#F28A1A"/>
	</linearGradient>
	<path class="st3" d="M21.85,47.72c-2.06,1.94-3.71,3.22-5.01,4.78c-2.03,2.45-4.11,3.52-7.29,0.69c2.4-2.35,4.74-5,7.51-7.09
		C17.71,45.6,19.79,46.98,21.85,47.72z"/>
	<linearGradient id="SVGID_5_" gradientUnits="userSpaceOnUse" x1="9.6691" y1="7.1979" x2="21.8279" y2="7.1979">
		<stop  offset="0" style="stop-color:#EB5E1D"/>
		<stop  offset="0.9693" style="stop-color:#F28A1A"/>
	</linearGradient>
	<path class="st4" d="M9.67,4.11c2.56-2,4.73-2.22,6.92,0.61c1.35,1.74,3.25,3.05,5.24,4.87c-1.91,0.91-3.26,1.56-4.63,2.22
		C14.68,9.23,12.24,6.73,9.67,4.11z"/>
	<linearGradient id="SVGID_6_" gradientUnits="userSpaceOnUse" x1="35.1221" y1="54.8799" x2="39.4688" y2="54.8799">
		<stop  offset="0" style="stop-color:#EB5E1D"/>
		<stop  offset="0.9693" style="stop-color:#F28A1A"/>
	</linearGradient>
	<path class="st5" d="M39.47,58.11c-1.6,0-2.85,0-4.35,0c0-2.17,0-4.25,0-6.45c1.39,0,2.8,0,4.35,0
		C39.47,53.8,39.47,55.81,39.47,58.11z"/>
	<linearGradient id="SVGID_7_" gradientUnits="userSpaceOnUse" x1="35.1205" y1="3.1687" x2="39.4111" y2="3.1687">
		<stop  offset="0" style="stop-color:#EB5E1D"/>
		<stop  offset="0.9693" style="stop-color:#F28A1A"/>
	</linearGradient>
	<path class="st6" d="M35.12,0c1.46,0,2.79,0,4.29,0c0,2.15,0,4.16,0,6.34c-1.42,0-2.74,0-4.29,0C35.12,4.37,35.12,2.36,35.12,0z"/>
	<linearGradient id="SVGID_8_" gradientUnits="userSpaceOnUse" x1="24.9777" y1="29.0243" x2="49.3993" y2="29.0243">
		<stop  offset="8.379889e-03" style="stop-color:#772182"/>
		<stop  offset="1" style="stop-color:#812082"/>
	</linearGradient>
	<path class="st7" d="M37.18,41.21c-6.69-0.01-12.11-5.36-12.2-12.04c-0.09-6.68,5.62-12.41,12.27-12.33
		c6.86,0.09,12.24,5.58,12.15,12.4C49.31,35.96,43.93,41.22,37.18,41.21z M37.19,21.42c-4.13,0.01-7.57,3.39-7.64,7.51
		c-0.08,4.19,3.5,7.82,7.69,7.8c4.06-0.01,7.58-3.47,7.68-7.56C45.02,25.03,41.43,21.42,37.19,21.42z"/>
	<linearGradient id="SVGID_9_" gradientUnits="userSpaceOnUse" x1="31.3891" y1="29.068" x2="43.0779" y2="29.068">
		<stop  offset="8.379889e-03" style="stop-color:#772182"/>
		<stop  offset="1" style="stop-color:#812082"/>
	</linearGradient>
	<path class="st8" d="M37.09,23.24c3.14-0.08,5.95,2.63,5.99,5.76c0.04,3.12-2.74,5.91-5.88,5.9c-3.04-0.01-5.69-2.59-5.81-5.64
		C31.27,26.11,33.91,23.31,37.09,23.24z"/>
</g>
</svg>
