<?xml version="1.0" encoding="utf-8"?>
<!-- Generator: Adobe Illustrator 24.1.2, SVG Export Plug-In . SVG Version: 6.00 Build 0)  -->
<svg version="1.1" id="Camada_1" xmlns="http://www.w3.org/2000/svg" xmlns:xlink="http://www.w3.org/1999/xlink" x="0px" y="0px"
	 viewBox="0 0 99.8 103.1" style="enable-background:new 0 0 99.8 103.1;" xml:space="preserve">
<style type="text/css">
	.st0{fill:url(#SVGID_1_);}
	.st1{fill:url(#SVGID_2_);}
	.st2{fill:url(#SVGID_3_);}
	.st3{fill:url(#SVGID_4_);}
</style>
<g>
	<linearGradient id="SVGID_1_" gradientUnits="userSpaceOnUse" x1="0" y1="51.5309" x2="77.2504" y2="51.5309">
		<stop  offset="0" style="stop-color:#FF5C00"/>
		<stop  offset="0.9693" style="stop-color:#FF8F00"/>
	</linearGradient>
	<path class="st0" d="M33,53.8c-17-10.7-17.5-32.9-5.7-44.9C39.3-3.3,58.5-2.9,69.9,9.7c11.3,12.6,9.8,33.5-6.5,44.1
		c2,0.9,4.1,1.7,6,2.6c1.1,0.5,2.1,1.1,3.2,1.7c2,1.2,2.7,3,1.7,4.6c-1,1.7-2.9,2.1-5,0.9c-3.9-2.2-8-3.8-12.3-4.8
		c-15.8-3.6-33.3,3-42.7,16.3c-5,7-7.7,14.8-7.9,23.5c-0.1,2.8-1.4,4.5-3.5,4.4c-2-0.1-3.1-1.7-3.1-4.5C0.2,79,13.1,61.2,32,54.3
		C32.4,54.2,32.8,54.2,33,53.8z M48.2,6.5c-11.7-0.1-22.6,9.2-22.5,22.7c0.1,13,10.5,22.4,22.5,22.3c12.1,0,22.5-9.5,22.5-22.5
		C70.8,16.4,60.7,6.5,48.2,6.5z"/>
	<linearGradient id="SVGID_2_" gradientUnits="userSpaceOnUse" x1="61.1356" y1="70.8331" x2="99.799" y2="70.8331">
		<stop  offset="0" style="stop-color:#FF5C00"/>
		<stop  offset="0.9693" style="stop-color:#FF8F00"/>
	</linearGradient>
	<path class="st1" d="M80.4,67.6c5.3,0,10.5,0,15.8,0c2.9,0,4.5,2.7,3,5c-0.7,1.1-1.7,1.5-2.9,1.5c-10.5,0-21.1,0-31.6,0
		c-2.1,0-3.6-1.4-3.6-3.3c0-1.9,1.4-3.2,3.6-3.2C70,67.5,75.2,67.6,80.4,67.6z"/>
	<linearGradient id="SVGID_3_" gradientUnits="userSpaceOnUse" x1="61.2053" y1="83.6881" x2="99.7785" y2="83.6881">
		<stop  offset="0" style="stop-color:#FF5C00"/>
		<stop  offset="0.9693" style="stop-color:#FF8F00"/>
	</linearGradient>
	<path class="st2" d="M80.3,86.9c-5.1,0-10.2,0-15.4,0c-2.4,0-3.7-1.1-3.7-3.2c0-2,1.3-3.2,3.7-3.2c10.4,0,20.8,0,31.2,0
		c1.5,0,2.7,0.5,3.3,1.9c0.6,1.2,0.4,2.3-0.4,3.4c-0.8,1-1.8,1.2-3,1.2C90.8,86.9,85.5,86.9,80.3,86.9z"/>
	<linearGradient id="SVGID_4_" gradientUnits="userSpaceOnUse" x1="61.1499" y1="96.6121" x2="99.7982" y2="96.6121">
		<stop  offset="0" style="stop-color:#FF5C00"/>
		<stop  offset="0.9693" style="stop-color:#FF8F00"/>
	</linearGradient>
	<path class="st3" d="M80.5,93.4c5.2,0,10.3,0,15.5,0c2.3,0,3.8,1.3,3.8,3.2c-0.1,1.9-1.5,3.2-3.8,3.2c-10.4,0-20.8,0-31.2,0
		c-1.5,0-2.7-0.5-3.3-1.9c-0.5-1.1-0.4-2.3,0.3-3.3c0.7-1,1.7-1.3,2.9-1.3C70,93.4,75.2,93.4,80.5,93.4z"/>
</g>
<g>
</g>
<g>
</g>
<g>
</g>
<g>
</g>
<g>
</g>
<g>
</g>
<g>
</g>
<g>
</g>
<g>
</g>
<g>
</g>
<g>
</g>
</svg>
