<?xml version="1.0" encoding="utf-8"?>
<!-- Generator: Adobe Illustrator 24.1.2, SVG Export Plug-In . SVG Version: 6.00 Build 0)  -->
<svg version="1.1" id="Camada_1" xmlns="http://www.w3.org/2000/svg" xmlns:xlink="http://www.w3.org/1999/xlink" x="0px" y="0px"
	 viewBox="0 0 64.1 50.9" style="enable-background:new 0 0 64.1 50.9;" xml:space="preserve">
<style type="text/css">
	.st0{fill:#772580;}
</style>
<g>
	<g>
		<path class="st0" d="M2,50.7l9.7-35.4L15,28.7c-4.2,0-7.7-1.3-10.4-3.8C1.9,22.5,0.6,19,0.6,14.7c0-4.2,1.4-7.6,4.1-10.3
			c2.8-2.6,6.1-3.9,10.2-3.9c4.1,0,7.5,1.3,10.2,3.9c2.7,2.6,4,6,4,10.3c0,1.3-0.1,2.5-0.2,3.8c-0.1,1.2-0.5,2.7-1,4.4
			c-0.5,1.7-1.4,3.9-2.6,6.6l-8.6,21.2H2z M36.8,50.7l9.7-35.4l3.2,13.4c-4.2,0-7.7-1.3-10.4-3.8c-2.7-2.5-4.1-5.9-4.1-10.3
			c0-4.2,1.4-7.6,4.1-10.3c2.8-2.6,6.1-3.9,10.2-3.9c4.1,0,7.5,1.3,10.2,3.9c2.7,2.6,4,6,4,10.3c0,1.3-0.1,2.5-0.2,3.8
			c-0.1,1.2-0.5,2.7-1,4.4c-0.5,1.7-1.4,3.9-2.6,6.6l-8.6,21.2H36.8z"/>
	</g>
</g>
<g>
</g>
<g>
</g>
<g>
</g>
<g>
</g>
<g>
</g>
<g>
</g>
<g>
</g>
<g>
</g>
<g>
</g>
<g>
</g>
<g>
</g>
</svg>
