<?xml version="1.0" encoding="utf-8"?>
<!-- Generator: Adobe Illustrator 24.1.2, SVG Export Plug-In . SVG Version: 6.00 Build 0)  -->
<svg version="1.1" id="Camada_1" xmlns="http://www.w3.org/2000/svg" xmlns:xlink="http://www.w3.org/1999/xlink" x="0px" y="0px"
	 viewBox="0 0 88.9 88.6" style="enable-background:new 0 0 88.9 88.6;" xml:space="preserve">
<style type="text/css">
	.st0{fill:url(#SVGID_1_);}
	.st1{fill:url(#SVGID_2_);}
	.st2{fill:url(#SVGID_3_);}
	.st3{fill:url(#SVGID_4_);}
	.st4{fill:url(#SVGID_5_);}
</style>
<g>
	<linearGradient id="SVGID_1_" gradientUnits="userSpaceOnUse" x1="0" y1="44.0787" x2="69.4243" y2="44.0787">
		<stop  offset="8.379889e-03" style="stop-color:#7A1687"/>
		<stop  offset="1" style="stop-color:#851687"/>
	</linearGradient>
	<path class="st0" d="M0,67.6c0.2-1,0.3-2.1,0.6-3.1c0.7-1.9,1.4-3.9,2.5-5.6c10.3-16.6,20.7-33.1,31-49.6c4-6.3,9.8-9.4,17.2-9.2
		C59,0.2,66.5,6.1,68.6,13.4c1.6,5.6,0.8,10.9-2.3,15.9C56,45.8,45.6,62.4,35.2,79c-3.2,5.1-7.8,8.2-13.7,9
		c-8.8,1.2-16.9-4.1-19.9-11.4c-0.8-1.9-1.1-3.9-1.6-5.9C0,69.6,0,68.6,0,67.6z M20.9,37.6c-0.1,0.2-0.2,0.3-0.3,0.4
		c-4.8,7.7-9.7,15.5-14.5,23.2c-2,3.2-2.7,6.6-2.1,10.3c1.4,9.1,11,14.9,19.8,12.1c3.7-1.2,6.4-3.5,8.4-6.8
		c4.6-7.4,9.3-14.9,13.9-22.3c0.2-0.3,0.3-0.5,0.5-0.8C38,48.3,29.5,43,20.9,37.6z M48.5,50.5c0.1-0.2,0.2-0.3,0.3-0.4
		c4.8-7.7,9.7-15.5,14.5-23.2c2.4-3.9,2.9-8,1.6-12.4C62.9,7.5,55.2,2.7,48,4c-4.6,0.8-8.1,3.3-10.6,7.2c-4.7,7.5-9.4,15-14.1,22.6
		c-0.1,0.2-0.2,0.4-0.4,0.7C31.5,39.8,40,45.1,48.5,50.5z"/>
	<linearGradient id="SVGID_2_" gradientUnits="userSpaceOnUse" x1="50.0311" y1="69.1577" x2="88.92" y2="69.1577">
		<stop  offset="8.379889e-03" style="stop-color:#7A1687"/>
		<stop  offset="1" style="stop-color:#851687"/>
	</linearGradient>
	<path class="st1" d="M69.4,88.6C58.7,88.5,50,79.8,50,69.1c0.1-10.7,8.9-19.5,19.5-19.4c10.8,0.1,19.4,8.8,19.4,19.5
		C88.9,79.9,80.1,88.6,69.4,88.6z M69.5,84.8c8.7,0,15.7-7,15.6-15.7c0-8.6-7.1-15.6-15.7-15.6c-8.6,0-15.7,7.1-15.6,15.7
		C53.9,77.8,60.9,84.8,69.5,84.8z"/>
	<linearGradient id="SVGID_3_" gradientUnits="userSpaceOnUse" x1="8.0611" y1="70.6944" x2="16.266" y2="70.6944">
		<stop  offset="8.379889e-03" style="stop-color:#7A1687"/>
		<stop  offset="1" style="stop-color:#851687"/>
	</linearGradient>
	<path class="st2" d="M11.3,62.7c1.3,0,2.2,1.2,1.7,2.5c-0.3,0.8-0.7,1.5-0.9,2.3c-0.7,2.7,0.2,5.5,2.4,7.2c0.3,0.2,0.7,0.5,1,0.7
		c0.8,0.7,1,1.7,0.4,2.6c-0.6,0.8-1.7,1.1-2.6,0.5c-2.6-1.6-4.3-3.9-5-6.8c-0.6-2.7-0.2-5.3,1.2-7.8C9.9,63.1,10.5,62.6,11.3,62.7z"
		/>
	<linearGradient id="SVGID_4_" gradientUnits="userSpaceOnUse" x1="53.1756" y1="17.4727" x2="61.4669" y2="17.4727">
		<stop  offset="8.379889e-03" style="stop-color:#7A1687"/>
		<stop  offset="1" style="stop-color:#851687"/>
	</linearGradient>
	<path class="st3" d="M61.5,18.9c-0.1,1.9-0.6,3.7-1.5,5.4c-0.6,1.1-1.6,1.5-2.6,1c-1-0.5-1.3-1.6-0.7-2.7c1-1.9,1.3-3.9,0.6-6
		c-0.5-1.5-1.6-2.7-2.9-3.6c-0.7-0.5-1.2-1.2-1-2.1C53.5,9.5,55,9,56.3,9.8c2.3,1.4,3.9,3.5,4.6,6.1C61.2,16.9,61.3,17.9,61.5,18.9z
		"/>
	<linearGradient id="SVGID_5_" gradientUnits="userSpaceOnUse" x1="62.6902" y1="69.1789" x2="76.2664" y2="69.1789">
		<stop  offset="8.379889e-03" style="stop-color:#7A1687"/>
		<stop  offset="1" style="stop-color:#851687"/>
	</linearGradient>
	<path class="st4" d="M64.5,79c-1.2,0-2.1-1.2-1.7-2.4c0.1-0.3,0.3-0.6,0.5-0.9c3.1-5,6.2-10,9.3-15c0.2-0.3,0.3-0.5,0.6-0.8
		c0.6-0.6,1.6-0.7,2.3-0.3c0.7,0.4,1.1,1.3,0.8,2.1c-0.1,0.3-0.3,0.6-0.5,0.9c-3.1,5-6.2,10.1-9.3,15.1C66,78.5,65.5,79.1,64.5,79z"
		/>
</g>
<g>
</g>
<g>
</g>
<g>
</g>
<g>
</g>
<g>
</g>
<g>
</g>
<g>
</g>
<g>
</g>
<g>
</g>
<g>
</g>
<g>
</g>
</svg>
