<?xml version="1.0" encoding="utf-8"?>
<!-- Generator: Adobe Illustrator 24.1.2, SVG Export Plug-In . SVG Version: 6.00 Build 0)  -->
<svg version="1.1" id="Camada_1" xmlns="http://www.w3.org/2000/svg" xmlns:xlink="http://www.w3.org/1999/xlink" x="0px" y="0px"
	 viewBox="0 0 114 90.7" style="enable-background:new 0 0 114 90.7;" xml:space="preserve">
<style type="text/css">
	.st0{fill:#772580;}
</style>
<g>
	<path class="st0" d="M0,45.4c0.5-0.6,0.9-1.2,1.4-1.7c16.5-13.8,33-27.5,49.5-41.2c4-3.3,8.2-3.3,12.2,0
		c5.2,4.3,10.3,8.6,15.4,12.9c0.3,0.2,0.6,0.5,1,0.8c0-0.5,0.1-0.9,0.1-1.2c0-3.9,0-7.9,0-11.8c0-2.3,0.7-3,3-3c4,0,8.1,0,12.1,0
		c2.2,0,2.9,0.8,2.9,3c0,9,0,18,0,27c0,0.8,0.3,1.3,0.9,1.9c4.6,3.8,9.3,7.7,13.9,11.5c1.9,1.6,2,2.6,0.4,4.5
		c-1.1,1.4-2.3,2.7-3.4,4.1c-1.3,1.5-2.5,1.6-4,0.3c-15.7-13.1-31.3-26.1-47-39.2C58,13,57.5,12.6,57,12.1c-1.8,1.5-3.5,2.9-5.3,4.4
		C37.3,28.5,23,40.5,8.6,52.4c-1.6,1.4-2.8,1.3-4.2-0.4c-1.5-1.8-3-3.6-4.4-5.4C0,46.3,0,45.8,0,45.4z"/>
	<path class="st0" d="M66.1,90.7c0-9,0-18,0-27c-6.1,0-12,0-18.1,0c0,9,0,18,0,27.1c-0.6,0-1,0-1.4,0c-8.3,0-16.6,0-24.9,0
		c-3.6,0-5.4-1.8-5.4-5.4c0-10.8,0-21.5,0-32.3c0-0.7,0.1-1.3,0.8-1.8c13-10.7,26-21.4,39-32.1c0.3-0.3,0.6-0.5,1-0.8
		c2.9,2.4,5.8,4.8,8.7,7.2c10.4,8.6,20.8,17.1,31.2,25.7c0.6,0.5,0.9,1,0.9,1.8c0,10.9,0,21.9,0,32.8c0,3-1.9,4.9-4.8,4.9
		c-8.7,0-17.4,0-26,0C66.6,90.7,66.4,90.7,66.1,90.7z"/>
</g>
<g>
</g>
<g>
</g>
<g>
</g>
<g>
</g>
<g>
</g>
<g>
</g>
<g>
</g>
<g>
</g>
<g>
</g>
<g>
</g>
<g>
</g>
</svg>
