<?xml version="1.0" encoding="utf-8"?>
<!-- Generator: Adobe Illustrator 25.2.1, SVG Export Plug-In . SVG Version: 6.00 Build 0)  -->
<svg version="1.1" id="Camada_1" xmlns="http://www.w3.org/2000/svg" xmlns:xlink="http://www.w3.org/1999/xlink" x="0px" y="0px"
	 viewBox="0 0 129.2 114.4" style="enable-background:new 0 0 129.2 114.4;" xml:space="preserve">
<style type="text/css">
	.st0{fill:url(#SVGID_1_);}
	.st1{fill:url(#SVGID_2_);}
	.st2{fill:url(#SVGID_3_);}
	.st3{fill:url(#SVGID_4_);}
	.st4{fill:url(#SVGID_5_);}
	.st5{fill:url(#SVGID_6_);}
	.st6{fill:url(#SVGID_7_);}
</style>
<g>
	<linearGradient id="SVGID_1_" gradientUnits="userSpaceOnUse" x1="0" y1="53.3255" x2="129.1673" y2="53.3255">
		<stop  offset="8.379889e-03" style="stop-color:#772182"/>
		<stop  offset="1" style="stop-color:#812082"/>
	</linearGradient>
	<path class="st0" d="M78.4,81.4c-1.8,3.7-4.2,4.5-7.8,2.9c-1.9-0.9-3.8-1.7-5.7-2.6c-0.7-0.3-1.3-0.6-2.1-0.9
		c-0.8,1.2-1.7,2.3-2.5,3.5c-3.3,4.7-9.3,4.2-11.8-0.8c-0.1-0.2-0.5-0.5-0.7-0.5c-3,0.4-5.2-0.7-6.8-3.2c-5.7,2.1-9.1,0-10-6
		c-5.1-1.1-6.7-5.8-4.8-9.5c-1.8-0.8-3.6-1.7-5.5-2.6c-0.3,0.7-0.6,1.4-0.9,2c-0.6,1.3-1.5,1.7-2.9,1.2c-5.1-2-10.3-3.9-15.4-5.9
		c-1.4-0.5-1.8-1.5-1.3-3c4.5-11.7,9-23.3,13.5-35c0.6-1.6,1.5-2,3.1-1.4c5.3,1.9,10.6,3.8,15.9,5.7c1.6,0.6,2,1.6,1.4,3.2
		c-0.2,0.6-0.5,1.2-0.8,1.9c3.9,0.7,7.7,1.5,11.5-0.2c2.7-1.2,5.5-2.1,8.3-3c5.9-1.9,11.7-1.8,17.3,1.1c0.3,0.2,0.9,0.2,1.2,0.1
		c4.5-1.2,9-1.1,13.4,0.4c1.3,0.4,2.6,0.7,3.8,1.2c3.4,1.2,6.7,0.8,10.1-0.5c-0.1-0.6-0.3-1.1-0.4-1.7c-0.4-1.6,0.1-2.5,1.7-2.9
		c4.9-1.3,9.8-2.6,14.6-3.9c1.7-0.4,2.5,0,3,1.7c3.7,11.9,7.3,23.8,11,35.7c0.5,1.6-0.1,2.5-1.7,3c-5.1,1.4-10.3,2.7-15.4,4.1
		c-2.1,0.6-2.9,0.2-3.5-1.9c-0.1-0.2-0.1-0.4-0.2-0.5c-2.5,0.2-4.9,0.5-7.4,0.7c-1.1,4.9-2.6,6.4-7.3,7.1c-0.3,0.9-0.6,1.8-1,2.7
		c-0.9,1.7-2.4,2.7-4.3,3.1c-0.4,0.1-0.8,0.1-0.9,0.7c-0.9,4.2-4.4,6.1-8.5,4.5C78.7,81.4,78.6,81.4,78.4,81.4z M65.2,77.4
		c1.3,0.6,2.6,1.2,3.9,1.8c1.2,0.6,2.4,1.1,3.6,1.7c0.6,0.3,1.3,0.4,1.7-0.4c0.4-0.8-0.2-1.2-0.8-1.5c-0.1-0.1-0.2-0.1-0.4-0.2
		c-1.6-0.9-3.3-1.7-4.9-2.6c-1-0.6-1.3-1.7-0.8-2.7c0.5-0.9,1.6-1.3,2.7-0.8c0.2,0.1,0.5,0.3,0.7,0.4c3.2,1.6,6.3,3.2,9.5,4.8
		c1.1,0.6,2.2,0.3,2.7-0.7c0.5-0.9,0.1-1.9-0.9-2.6c-1.6-1-3.3-1.9-5-2.9c-3.6-2.1-7.2-4.1-10.7-6.3c-0.5-0.3-1-0.9-1.3-1.5
		c-0.3-0.8,0-1.6,0.7-2.1c0.8-0.6,1.6-0.5,2.5,0c5.7,3.4,11.5,6.7,17.3,10.1c1.4,0.8,2.6,0.6,3.3-0.5c0.7-1.1,0.3-2.2-1.1-3.1
		c-3.8-2.3-7.5-4.7-11.3-7c-1.4-0.9-2.8-1.7-4.2-2.6c-1.1-0.7-1.4-1.9-0.8-2.8c0.6-1,1.8-1.2,2.9-0.6c0.1,0,0.2,0.1,0.3,0.2
		c5.6,3.5,11.2,6.9,16.7,10.4c0.8,0.5,1.7,0.8,2.7,0.6c1.4-0.4,2.2-1.2,2.4-2.6c0.2-1.4-0.4-2.5-1.6-3.3
		c-6.5-4.3-12.9-8.6-19.4-12.9c-2.5-1.7-5-1.7-7.5,0c-2.5,1.6-5,3.2-7.5,4.8c-1.6,1.1-3.4,1.4-5.3,0.8c-2.4-0.7-3.9-2.2-4.6-4.6
		c-0.7-2.5-0.1-4.7,1.8-6.5C57,38.3,61,34,65.9,30.5c-0.3-0.1-0.5-0.2-0.7-0.3c-2.6-0.7-5.3-0.9-7.9-0.2c-3.3,0.9-6.4,2-9.6,3.2
		c-3.1,1.1-6.2,2.2-9.6,1.8c-1.7-0.2-3.5-0.5-5.2-0.8c-0.9-0.2-1.3,0-1.7,0.9c-2.2,5.6-4.4,11.1-6.7,16.6c-0.8,2-1.6,3.9-2.4,6
		c1.8,0.8,3.5,1.6,5.2,2.5c0.8,0.4,1.3,0.4,1.9-0.4c2.3-3.3,6.9-3.5,9.6-0.6c0.2,0.2,0.4,0.4,0.6,0.7c1.6-2.6,3.8-4.1,6.9-3.7
		c3.2,0.5,4.9,2.5,5.5,5.5c4.2,0.5,5.5,1.6,6.9,5.9C63.7,67.7,67.1,72.2,65.2,77.4z M100.2,33.2c-0.7,0.2-1.2,0.3-1.8,0.5
		c-3.5,1-6.9,1.1-10.4,0c-1.5-0.5-3.1-1-4.6-1.4c-7-1.9-13.3-0.5-18.7,4.2c-3,2.7-6,5.5-9,8.2c-1.3,1.2-1.5,2.5-0.6,3.6
		c0.9,1.1,2.2,1.3,3.6,0.4c2.5-1.6,4.9-3.2,7.4-4.7c3.8-2.4,7.7-2.4,11.5,0c1.4,0.9,2.8,1.8,4.2,2.8c5.5,3.6,10.9,7.3,16.4,10.9
		c2.8,1.8,5.7,2,8.8,0.8C104.8,50,102.5,41.6,100.2,33.2z M16.9,23.8C12.8,34.4,8.7,45,4.6,55.7c4.1,1.6,8.1,3.1,12.2,4.7
		c4.3-10.7,8.6-21.3,12.9-32C25.5,26.8,21.2,25.3,16.9,23.8z M103,28.1c3,11,6,21.9,8.9,32.9c4.3-1.1,8.4-2.2,12.7-3.4
		c-3.4-11-6.7-21.8-10-32.6C110.7,26,106.9,27,103,28.1z M48.1,62.7c-0.2-1.1-0.8-2-1.8-2.3c-1.1-0.4-2.1,0-2.8,1.1
		c-2.6,3.6-5.2,7.3-7.7,10.9c-1,1.4-0.9,2.8,0.3,3.6c1.2,0.9,2.6,0.6,3.6-0.9c2.6-3.6,5.2-7.3,7.7-11C47.7,63.7,47.9,63.2,48.1,62.7
		z M54.9,68.4c-0.1-1.1-0.8-2-1.7-2.3c-1.1-0.3-2.1,0-2.8,1c-1.9,2.6-3.8,5.3-5.6,7.9c-0.9,1.2-0.6,2.7,0.5,3.4
		c1.2,0.8,2.6,0.5,3.5-0.7c1.9-2.6,3.7-5.2,5.5-7.9C54.6,69.4,54.7,68.8,54.9,68.4z M51.9,80.7c0.1,1.2,0.8,2.2,1.9,2.5
		c1.1,0.4,2.2,0,3-1.1c1.5-2,2.9-4.1,4.4-6.2c1-1.4,0.7-2.9-0.6-3.8c-1.2-0.8-2.7-0.5-3.6,0.8c-1.4,2-2.9,4-4.3,6
		C52.4,79.6,52.2,80.2,51.9,80.7z M32.1,69.5c0.2-0.1,0.9-0.3,1.2-0.8c1.1-1.3,2-2.7,3-4.1c0.6-1,0.3-2.2-0.6-2.9
		c-0.9-0.7-2.2-0.6-2.9,0.3c-1.1,1.4-2.1,2.8-3,4.2C28.9,67.8,30,69.6,32.1,69.5z"/>
	<linearGradient id="SVGID_2_" gradientUnits="userSpaceOnUse" x1="64.2878" y1="10.2586" x2="68.3093" y2="10.2586">
		<stop  offset="0" style="stop-color:#EB5E1D"/>
		<stop  offset="0.9693" style="stop-color:#F28A1A"/>
	</linearGradient>
	<path class="st1" d="M68.3,10.3c0,2.6,0,5.2,0,7.8c0,1.5-0.8,2.4-2,2.4c-1.2,0-2-0.9-2-2.4c0-5.3,0-10.5,0-15.8
		c0-1.4,0.8-2.3,2-2.4c1.2,0,2,0.9,2,2.3C68.3,5,68.3,7.7,68.3,10.3z"/>
	<linearGradient id="SVGID_3_" gradientUnits="userSpaceOnUse" x1="64.2889" y1="104.1169" x2="68.3109" y2="104.1169">
		<stop  offset="0" style="stop-color:#EB5E1D"/>
		<stop  offset="0.9693" style="stop-color:#F28A1A"/>
	</linearGradient>
	<path class="st2" d="M68.3,104.1c0,2.6,0,5.3,0,7.9c0,1.4-0.8,2.4-2,2.4c-1.2,0-2-0.9-2-2.3c0-5.3,0-10.6,0-15.9
		c0-1.4,0.8-2.3,2.1-2.3c1.2,0,1.9,0.9,2,2.3C68.3,98.8,68.3,101.5,68.3,104.1z"/>
	<linearGradient id="SVGID_4_" gradientUnits="userSpaceOnUse" x1="46.6115" y1="98.6316" x2="56.4265" y2="98.6316">
		<stop  offset="0" style="stop-color:#EB5E1D"/>
		<stop  offset="0.9693" style="stop-color:#F28A1A"/>
	</linearGradient>
	<path class="st3" d="M49,105.6c-1.9,0-2.9-1.5-2.1-2.9c0.5-0.9,1.1-1.8,1.6-2.7c1.3-2.3,2.7-4.5,4-6.8c0.8-1.4,1.9-1.8,3-1.1
		c1,0.6,1.2,1.8,0.4,3.1c-1.8,3-3.6,6.1-5.4,9.1C50.1,105,49.6,105.5,49,105.6z"/>
	<linearGradient id="SVGID_5_" gradientUnits="userSpaceOnUse" x1="76.197" y1="98.6419" x2="86.0149" y2="98.6419">
		<stop  offset="0" style="stop-color:#EB5E1D"/>
		<stop  offset="0.9693" style="stop-color:#F28A1A"/>
	</linearGradient>
	<path class="st4" d="M78.5,91.7c0.3,0.2,1,0.5,1.4,1.1c2,3.2,3.9,6.5,5.8,9.8c0.6,1,0.3,2.2-0.7,2.8c-1,0.6-2.2,0.3-2.8-0.8
		c-1.9-3.2-3.8-6.4-5.7-9.6C75.7,93.4,76.5,91.7,78.5,91.7z"/>
	<linearGradient id="SVGID_6_" gradientUnits="userSpaceOnUse" x1="46.5839" y1="15.6284" x2="56.4541" y2="15.6284">
		<stop  offset="0" style="stop-color:#EB5E1D"/>
		<stop  offset="0.9693" style="stop-color:#F28A1A"/>
	</linearGradient>
	<path class="st5" d="M48.7,8.6C49.3,9,50,9.3,50.3,9.8c2,3.2,3.9,6.5,5.8,9.8c0.6,1,0.3,2.2-0.6,2.8c-1,0.6-2.1,0.3-2.8-0.7
		c-2-3.3-4-6.6-5.9-10C46.1,10.4,47.1,8.8,48.7,8.6z"/>
	<linearGradient id="SVGID_7_" gradientUnits="userSpaceOnUse" x1="76.1884" y1="15.7304" x2="86.0055" y2="15.7304">
		<stop  offset="0" style="stop-color:#EB5E1D"/>
		<stop  offset="0.9693" style="stop-color:#F28A1A"/>
	</linearGradient>
	<path class="st6" d="M86,11c-0.1,0.2-0.2,0.7-0.4,1.1c-1.8,3.1-3.6,6.2-5.5,9.3c-0.8,1.3-1.9,1.7-3,1c-1-0.6-1.2-1.8-0.5-3.1
		c1.9-3.1,3.7-6.3,5.6-9.4c0.5-0.9,1.4-1.3,2.3-1C85.4,9.1,86,9.9,86,11z"/>
</g>
<g>
</g>
<g>
</g>
<g>
</g>
<g>
</g>
<g>
</g>
<g>
</g>
</svg>
