<?xml version="1.0" encoding="utf-8"?>
<!-- Generator: Adobe Illustrator 24.1.2, SVG Export Plug-In . SVG Version: 6.00 Build 0)  -->
<svg version="1.1" id="Camada_1" xmlns="http://www.w3.org/2000/svg" xmlns:xlink="http://www.w3.org/1999/xlink" x="0px" y="0px"
	 viewBox="0 0 82.8 79.6" style="enable-background:new 0 0 82.8 79.6;" xml:space="preserve">
<style type="text/css">
	.st0{fill:none;stroke:url(#SVGID_1_);stroke-width:6;stroke-linecap:round;stroke-linejoin:round;stroke-miterlimit:10;}
</style>
<linearGradient id="SVGID_1_" gradientUnits="userSpaceOnUse" x1="0" y1="39.8077" x2="82.8208" y2="39.8077">
	<stop  offset="0" style="stop-color:#FF5C00"/>
	<stop  offset="0.9693" style="stop-color:#FF8B00"/>
</linearGradient>
<path class="st0" d="M79.8,32.9c-0.4,1.3-1.3,2.2-2.3,3.1c-5.1,4.4-10.2,8.9-15.2,13.3c-0.5,0.4-0.6,0.7-0.4,1.3
	c1.6,6.9,3.1,13.8,4.7,20.7c0.4,1.8,0,3.4-1.5,4.5c-1.5,1.1-3.2,1.1-4.8,0.1c-6-3.6-12.1-7.2-18.1-10.9c-0.6-0.4-1-0.3-1.5,0
	c-6,3.6-12,7.2-18.1,10.8c-2,1.2-4.3,0.9-5.6-0.8c-0.8-1.1-1-2.3-0.7-3.6c1.6-6.9,3.1-13.8,4.7-20.7c0.2-0.7,0-1.1-0.5-1.5
	c-5.3-4.6-10.6-9.3-15.9-13.9c-1.4-1.2-1.9-2.7-1.4-4.4C3.8,29.2,5,28.2,6.8,28c4.2-0.4,8.5-0.8,12.7-1.2c2.9-0.3,5.9-0.5,8.8-0.8
	c0.5,0,0.7-0.2,0.9-0.7c2.8-6.5,5.6-13,8.3-19.6c0.7-1.6,1.8-2.7,3.6-2.8c1.9-0.2,3.4,0.9,4.2,2.8c2.6,6,5.2,11.9,7.6,17.9
	c0.7,1.7,1.5,2.4,3.4,2.6c6.3,0.4,12.6,1.1,18.9,1.6c2.3,0.2,3.9,1.2,4.6,3.5C79.8,31.9,79.8,32.4,79.8,32.9z"/>
<g>
</g>
<g>
</g>
<g>
</g>
<g>
</g>
<g>
</g>
<g>
</g>
<g>
</g>
<g>
</g>
<g>
</g>
<g>
</g>
<g>
</g>
</svg>
