<?xml version="1.0" encoding="utf-8"?>
<!-- Generator: Adobe Illustrator 25.2.1, SVG Export Plug-In . SVG Version: 6.00 Build 0)  -->
<svg version="1.1" id="Camada_1" xmlns="http://www.w3.org/2000/svg" xmlns:xlink="http://www.w3.org/1999/xlink" x="0px" y="0px"
	 viewBox="0 0 43.2 42.1" style="enable-background:new 0 0 43.2 42.1;" xml:space="preserve">
<style type="text/css">
	.st0{fill:url(#SVGID_1_);}
	.st1{fill:url(#SVGID_2_);}
</style>
<g>
	<linearGradient id="SVGID_1_" gradientUnits="userSpaceOnUse" x1="0" y1="21.051" x2="30.3867" y2="21.051">
		<stop  offset="0" style="stop-color:#EB5E1D"/>
		<stop  offset="0.9693" style="stop-color:#F28E1C"/>
	</linearGradient>
	<path class="st0" d="M18.9,28.6c2,0,3.8,0,5.5,0c1.1,0,1.5-0.5,1.5-1.5c0-1.3,0-2.7,0-4c0-3.6,0.7-4.2,4.5-3.6
		c0,3.8,0.1,7.6,0,11.4c0,1.5-1.1,2.2-2.6,2.2c-2.9,0-5.7,0-8.8,0c0,2.5,0,4.7,0,7c0,2-0.7,2.5-2.5,1.6c-4.9-2.5-9.9-5.1-14.8-7.6
		C0.4,33.4,0,32.6,0,31.3c0-9.5,0-19.1,0-28.6C0,0.7,0.8,0,2.7,0C11,0,19.3,0,27.6,0c1.9,0,2.7,0.7,2.7,2.6c0,2.2,0,4.5,0,6.7
		C27,10.2,26,9.5,25.9,6.1c0-1.1-0.3-1.7-1.5-1.7c-4.6,0-9.2,0-13.8,0c-0.2,0-0.3,0.1-0.9,0.4c2.4,1.3,4.6,2.5,6.8,3.5
		c1.8,0.8,2.6,1.9,2.5,4C18.8,17.7,18.9,23,18.9,28.6z"/>
	<linearGradient id="SVGID_2_" gradientUnits="userSpaceOnUse" x1="21.4514" y1="14.3483" x2="43.2136" y2="14.3483">
		<stop  offset="0" style="stop-color:#EB5E1D"/>
		<stop  offset="0.9693" style="stop-color:#F28E1C"/>
	</linearGradient>
	<path class="st1" d="M35.1,11.4c-0.8-0.7-1.6-1.4-2.4-2.1c-1.1-1-1.3-2.3-0.2-3.4c1-1,2.3-0.9,3.3,0.1c2.3,2.2,4.6,4.5,6.8,6.8
		c1,1,1,2.2-0.1,3.3c-2.2,2.3-4.5,4.5-6.8,6.8c-1,0.9-2.1,1-3.1,0.1c-1.1-1-1-2.2-0.1-3.2c0.8-0.9,1.8-1.6,2.7-2.4
		c-0.1-0.2-0.2-0.4-0.3-0.6c-3.5,0-7,0-10.5,0c-1.3,0-2.4-0.3-2.8-1.8c-0.4-1.7,0.6-3,2.4-3c3.6,0,7.2,0,10.7,0
		C34.8,11.7,35,11.6,35.1,11.4z"/>
</g>
<g>
</g>
<g>
</g>
<g>
</g>
<g>
</g>
<g>
</g>
<g>
</g>
</svg>
