<?xml version="1.0" encoding="utf-8"?>
<!-- Generator: Adobe Illustrator 24.1.2, SVG Export Plug-In . SVG Version: 6.00 Build 0)  -->
<svg version="1.1" id="Camada_1" xmlns="http://www.w3.org/2000/svg" xmlns:xlink="http://www.w3.org/1999/xlink" x="0px" y="0px"
	 viewBox="0 0 151.6 99.6" style="enable-background:new 0 0 151.6 99.6;" xml:space="preserve">
<style type="text/css">
	.st0{fill:url(#SVGID_1_);}
	.st1{fill:url(#SVGID_2_);}
</style>
<g>
	<linearGradient id="SVGID_1_" gradientUnits="userSpaceOnUse" x1="5.6301" y1="42.5095" x2="145.9355" y2="42.5095">
		<stop  offset="8.379889e-03" style="stop-color:#7A168B"/>
		<stop  offset="1" style="stop-color:#89168B"/>
	</linearGradient>
	<path class="st0" d="M75.9,0.1c21.2,0,42.3,0,63.5,0c4.6,0,6.5,1.9,6.5,6.4c0,24.1,0,48.1,0,72.2c0,4.4-2,6.4-6.4,6.4
		c-42.1,0-84.1,0-126.2,0c-0.8,0-1.6,0-2.4,0c-3.1-0.2-5.1-2.3-5.2-5.3c0-1.3,0-2.6,0-3.9c0-23,0.1-46-0.1-68.9C5.6,2.4,8,0,12.4,0
		C33.5,0.1,54.7,0.1,75.9,0.1z M12.2,75.5c42.5,0,84.8,0,127.1,0c0-23,0-46,0-68.9c-42.5,0-84.8,0-127.1,0
		C12.2,29.6,12.2,52.5,12.2,75.5z M75.8,83.4c1.6,0,3-1.4,3-3c0-1.6-1.3-3-2.9-3.1c-1.7,0-3.1,1.4-3.1,3.1
		C72.8,82,74.2,83.4,75.8,83.4z"/>
	<linearGradient id="SVGID_2_" gradientUnits="userSpaceOnUse" x1="9.094947e-13" y1="94.2534" x2="151.6171" y2="94.2534">
		<stop  offset="8.379889e-03" style="stop-color:#7A168B"/>
		<stop  offset="1" style="stop-color:#89168B"/>
	</linearGradient>
	<path class="st1" d="M75.8,99.6c-21.9,0-43.8,0-65.7,0c-4.4,0-8.2-2.5-9.7-6.6c-0.9-2.2-0.1-3.5,2.2-3.9C3.2,89,4,88.9,4.7,88.9
		c18.9,0,37.7,0,56.6,0c1.3,0,1.9,0.4,2.3,1.6c1.3,3.9,1.8,4.1,5.9,4.1c4.6,0,9.1,0,13.7,0c2.7,0,3.9-0.7,4.6-3.3
		c0.5-1.9,1.5-2.4,3.4-2.4c18.4,0.1,36.8,0,55.2,0.1c1,0,2,0,3,0.2c1.9,0.4,2.6,1.6,2,3.5c-1.3,3.9-5.3,6.9-9.5,6.9
		C119.9,99.6,97.8,99.6,75.8,99.6z"/>
</g>
<g>
</g>
<g>
</g>
<g>
</g>
<g>
</g>
<g>
</g>
<g>
</g>
<g>
</g>
<g>
</g>
<g>
</g>
<g>
</g>
<g>
</g>
</svg>
