<?xml version="1.0" encoding="utf-8"?>
<!-- Generator: Adobe Illustrator 24.1.2, SVG Export Plug-In . SVG Version: 6.00 Build 0)  -->
<svg version="1.1" id="Camada_1" xmlns="http://www.w3.org/2000/svg" xmlns:xlink="http://www.w3.org/1999/xlink" x="0px" y="0px"
	 viewBox="0 0 123.7 196.6" style="enable-background:new 0 0 123.7 196.6;" xml:space="preserve">
<style type="text/css">
	.st0{fill:url(#SVGID_1_);}
	.st1{fill:url(#SVGID_2_);}
	.st2{fill:url(#SVGID_3_);}
	.st3{fill:url(#SVGID_4_);}
	.st4{fill:url(#SVGID_5_);}
	.st5{fill:url(#SVGID_6_);}
</style>
<g>
	<linearGradient id="SVGID_1_" gradientUnits="userSpaceOnUse" x1="0" y1="98.1779" x2="123.6765" y2="98.1779">
		<stop  offset="8.379889e-03" style="stop-color:#7A1687"/>
		<stop  offset="1" style="stop-color:#851687"/>
	</linearGradient>
	<path class="st0" d="M42.7,184c-8,14.4-18.1,16.1-30.3,5c-4.6-4.2-8.5-9-10.7-14.9c-2.9-7.5-2.1-14.3,3.9-20
		c1.7-1.6,3.4-2.8,1.5-5.4c-8.7-12.2-3.9-23.5,2.8-34.4c3.5-5.7,7.7-11.1,13.9-13.8c5-2.3,4.4-4.2,1.8-8.1C14,75,15,54.4,27.9,39
		c6.9-8.3,15.9-13,26.5-15c3.7-0.7,7.3-1.6,10.8-2.9c3.3-1.2,4.6-3.9,4.2-7.4c-0.3-2.4-1.4-4.1-4-4.5c-3.1-0.5-5.5-0.3-6.6,3.5
		c-0.7,2.6-3.7,3.1-5.5,2.3c-2.9-1.3-2.6-4.5-1.7-7c2-5.7,6.3-8.3,12.3-8c6.6,0.3,12.6,5.3,13.4,11.6c0.3,2.6,0.8,5.7-0.2,7.8
		c-2.2,4.7-0.5,6.2,3.7,8.2c23.5,10.9,32,40.3,18.3,62.3c-0.8,1.3-1.6,2.7-2.5,3.9c-1.9,2.5-2,3.9,1.4,5.8
		c12.7,7.1,19.6,18.6,22.6,32.6c1.2,5.5-0.6,10.5-3.6,15c-2,2.9-1.7,4.6,0.9,7.2c6.5,6.1,7.2,11.6,3.4,19.7c-2.9,6-6.9,11.3-11.6,16
		c-10,9.9-22,7.9-28.7-4.6c-1.8-13.3,1.5-24.7,11.8-33.8c2.7-2.4,1.6-5.8,1.1-8.7c-0.6-3.1-3.6-2.7-5.9-2.8
		c-11.9-0.2-23.8-0.5-35.7-0.7c-6.4-0.1-12.8-0.6-19.2,0.5c-4,0.7-3.9,3.4-3.9,6.4c-0.1,3.6,2.2,3.6,4.8,3.6c9.3,0,18.5,0,27.8,0
		c2.4,0,5.2-0.1,5.3,3.4c0,3.2-2.4,3.8-4.9,4.2c-5.7,1-11.4,0.6-17.2,0.3c-8.6-0.5-8.8-0.3-5.5,7.4C42.1,171.4,43.8,177.4,42.7,184z
		 M59.8,31.9c-18.2-0.1-33.9,16.2-34,35.2c-0.1,19,16.7,35.8,35.9,36.1C81.2,103.5,97,87,97,66.3C97.1,46.1,81.9,32,59.8,31.9z
		 M111.9,136c0-11.3-11.6-28.2-21.5-31.8c-2.5-0.9-4.4-0.1-6.2,1c-14.5,8.1-29,7.9-43.7,0.7c-3.7-1.8-7.3-2.1-10.7,0.1
		c-10.9,7-17,17.1-18.6,29.8c-0.5,4.2,1.1,7.9,5.3,9.7c1.2,0.5,3.8,1.2,3.5-1.1c-0.9-7.1,6.4-10.4,6.9-16.7c0.2-2.3,1.6-3,3.6-2.9
		c2.1,0.1,3.5,1.2,3.4,3.3c-0.1,4.6,2.8,4.5,6.1,4.5c14.6-0.1,29.1-0.1,43.7,0c3.2,0,5.8,0,5.3-4.3c-0.2-1.7,0.9-2.9,2.6-3.3
		c1.6-0.3,3.8-0.3,4,1.3c0.7,5.9,6.2,9.6,7,15.4c0.2,1.6-0.8,3.9,1.9,4.2c1.9,0.2,3.4-0.9,4.6-2.2
		C111.5,141.4,112.1,138.7,111.9,136z M89,176.7c0.1,8.6,7.2,13.1,13.2,9.1c6.5-4.3,10.5-10.6,12.1-18.3c0.8-3.7-0.2-7.3-3.9-9
		c-4-1.8-8.3-3.7-12.3,0.1C92.7,163.8,89.5,170.2,89,176.7z M34.2,178c-0.7-5.8-2.7-12-6.9-17.3c-3.6-4.6-9.3-5.6-13.5-2.8
		c-4.4,3-6.4,10-3.8,14.6c2.7,4.8,6.2,9,10.4,12.7c3.1,2.7,6.5,2.1,9.9,0.7C33.5,184.6,34.1,181.9,34.2,178z"/>
	<linearGradient id="SVGID_2_" gradientUnits="userSpaceOnUse" x1="43.0578" y1="189.6489" x2="79.632" y2="189.6489">
		<stop  offset="8.379889e-03" style="stop-color:#7A1687"/>
		<stop  offset="1" style="stop-color:#851687"/>
	</linearGradient>
	<path class="st1" d="M43.2,184.4c1.8-1.3,3.3-2.5,5.8-0.8c8.3,5.6,16.7,5.3,25-0.1c2.9-1.9,4.3-0.2,5.5,2.1c0.5,5-2.2,7.8-6.6,9.2
		c-8,2.6-16,2.4-23.8-0.7C44.9,192.4,42.3,189.4,43.2,184.4z"/>
	<linearGradient id="SVGID_3_" gradientUnits="userSpaceOnUse" x1="75.0348" y1="153.9933" x2="82.584" y2="153.9933">
		<stop  offset="8.379889e-03" style="stop-color:#7A1687"/>
		<stop  offset="1" style="stop-color:#851687"/>
	</linearGradient>
	<path class="st2" d="M82.6,154.1c-0.2,2.2-1.3,3.7-3.6,3.8c-2.4,0.1-3.8-1.3-3.9-3.5c-0.1-2.5,1.4-4.3,3.9-4.2
		C81.2,150.2,82.4,151.8,82.6,154.1z"/>
	<linearGradient id="SVGID_4_" gradientUnits="userSpaceOnUse" x1="49.8651" y1="85.3322" x2="73.4967" y2="85.3322">
		<stop  offset="8.379889e-03" style="stop-color:#7A1687"/>
		<stop  offset="1" style="stop-color:#851687"/>
	</linearGradient>
	<path class="st3" d="M60.7,91.5c-3.8-0.1-7.5-1.6-9.8-5.7c-0.9-1.7-1.9-3.6-0.1-5.4c1.7-1.8,3.9-1.5,5.4-0.2c3.6,3.3,7,3,10.5,0.1
		c2.1-1.7,4.2-1.2,5.9,0.6c1.7,1.8,0.5,3.7-0.6,5.4C69.6,90.2,65.8,91.6,60.7,91.5z"/>
	<linearGradient id="SVGID_5_" gradientUnits="userSpaceOnUse" x1="38.1435" y1="66.5316" x2="53.2265" y2="66.5316">
		<stop  offset="8.379889e-03" style="stop-color:#7A1687"/>
		<stop  offset="1" style="stop-color:#851687"/>
	</linearGradient>
	<path class="st4" d="M45.5,70.8c-3,0-7.4,2.2-7.4-3.3c0-4.8,4.1-5.9,8-5.8c3.7,0.1,7.4,1.6,7,6.1C52.8,73,48.5,70.9,45.5,70.8z"/>
	<linearGradient id="SVGID_6_" gradientUnits="userSpaceOnUse" x1="69.968" y1="66.5221" x2="85.0288" y2="66.5221">
		<stop  offset="8.379889e-03" style="stop-color:#7A1687"/>
		<stop  offset="1" style="stop-color:#851687"/>
	</linearGradient>
	<path class="st5" d="M77.3,70.8c-3.1,0.1-7.3,2.1-7.3-3.4c0-4.4,3.7-5.7,7.5-5.7c3.7,0,7.5,1.1,7.6,5.5
		C85.1,73.2,80.4,70.8,77.3,70.8z"/>
</g>
<g>
</g>
<g>
</g>
<g>
</g>
<g>
</g>
<g>
</g>
<g>
</g>
<g>
</g>
<g>
</g>
<g>
</g>
<g>
</g>
<g>
</g>
</svg>
