<?xml version="1.0" encoding="utf-8"?>
<!-- Generator: Adobe Illustrator 24.1.2, SVG Export Plug-In . SVG Version: 6.00 Build 0)  -->
<svg version="1.1" id="Camada_1" xmlns="http://www.w3.org/2000/svg" xmlns:xlink="http://www.w3.org/1999/xlink" x="0px" y="0px"
	 viewBox="0 0 22.6 27.5" style="enable-background:new 0 0 22.6 27.5;" xml:space="preserve">
<style type="text/css">
	.st0{fill:#9B9B9B;}
</style>
<g>
	<g>
		<path class="st0" d="M21.6,8.2c-0.2,1.7-0.4,3.3-0.6,4.9c-0.5,4-1,7.9-1.4,11.9c-0.2,1.6-1.2,2.4-3,2.4c-3.5,0-7,0-10.5,0
			c-1.8,0-2.9-0.9-3-2.4C2.4,19.9,1.8,14.7,1.1,9.5c0-0.4-0.1-0.8-0.1-1.3C7.9,8.2,14.7,8.2,21.6,8.2z M17.2,11.8
			C17.2,11.8,17.2,11.8,17.2,11.8c0-0.2,0-0.4,0-0.5c0.1-0.6,0-1.2-0.8-1.2c-0.8,0-0.9,0.5-1,1.1c-0.1,0.9-0.1,1.7-0.2,2.6
			c-0.3,3.3-0.5,6.5-0.8,9.8c0,0.5,0,1,0.8,1.1c0.8,0.1,1-0.5,1.1-1.1C16.6,19.7,16.9,15.8,17.2,11.8z M8.1,23.4
			c-0.2-3.2-0.5-6.2-0.7-9.3C7.3,13.1,7.3,12,7.1,11c-0.1-0.3-0.6-0.8-0.9-0.9c-0.7-0.1-0.9,0.5-0.8,1c0,0.2,0,0.3,0,0.5
			c0.3,3.9,0.6,7.8,0.9,11.7c0,0.6,0,1.4,1,1.4C8.3,24.6,8.1,23.8,8.1,23.4z M12.2,17.4c0-2.1,0-4.2,0-6.3c0-0.6-0.1-1.1-0.9-1.1
			c-0.8,0-0.9,0.5-0.9,1.1c0,4.1,0,8.2,0,12.4c0,0.6,0.1,1.1,0.9,1.1c0.9,0,1-0.5,1-1.1C12.2,21.5,12.2,19.5,12.2,17.4z"/>
		<path class="st0" d="M6.1,4.1c0-0.8,0-1.4,0-2.1c0.1-1.4,0.6-2,2-2c2.2,0,4.4,0,6.6,0c1.3,0,1.7,0.5,1.8,1.8c0,0.7,0,1.4,0,2.2
			c1.4,0,2.7,0,3.9,0c1.4,0,2.2,0.5,2.2,1.6c0,1.1-0.7,1.6-2.1,1.6c-6.1,0-12.2,0-18.3,0c-0.2,0-0.4,0-0.6,0C0.6,7.2,0,6.5,0,5.6
			c0-0.8,0.7-1.5,1.6-1.5C3.1,4.1,4.5,4.1,6.1,4.1z M8.4,4c2,0,3.9,0,5.8,0c0-0.6,0-1.2,0-1.7c-2,0-3.9,0-5.8,0
			C8.4,2.9,8.4,3.4,8.4,4z"/>
	</g>
</g>
<g>
</g>
<g>
</g>
<g>
</g>
<g>
</g>
<g>
</g>
<g>
</g>
<g>
</g>
<g>
</g>
<g>
</g>
<g>
</g>
<g>
</g>
</svg>
