<?xml version="1.0" encoding="utf-8"?>
<!-- Generator: Adobe Illustrator 24.1.2, SVG Export Plug-In . SVG Version: 6.00 Build 0)  -->
<svg version="1.1" id="Camada_1" xmlns="http://www.w3.org/2000/svg" xmlns:xlink="http://www.w3.org/1999/xlink" x="0px" y="0px"
	 viewBox="0 0 91.5 91.5" style="enable-background:new 0 0 91.5 91.5;" xml:space="preserve">
<style type="text/css">
	.st0{fill:#772580;}
</style>
<g>
	<g>
		<path class="st0" d="M70,16.3c-3,0-5.4,2.4-5.4,5.4c0,3,2.4,5.4,5.4,5.4c3,0,5.4-2.4,5.4-5.4C75.3,18.7,72.9,16.3,70,16.3z"/>
		<path class="st0" d="M46.1,23.2c-12.4,0-22.5,10.1-22.5,22.5c0,12.4,10.1,22.5,22.5,22.5c12.4,0,22.5-10.1,22.5-22.5
			C68.6,33.3,58.5,23.2,46.1,23.2z M46.1,60.2c-8,0-14.4-6.5-14.4-14.4s6.5-14.4,14.4-14.4c8,0,14.4,6.5,14.4,14.4
			S54.1,60.2,46.1,60.2z"/>
		<path class="st0" d="M64,91.5H27.5C12.3,91.5,0,79.1,0,64V27.5C0,12.3,12.3,0,27.5,0H64c15.1,0,27.5,12.3,27.5,27.5V64
			C91.5,79.1,79.1,91.5,64,91.5z M27.5,8.6c-10.4,0-18.9,8.5-18.9,18.9V64c0,10.4,8.5,18.9,18.9,18.9H64c10.4,0,18.9-8.5,18.9-18.9
			V27.5c0-10.4-8.5-18.9-18.9-18.9H27.5z"/>
	</g>
</g>
<g>
</g>
<g>
</g>
<g>
</g>
<g>
</g>
<g>
</g>
<g>
</g>
<g>
</g>
<g>
</g>
<g>
</g>
<g>
</g>
<g>
</g>
</svg>
