<?xml version="1.0" encoding="utf-8"?>
<!-- Generator: Adobe Illustrator 25.2.1, SVG Export Plug-In . SVG Version: 6.00 Build 0)  -->
<svg version="1.1" id="Camada_1" xmlns="http://www.w3.org/2000/svg" xmlns:xlink="http://www.w3.org/1999/xlink" x="0px" y="0px"
	 viewBox="0 0 125.84 125.84" style="enable-background:new 0 0 125.84 125.84;" xml:space="preserve">
<style type="text/css">
	.st0{fill:#782681;}
	.st1{fill:#FFFFFF;}
	.st2{fill:url(#SVGID_1_);}
</style>
<ellipse class="st0" cx="62.92" cy="63.06" rx="62.92" ry="62.78"/>
<g>
	<path class="st1" d="M20.2,72.77c-3.9-3.93-3.9-7.61,0.02-12.59c-1.41-1.25-2.38-2.77-2.77-4.66c-0.69-3.38,0.88-6.98,3.99-8.54
		c2.44-1.22,4.99-2.22,7.5-3.29c11.67-4.97,23.34-9.92,35-14.91c0.92-0.39,1.77-0.46,2.73-0.25c13.3,2.79,26.6,5.55,39.9,8.32
		c1.17,0.24,1.78,0.78,1.89,1.67c0.11,0.93-0.31,1.59-1.39,2.09C94.3,46.44,81.52,52.28,68.73,58.09c-0.46,0.21-1.08,0.26-1.57,0.16
		c-12.54-2.58-25.07-5.18-37.6-7.78c-1.22-0.25-2.43-0.53-3.66-0.73c-2.17-0.35-4.26,1.11-4.76,3.29c-0.49,2.12,0.72,4.41,2.82,4.97
		c2.22,0.59,4.49,0.99,6.57,1.43c0.54-1.23,1.01-2.37,1.55-3.47c0.11-0.22,0.54-0.46,0.76-0.42c3.39,0.67,6.77,1.38,10.06,2.07
		c-0.46,1.37-0.9,2.69-1.37,4.09c3.86,0.81,7.45,1.56,11.04,2.3c4.6,0.96,9.21,1.9,13.81,2.88c0.8,0.17,1.49,0.12,2.26-0.24
		c12.19-5.6,24.39-11.16,36.59-16.73c0.03-0.01,0.05-0.03,0.08-0.04c1.42-0.64,2.58-0.37,3.04,0.71c0.46,1.08-0.06,2.05-1.45,2.69
		c-7.53,3.44-15.07,6.88-22.6,10.32c-5.11,2.33-10.21,4.68-15.33,6.97c-0.56,0.25-1.31,0.35-1.91,0.23
		c-8.12-1.64-16.22-3.33-24.33-5.01c-0.29-0.06-0.58-0.11-1.01-0.18c0,0.93,0,1.77,0,2.61c0,1.79,0.02,3.58-0.01,5.37
		c-0.01,0.57,0.17,0.78,0.73,0.89c8.2,1.68,16.4,3.39,24.6,5.07c0.4,0.08,0.9-0.04,1.28-0.21c12.32-5.61,24.62-11.23,36.93-16.85
		c0.19-0.09,0.38-0.19,0.58-0.27c1.06-0.41,2.1-0.01,2.51,0.96c0.4,0.94,0.01,1.97-0.97,2.44c-1.42,0.68-2.87,1.32-4.3,1.98
		C91.74,72.76,80.43,77.94,69.1,83.07c-0.59,0.27-1.36,0.41-1.99,0.29c-11.06-2.25-22.1-4.55-33.15-6.84
		c-2.64-0.55-5.28-1.13-7.94-1.62c-2.16-0.4-4.17,0.88-4.82,2.96c-0.61,1.95,0.3,4.19,2.2,5.06c0.87,0.4,1.85,0.55,2.8,0.75
		c13.42,2.8,26.84,5.6,40.27,8.36c0.63,0.13,1.41,0.05,1.99-0.21c12.24-5.55,24.46-11.15,36.68-16.73c0.25-0.11,0.5-0.23,0.75-0.32
		c0.99-0.36,1.97,0.01,2.38,0.91c0.44,0.95,0.11,2-0.85,2.48c-1.19,0.59-2.42,1.12-3.63,1.68C92.29,85.08,80.78,90.32,69.28,95.6
		c-0.91,0.42-1.75,0.5-2.72,0.3c-12.32-2.58-24.64-5.14-36.96-7.71c-1.87-0.39-3.74-0.79-5.61-1.17c-3.24-0.65-5.44-2.53-6.35-5.7
		c-0.9-3.12-0.07-5.87,2.27-8.15c0.09-0.08,0.17-0.18,0.25-0.27C20.17,72.89,20.17,72.86,20.2,72.77z M100.6,39.46
		c-0.47-0.12-0.64-0.17-0.81-0.2c-11.16-2.32-22.33-4.65-33.49-6.95c-0.44-0.09-0.97-0.01-1.39,0.16
		c-10.98,4.65-21.95,9.32-32.92,14c-0.26,0.11-0.5,0.25-0.89,0.44c0.27,0.09,0.37,0.14,0.48,0.16c11.73,2.44,23.46,4.88,35.19,7.29
		c0.49,0.1,1.09,0.02,1.55-0.19c7.93-3.59,15.85-7.21,23.77-10.83C94.85,42.08,97.6,40.83,100.6,39.46z M30.64,72.04
		c0.06-0.19,0.12-0.27,0.12-0.36c0.01-2.64,0.02-5.27-0.01-7.91c0-0.21-0.34-0.53-0.57-0.59c-1.35-0.32-2.72-0.6-4.09-0.86
		c-2.16-0.4-4.29,0.92-4.88,2.98c-0.61,2.14,0.45,4.55,2.56,5.18C26.01,71.16,28.34,71.54,30.64,72.04z M32.42,72.39
		c2.57,0.53,4.96,1.03,7.6,1.57c-1.35-1.83-2.54-3.45-3.79-5.16C34.96,69.99,33.78,71.11,32.42,72.39z"/>
	<linearGradient id="SVGID_1_" gradientUnits="userSpaceOnUse" x1="60.3034" y1="39.7134" x2="89.0578" y2="39.7134">
		<stop  offset="0" style="stop-color:#EB5E1D"/>
		<stop  offset="0.9693" style="stop-color:#F28A1A"/>
	</linearGradient>
	<path class="st2" d="M89.06,40.77c-1.9,0.87-3.62,1.66-5.35,2.43c-0.17,0.08-0.42,0.03-0.62-0.01C75.54,41.62,68,40.05,60.3,38.44
		c0.27-0.17,0.41-0.28,0.57-0.35c0.64-0.29,1.33-0.48,1.91-0.85c2.33-1.5,4.72-1.1,7.23-0.54c6.06,1.36,12.16,2.57,18.25,3.85
		C88.47,40.58,88.66,40.65,89.06,40.77z"/>
</g>
</svg>
