<?xml version="1.0" encoding="utf-8"?>
<!-- Generator: Adobe Illustrator 24.1.2, SVG Export Plug-In . SVG Version: 6.00 Build 0)  -->
<svg version="1.1" id="Camada_1" xmlns="http://www.w3.org/2000/svg" xmlns:xlink="http://www.w3.org/1999/xlink" x="0px" y="0px"
	 viewBox="0 0 33.6 33.5" style="enable-background:new 0 0 33.6 33.5;" xml:space="preserve">
<style type="text/css">
	.st0{fill:url(#SVGID_1_);}
	.st1{fill:url(#SVGID_2_);}
	.st2{fill:url(#SVGID_3_);}
</style>
<g>
	<linearGradient id="SVGID_1_" gradientUnits="userSpaceOnUse" x1="0" y1="27.9838" x2="33.5804" y2="27.9838">
		<stop  offset="0" style="stop-color:#FF5C00"/>
		<stop  offset="0.9693" style="stop-color:#FF8F00"/>
	</linearGradient>
	<path class="st0" d="M16.6,33.5c-0.5-0.1-0.9-0.4-1.3-0.7c-4.9-2.8-9.8-5.6-14.7-8.4C0.2,24.2,0,23.8,0,23.3
		c0.1-0.4,0.4-0.8,0.8-0.9c0.3-0.1,0.6,0,0.8,0.1c1.3,0.8,2.7,1.5,4,2.3c3.6,2.1,7.3,4.2,10.9,6.3c0.1,0.1,0.2,0.1,0.3,0
		c4.6-2.6,9.2-5.3,13.9-7.9c0.4-0.2,0.8-0.5,1.2-0.7c0.6-0.3,1.2-0.2,1.5,0.3c0.3,0.5,0.1,1.1-0.4,1.5c-3.8,2.2-7.7,4.4-11.5,6.6
		c-1.3,0.7-2.5,1.5-3.8,2.2c-0.3,0.1-0.5,0.2-0.8,0.4C16.8,33.5,16.7,33.5,16.6,33.5z"/>
	<linearGradient id="SVGID_2_" gradientUnits="userSpaceOnUse" x1="1.597754e-02" y1="9.9876" x2="33.5358" y2="9.9876">
		<stop  offset="0" style="stop-color:#FF5C00"/>
		<stop  offset="0.9693" style="stop-color:#FF8F00"/>
	</linearGradient>
	<path class="st1" d="M16.7,20c-0.2-0.1-0.3-0.1-0.5-0.2C13,18,9.8,16.1,6.6,14.3c-2-1.1-4-2.3-6-3.4C0.1,10.6,0,10.2,0,9.7
		c0.1-0.3,0.2-0.5,0.5-0.7c1-0.6,2-1.1,3-1.7C7.7,5,11.9,2.6,16.1,0.2c0.4-0.3,0.8-0.2,1.2,0C21.6,2.6,25.8,5,30,7.4
		c1,0.6,2,1.1,3,1.7c0.4,0.2,0.6,0.6,0.5,1.1c-0.1,0.3-0.3,0.5-0.5,0.7c-1.3,0.7-2.6,1.5-3.9,2.2c-3.9,2.2-7.8,4.4-11.7,6.7
		C17.2,19.8,17,20,16.7,20z M3.2,10c0.1,0.1,0.2,0.1,0.2,0.1c4.4,2.5,8.7,5,13.1,7.5c0.1,0.1,0.2,0.1,0.3,0c4.4-2.5,8.7-5,13.1-7.5
		c0.1-0.1,0.2-0.1,0.3-0.2c-0.1,0-0.1-0.1-0.2-0.1c-4.4-2.5-8.8-5-13.2-7.5c-0.1-0.1-0.2-0.1-0.3,0C13.3,4.2,10.1,6,6.8,7.9
		C5.6,8.6,4.4,9.3,3.2,10z"/>
	<linearGradient id="SVGID_3_" gradientUnits="userSpaceOnUse" x1="1.656774e-03" y1="21.2343" x2="33.5816" y2="21.2343">
		<stop  offset="0" style="stop-color:#FF5C00"/>
		<stop  offset="0.9693" style="stop-color:#FF8F00"/>
	</linearGradient>
	<path class="st2" d="M1.1,15.7c0.2,0.1,0.4,0.1,0.6,0.2c2.8,1.6,5.5,3.2,8.3,4.7c2.2,1.3,4.5,2.6,6.7,3.8c0.1,0.1,0.2,0,0.3,0
		c5-2.8,10-5.7,15-8.5c0.3-0.2,0.6-0.3,0.9-0.2c0.5,0.1,0.7,0.4,0.8,0.9c0.1,0.4-0.1,0.8-0.5,1c-0.2,0.2-0.5,0.3-0.7,0.4
		c-5,2.8-10,5.7-15,8.6c-0.4,0.3-0.9,0.3-1.3,0c-5.2-3-10.3-5.9-15.5-8.9c-0.7-0.4-0.8-1.4-0.1-1.8C0.6,15.8,0.8,15.7,1.1,15.7z"/>
</g>
<g>
</g>
<g>
</g>
<g>
</g>
<g>
</g>
<g>
</g>
<g>
</g>
<g>
</g>
<g>
</g>
<g>
</g>
<g>
</g>
<g>
</g>
</svg>
