<?xml version="1.0" encoding="utf-8"?>
<!-- Generator: Adobe Illustrator 24.1.2, SVG Export Plug-In . SVG Version: 6.00 Build 0)  -->
<svg version="1.1" id="Camada_1" xmlns="http://www.w3.org/2000/svg" xmlns:xlink="http://www.w3.org/1999/xlink" x="0px" y="0px"
	 viewBox="0 0 148.1 146.6" style="enable-background:new 0 0 148.1 146.6;" xml:space="preserve">
<style type="text/css">
	.st0{fill:url(#SVGID_1_);}
	.st1{fill:url(#SVGID_2_);}
	.st2{fill:url(#SVGID_3_);}
	.st3{fill:url(#SVGID_4_);}
	.st4{fill:url(#SVGID_5_);}
	.st5{fill:url(#SVGID_6_);}
</style>
<g>
	<linearGradient id="SVGID_1_" gradientUnits="userSpaceOnUse" x1="0" y1="56.2209" x2="148.1126" y2="56.2209">
		<stop  offset="0" style="stop-color:#FF5C00"/>
		<stop  offset="0.9693" style="stop-color:#FF8B00"/>
	</linearGradient>
	<path class="st0" d="M147.8,87.1c-1.3-4.6-3.8-8.5-6.8-12c-1.3-1.5-2.8-2.8-4.1-4.2c-0.4-0.4-0.7-1.2-0.7-1.8
		c-0.1-18.6-0.1-37.2-0.1-55.9c0-0.4,0-0.7,0-1.2c-41.4,0-82.6,0-123.9,0c0,29.5,0,59,0,88.6c25.3,0,50.5,0,75.8,0
		c0.4,4.4,2.5,8,4.5,11.8c-0.5,0-0.7,0.1-1,0.1c-25.4,0-50.8,0-76.2-0.1c-2,0-4.1,0.1-6-0.3c-5.2-1-8.3-4.6-8.9-10.2
		c-0.3-2.7-0.2-5.4-0.3-8.2C0.1,69,0,44.4,0,19.8c0-2.7,0.1-5.4,0.2-8.1C0.4,5.4,4.7,0.8,11,0.3c2.9-0.2,5.9-0.2,8.8-0.2
		C57.1,0,94.3,0,131.5,0c1.7,0,3.4,0.1,5.1,0.1c5.2,0.1,11,4.2,11.2,11.2c0.1,6.5,0.2,13,0.2,19.5c0.1,14.4,0.1,28.8,0.1,43.3
		c0,3.7-0.1,7.3-0.1,11C148,85.8,147.9,86.4,147.8,87.1z"/>
	<linearGradient id="SVGID_2_" gradientUnits="userSpaceOnUse" x1="96.159" y1="95.2838" x2="139.8642" y2="95.2838">
		<stop  offset="0" style="stop-color:#FF5C00"/>
		<stop  offset="0.9693" style="stop-color:#FF8B00"/>
	</linearGradient>
	<path class="st1" d="M96.2,95.3c0-12.2,9.8-21.9,22.1-21.9c11.9,0,21.6,9.9,21.6,22c0,12-9.9,21.7-22,21.7
		C105.9,117.1,96.2,107.3,96.2,95.3z M125.7,105.6c-0.3-1.6-0.4-2.9-0.7-4.3c-0.6-2.9,0-5.4,2.6-7.2c0.7-0.5,1.2-1.1,1.8-1.7
		c0.3-0.4,0.6-0.8,1-1.4c-2.1-0.4-4-0.8-5.9-1.1c-1.6-0.2-2.7-0.9-3.4-2.4c-0.8-1.8-1.8-3.4-2.9-5.4c-0.5,0.7-0.9,1.2-1.2,1.8
		c-0.7,1.2-1.3,2.5-1.9,3.7c-0.6,1.4-1.7,2.1-3.2,2.3c-1.9,0.2-3.8,0.7-6,1c1.1,1.3,2,2.6,3.1,3.6c1.9,1.7,2.6,3.7,1.9,6.2
		c-0.4,1.5-0.4,3-0.6,4.8c1.5-0.7,2.8-1.1,3.9-1.9c2.5-1.6,4.8-1.6,7.3-0.1C122.8,104.4,124.1,104.9,125.7,105.6z"/>
	<linearGradient id="SVGID_3_" gradientUnits="userSpaceOnUse" x1="30.0454" y1="37.8886" x2="118.4396" y2="37.8886">
		<stop  offset="0" style="stop-color:#FF5C00"/>
		<stop  offset="0.9693" style="stop-color:#FF8B00"/>
	</linearGradient>
	<path class="st2" d="M74,42.5c-14-0.2-28.1-0.3-42.1-0.5c-1.7,0-1.8-0.1-1.9-1.7c-0.1-1.8,0.1-3.6,0.1-5.4c0-0.9,0.4-1.3,1.4-1.3
		c5.5-0.1,11-0.3,16.6-0.3c21.4,0,42.9,0,64.4,0c1.4,0,2.8,0,4.2,0.1c1.1,0,1.7,0.5,1.7,1.7c0,1.7,0.1,3.4,0,5.1
		c-0.1,1.6-0.3,1.8-1.9,1.8c-6.2,0.1-12.5,0.3-18.7,0.3c-7.9,0.1-15.8,0-23.7,0C74,42.4,74,42.4,74,42.5z"/>
	<linearGradient id="SVGID_4_" gradientUnits="userSpaceOnUse" x1="29.9674" y1="56.2097" x2="118.493" y2="56.2097">
		<stop  offset="0" style="stop-color:#FF5C00"/>
		<stop  offset="0.9693" style="stop-color:#FF8B00"/>
	</linearGradient>
	<path class="st3" d="M118.5,52.1c0,2.3,0,4.5,0,6.7c0,1.3-0.6,1.7-1.9,1.8c-0.8,0-1.6,0-2.4,0c-27.1,0-54.2,0-81.3,0
		c-0.3,0-0.5,0-0.8,0c-1.6-0.1-2.1-0.5-2.1-2.1c0-1.5,0-3,0-4.4c0-1.9,0.5-2.3,2.4-2.3c9.7,0,19.3-0.1,29-0.1
		c17,0,33.9,0.1,50.9,0.1C114.2,51.9,116.2,52,118.5,52.1z"/>
	<linearGradient id="SVGID_5_" gradientUnits="userSpaceOnUse" x1="102.6026" y1="134.2338" x2="133.5435" y2="134.2338">
		<stop  offset="0" style="stop-color:#FF5C00"/>
		<stop  offset="0.9693" style="stop-color:#FF8B00"/>
	</linearGradient>
	<path class="st4" d="M133.5,121.8c0,1.6,0,2.9,0,4.1c0,5.8,0,11.6,0,17.4c0,0.8-0.2,1.6-0.3,2.5c-0.1,0.8-0.7,1-1.3,0.5
		c-1-0.7-2.1-1.5-3-2.4c-2.5-2.4-5-4.9-7.5-7.3c-0.4-0.4-0.8-0.7-1.2-1.1c-1.5-1.2-2.7-1.2-4.3-0.2c-0.4,0.3-0.9,0.6-1.2,1
		c-3.1,3.1-6.2,6.2-9.4,9.2c-0.5,0.5-1.2,0.7-1.9,1.1c-0.3-0.7-0.8-1.3-0.8-2c-0.1-3.6-0.1-7.2-0.1-10.8c0-3.9,0-7.8,0-12
		C112.8,127.4,123,127.2,133.5,121.8z"/>
	<linearGradient id="SVGID_6_" gradientUnits="userSpaceOnUse" x1="29.8973" y1="74.7979" x2="74.261" y2="74.7979">
		<stop  offset="0" style="stop-color:#FF5C00"/>
		<stop  offset="0.9693" style="stop-color:#FF8B00"/>
	</linearGradient>
	<path class="st5" d="M52.4,79.2c-4.1,0-8.2,0-12.4,0c-1.7,0-3.5,0.1-5.2,0.2c-0.3,0-0.6,0-0.9,0c-3.5-0.1-3.9-0.6-4-4
		c0-0.9,0-1.8,0-2.7c0.1-1.8,0.7-2.4,2.6-2.4c3.3,0,6.7,0,10,0c8.9,0,17.9,0,26.8,0.1c1.2,0,2.5,0.1,3.7,0.2c0.7,0,1.1,0.4,1.1,1.1
		c0,1.8,0.2,3.6,0.1,5.3c-0.1,1.8-0.3,2-2.1,2.1c-3.2,0.2-6.4,0.3-9.6,0.3c-3.4,0.1-6.7,0-10.1,0C52.4,79.3,52.4,79.2,52.4,79.2z"/>
</g>
<g>
</g>
<g>
</g>
<g>
</g>
<g>
</g>
<g>
</g>
<g>
</g>
<g>
</g>
<g>
</g>
<g>
</g>
<g>
</g>
<g>
</g>
</svg>
