<?xml version="1.0" encoding="utf-8"?>
<!-- Generator: Adobe Illustrator 24.1.2, SVG Export Plug-In . SVG Version: 6.00 Build 0)  -->
<svg version="1.1" id="Camada_1" xmlns="http://www.w3.org/2000/svg" xmlns:xlink="http://www.w3.org/1999/xlink" x="0px" y="0px"
	 viewBox="0 0 111 72.9" style="enable-background:new 0 0 111 72.9;" xml:space="preserve">
<style type="text/css">
	.st0{fill:url(#SVGID_1_);}
	.st1{fill:url(#SVGID_2_);}
</style>
<g>
	<linearGradient id="SVGID_1_" gradientUnits="userSpaceOnUse" x1="4.1225" y1="31.127" x2="106.8591" y2="31.127">
		<stop  offset="0" style="stop-color:#FF5C00"/>
		<stop  offset="0.9693" style="stop-color:#FF8F00"/>
	</linearGradient>
	<path class="st0" d="M55.6,0c15.5,0,31,0,46.5,0c3.4,0,4.8,1.4,4.8,4.7c0,17.6,0,35.2,0,52.8c0,3.2-1.4,4.7-4.7,4.7
		c-30.8,0-61.6,0-92.4,0c-0.6,0-1.2,0-1.7,0c-2.2-0.1-3.8-1.7-3.8-3.9c0-1,0-1.9,0-2.9c0-16.8,0.1-33.7,0-50.5c0-3.3,1.8-5,4.9-5
		C24.6,0.1,40.1,0,55.6,0z M8.9,55.3c31.1,0,62.1,0,93.1,0c0-16.9,0-33.7,0-50.5c-31.1,0-62.1,0-93.1,0C8.9,21.7,8.9,38.4,8.9,55.3z
		 M55.5,61c1.2,0,2.2-1,2.2-2.2c0-1.2-1-2.2-2.2-2.3c-1.2,0-2.3,1-2.3,2.2C53.3,60,54.3,61,55.5,61z"/>
	<linearGradient id="SVGID_2_" gradientUnits="userSpaceOnUse" x1="-2.728484e-12" y1="69.0157" x2="111.0194" y2="69.0157">
		<stop  offset="0" style="stop-color:#FF5C00"/>
		<stop  offset="0.9693" style="stop-color:#FF8F00"/>
	</linearGradient>
	<path class="st1" d="M55.5,72.9c-16,0-32.1,0-48.1,0c-3.2,0-6-1.9-7.1-4.8c-0.6-1.6-0.1-2.6,1.6-2.9c0.5-0.1,1.1-0.1,1.6-0.1
		c13.8,0,27.6,0,41.4,0c0.9,0,1.4,0.3,1.7,1.2c0.9,2.8,1.3,3,4.3,3c3.3,0,6.7,0,10,0c2,0,2.8-0.5,3.3-2.4c0.4-1.4,1.1-1.8,2.5-1.8
		c13.5,0.1,27,0,40.4,0c0.7,0,1.5,0,2.2,0.2c1.4,0.3,1.9,1.2,1.5,2.6c-0.9,2.9-3.9,5.1-7,5.1C87.8,72.9,71.6,72.9,55.5,72.9z"/>
</g>
<g>
</g>
<g>
</g>
<g>
</g>
<g>
</g>
<g>
</g>
<g>
</g>
<g>
</g>
<g>
</g>
<g>
</g>
<g>
</g>
<g>
</g>
</svg>
