<?xml version="1.0" encoding="utf-8"?>
<!-- Generator: Adobe Illustrator 25.2.1, SVG Export Plug-In . SVG Version: 6.00 Build 0)  -->
<svg version="1.1" id="Camada_1" xmlns="http://www.w3.org/2000/svg" xmlns:xlink="http://www.w3.org/1999/xlink" x="0px" y="0px"
	 viewBox="0 0 127.6 127.6" style="enable-background:new 0 0 127.6 127.6;" xml:space="preserve">
<style type="text/css">
	.st0{fill:url(#SVGID_1_);}
	.st1{fill:url(#SVGID_2_);}
	.st2{fill:url(#SVGID_3_);}
</style>
<g>
	<linearGradient id="SVGID_1_" gradientUnits="userSpaceOnUse" x1="0" y1="63.8028" x2="127.5712" y2="63.8028">
		<stop  offset="8.379889e-03" style="stop-color:#772182"/>
		<stop  offset="1" style="stop-color:#812082"/>
	</linearGradient>
	<path class="st0" d="M58.4,63.9c-15.9,0-31.8,0-47.8,0c0,2.4,0,4.7,0,7c0,16.7,0,33.5,0,50.2c0,0.4,0,0.8,0,1.2
		c-0.1,3.3-2.2,5.3-5.5,5.3C2,127.5,0,125.4,0,122.1c0-15.8,0-31.6,0-47.3c0-5.2,0-10.5,0-15.7c0-4,1.9-5.9,6-6c9.8,0,19.7,0,29.5,0
		c0.5,0,1,0,1.6,0c0-3.5,0-6.9,0-10.6c-0.5,0-0.9,0-1.4,0c-4.6,0-9.1,0-13.7,0c-4.2,0-6-1.9-6-6c0-10.3,0-20.5,0-30.8
		C16,1.9,17.9,0,21.7,0C39.1,0,56.6,0,74,0c3.8,0,5.7,1.9,5.7,5.8c0,10.4,0,20.8,0,31.1c0,3.7-2.1,5.7-5.8,5.6c-4.6,0-9.3,0-13.9,0
		c-0.4,0-0.9,0-1.4,0c0,3.5,0,7,0,10.6c0.5,0,1.1,0,1.6,0c20.4,0,40.8,0,61.1,0c0.9,0,1.8,0,2.7,0.3c2.2,0.6,3.5,2.5,3.5,5.1
		c0,7.2,0,14.4,0,21.7c0,13.9,0,27.9,0,41.8c0,4-3.2,6.4-7.1,5.3c-2.2-0.7-3.5-2.5-3.6-5.3c0-4.7,0-9.4,0-14.1c0-0.5,0-1,0-1.6
		c-15.9,0-31.8,0-47.8,0c0,0.5,0,1,0,1.4c0,4.8,0,9.5,0,14.3c0,3.9-3.2,6.2-7,5.2c-2.3-0.6-3.6-2.4-3.6-5c0-4.1,0-8.2,0-12.3
		c0-14.9,0-29.8,0-44.7C58.5,64.8,58.4,64.4,58.4,63.9z M74.4,5.4c-0.4,0-0.8-0.1-1.1-0.1c-16.9,0-33.8,0-50.7,0
		c-1.2,0-1.4,0.4-1.4,1.4c0,9.7,0,19.3,0,29c0,0.4,0,0.9,0,1.4c17.8,0,35.4,0,53.1,0C74.4,26.5,74.4,16,74.4,5.4z M116.9,63.9
		c-16,0-31.8,0-47.7,0c0,5.3,0,10.5,0,15.8c15.9,0,31.8,0,47.7,0C116.9,74.3,116.9,69.2,116.9,63.9z M116.8,100.9
		c0-5.3,0-10.5,0-15.8c-0.3,0-0.6-0.1-1-0.1c-15.2,0-30.4,0-45.5,0c-0.9,0-1.2,0.3-1.2,1.2c0,4.6,0,9.2,0,13.8
		c0,0.3,0.1,0.6,0.1,0.9C85.1,100.9,100.9,100.9,116.8,100.9z M53.1,42.6c-3.6,0-7,0-10.4,0c0,3.5,0,7,0,10.4c3.5,0,6.9,0,10.4,0
		C53.1,49.5,53.1,46.1,53.1,42.6z"/>
	<linearGradient id="SVGID_2_" gradientUnits="userSpaceOnUse" x1="90.383" y1="71.7483" x2="95.6758" y2="71.7483">
		<stop  offset="0" style="stop-color:#EB5E1D"/>
		<stop  offset="0.9693" style="stop-color:#F28A1A"/>
	</linearGradient>
	<path class="st1" d="M90.4,71.7c0-1.5,1.2-2.7,2.7-2.7c1.5,0,2.7,1.3,2.6,2.7c0,1.4-1.2,2.6-2.6,2.6C91.6,74.4,90.4,73.2,90.4,71.7
		z"/>
	<linearGradient id="SVGID_3_" gradientUnits="userSpaceOnUse" x1="90.3832" y1="93.033" x2="95.6759" y2="93.033">
		<stop  offset="0" style="stop-color:#EB5E1D"/>
		<stop  offset="0.9693" style="stop-color:#F28A1A"/>
	</linearGradient>
	<path class="st2" d="M90.4,93c0-1.5,1.2-2.6,2.7-2.6c1.5,0,2.6,1.2,2.6,2.6c0,1.5-1.2,2.7-2.7,2.7C91.5,95.7,90.4,94.5,90.4,93z"/>
</g>
<g>
</g>
<g>
</g>
<g>
</g>
<g>
</g>
<g>
</g>
<g>
</g>
</svg>
