<?xml version="1.0" encoding="utf-8"?>
<!-- Generator: Adobe Illustrator 24.1.2, SVG Export Plug-In . SVG Version: 6.00 Build 0)  -->
<svg version="1.1" id="Camada_1" xmlns="http://www.w3.org/2000/svg" xmlns:xlink="http://www.w3.org/1999/xlink" x="0px" y="0px"
	 viewBox="0 0 184 126.6" style="enable-background:new 0 0 184 126.6;" xml:space="preserve">
<style type="text/css">
	.st0{fill:url(#SVGID_1_);}
</style>
<linearGradient id="SVGID_1_" gradientUnits="userSpaceOnUse" x1="0" y1="63.2861" x2="183.9691" y2="63.2861">
	<stop  offset="8.379889e-03" style="stop-color:#7A1687"/>
	<stop  offset="1" style="stop-color:#851687"/>
</linearGradient>
<path class="st0" d="M0,105.3c0.7-3.7,1.1-7.6,2.3-11.2C7,79,16.9,68.6,31.7,62.9c0.4-0.1,0.8-0.3,1.4-0.6
	c-8.6-6.8-12.9-15.5-12.2-26.4c0.5-7,3.3-13,8.2-18.1C39.1,7.3,56.9,5,69.9,16.2c12.8-20.3,42.5-21.9,57.5-2.2
	c1.7-3.7,2.4-4.3,6.8-3.8c12.1,1.2,21,7.5,26.1,18.4c4.8,10.3,3.4,20.2-3.3,29.3c-1.4,2-3.3,3.6-4.7,5.1c3.9,2.4,8.2,4.5,11.9,7.3
	c12.4,9.5,19,22.2,19.7,37.9c0.2,4.2-1.5,5.8-5.6,5.8c-5.8,0-11.6,0-17.4,0c-0.6,0-1.3,0-1.7,0c0,3,0.1,5.7,0,8.5
	c-0.1,2.3-1.9,4-4.2,4.1c-2.4,0.1-4.3-1.6-4.5-4c-0.1-0.6,0-1.2-0.1-1.8c-1.3-21.1-11.3-36.5-30.5-45.2
	c-29.9-13.6-65.2,5.3-70.7,37.6c-0.5,2.9-0.6,5.8-0.8,8.7c-0.2,2.1-0.9,3.7-3,4.5c-2.8,1-5.8-1-5.8-4.2c0-2.7,0.3-5.5,0.4-8.2
	c-11.3,0-22.6-0.1-34,0c-2.7,0-4.8-0.7-6-3.2C0,108.9,0,107.1,0,105.3z M100.4,8.8C86.7,8,74.4,19.1,73.6,33.1
	c-0.9,14.6,9.9,26.6,24.8,27.6c13.8,0.9,26.2-10.4,27-24.7C126.1,21.8,115,9.7,100.4,8.8z M117,64.7c0.2,0.2,0.2,0.3,0.2,0.3
	c19.4,6.6,32.5,19.6,39.2,39c0.4,1.1,1,1.1,1.9,1.1c5,0,9.9,0,14.9,0c0.5,0,1-0.1,1.6-0.1c0-0.3,0-0.5,0-0.7
	c-1.9-16.1-14.2-29.9-30.3-34.1c-2.4-0.6-4.8-0.9-7.2-1.4c-2-0.5-3.2-2.1-3.2-4c-0.1-2,1-3.6,2.9-4.3c0.7-0.3,1.5-0.4,2.2-0.6
	c13.6-3.8,19.4-19.2,11.3-30.8c-4.8-6.9-11.5-10.3-20.2-10.2c4.1,8.4,5,16.9,2.5,25.7C130.2,53.2,124.9,59.8,117,64.7z M66.1,24.7
	c-0.9-0.8-1.6-1.4-2.4-2.1c-6.8-5.5-14.3-6.7-22.1-3c-7.9,3.7-11.9,10.2-11.9,18.9c0,9.1,6,16.8,14.6,19.5c8.6,2.6,17.7-0.5,23-8
	c0.3-0.4,0.4-1.2,0.2-1.7C64.2,40.6,63.8,32.8,66.1,24.7z M9.1,105.1c0.8,0,1.4,0,2.1,0c8.6,0,17.1,0,25.7,0c1.6,0,3.2,0.5,4.9,0.8
	c1.9-6.6,5-13,9.2-18.9c4.2-5.8,9.4-10.7,15.5-14.9C43.3,61.6,12.3,74.7,9.1,105.1z M67.2,62.6c2.7,1.3,5.2,2.6,7.8,3.8
	c0.5,0.2,1.1,0.5,1.5,0.3c1.8-0.6,3.5-1.3,5.2-1.9c-3-2.5-6-5-8.8-7.4C70.9,59.2,69,60.9,67.2,62.6z"/>
<g>
</g>
<g>
</g>
<g>
</g>
<g>
</g>
<g>
</g>
<g>
</g>
<g>
</g>
<g>
</g>
<g>
</g>
<g>
</g>
<g>
</g>
</svg>
