<?xml version="1.0" encoding="utf-8"?>
<!-- Generator: Adobe Illustrator 24.1.2, SVG Export Plug-In . SVG Version: 6.00 Build 0)  -->
<svg version="1.1" id="Camada_1" xmlns="http://www.w3.org/2000/svg" xmlns:xlink="http://www.w3.org/1999/xlink" x="0px" y="0px"
	 viewBox="0 0 42.5 52.7" style="enable-background:new 0 0 42.5 52.7;" xml:space="preserve">
<style type="text/css">
	.st0{fill:#772580;}
</style>
<g>
	<g>
		<path class="st0" d="M33.8,27.6c3.1,2.2,6,4.6,7.7,8.2c2.1,4.3,1,10.7-2.4,14c-2.3,2.2-5.1,2.9-8.1,3c-6.1,0.1-12.3,0-18.4,0
			c-1.2,0-2.5-0.2-3.7-0.4c-2.4-0.5-4.5-1.7-5.8-3.8C0.4,44.3-1.1,40,0.9,35.1c1.2-2.9,3.5-5,6-6.8c1.6-1.2,1.6-1.1,3.1,0
			c3,2.3,6.3,4.2,10.2,4.5c4.9,0.4,9.1-1.4,12.8-4.7c0.2-0.2,0.4-0.4,0.6-0.6C33.6,27.6,33.6,27.6,33.8,27.6z"/>
		<path class="st0" d="M7.9,13.7C7.9,6.1,14,0,21.6,0c7.6,0,13.7,6.1,13.7,13.6c0,7.7-6.1,13.8-13.6,13.8C14,27.5,7.9,21.4,7.9,13.7
			z"/>
	</g>
</g>
<g>
</g>
<g>
</g>
<g>
</g>
<g>
</g>
<g>
</g>
<g>
</g>
<g>
</g>
<g>
</g>
<g>
</g>
<g>
</g>
<g>
</g>
</svg>
