<?xml version="1.0" encoding="utf-8"?>
<!-- Generator: Adobe Illustrator 24.1.2, SVG Export Plug-In . SVG Version: 6.00 Build 0)  -->
<svg version="1.1" id="Camada_1" xmlns="http://www.w3.org/2000/svg" xmlns:xlink="http://www.w3.org/1999/xlink" x="0px" y="0px"
	 viewBox="0 0 81.1 90.1" style="enable-background:new 0 0 81.1 90.1;" xml:space="preserve">
<style type="text/css">
	.st0{fill:url(#SVGID_1_);}
	.st1{fill:url(#SVGID_2_);}
	.st2{fill:url(#SVGID_3_);}
	.st3{fill:url(#SVGID_4_);}
</style>
<g>
	<linearGradient id="SVGID_1_" gradientUnits="userSpaceOnUse" x1="9.0354" y1="45.0685" x2="81.0542" y2="45.0685">
		<stop  offset="0" style="stop-color:#FF5C00"/>
		<stop  offset="0.9693" style="stop-color:#FF8F00"/>
	</linearGradient>
	<path class="st0" d="M9.3,67.8c2,0,3.9,0,6.3,0c0,3.4,0,6.7,0,10c0,5.6,0,5.6,5.6,5.6c16.4,0,32.9,0,49.3,0c3.4,0,3.9-0.5,3.9-3.8
		c0-13.7,0-27.4,0-41.1c0-0.7-0.1-1.4-0.1-2.4c-2,0-3.9,0-5.8,0c-4.7,0-9.3,0.1-14,0c-5.9-0.1-9.3-3.7-9.4-9.6c0-5.6,0-11.2,0-16.8
		c0-0.9,0-1.7,0-2.8c-1.1,0-2,0-2.9,0c-7.4,0-14.8,0-22.1,0c-4.3,0-4.5,0.3-4.5,4.4c0,11.7,0,23.4,0,35.1c0,1,0,1.9,0,3.1
		c-2.2,0-4.2,0-6.5,0C9.1,48.6,9,47.8,9,47c0-12.3,0-24.5,0-36.8C9.1,3.4,12.4,0,19.3,0c8.4,0,16.8,0.1,25.3,0c3.3,0,6,1,8.4,3.4
		c8.3,8.4,16.6,16.7,25,25c2.1,2.1,3.1,4.5,3.1,7.5c0,14.8,0,29.7,0,44.5c0,6.2-3.6,9.7-9.8,9.7c-17.5,0-35,0-52.5,0
		c-6.2,0-9.7-3.5-9.8-9.7c0-3.9,0-7.9,0-11.8C9.1,68.4,9.2,68.2,9.3,67.8z M51.7,12.3c0,4.9-0.1,9.8,0.1,14.6c0,0.8,1.4,2.3,2.2,2.3
		c4.9,0.2,9.8,0.1,14.8,0.1C63.1,23.7,57.5,18.1,51.7,12.3z"/>
	<linearGradient id="SVGID_2_" gradientUnits="userSpaceOnUse" x1="27.0536" y1="71.0061" x2="63.022" y2="71.0061">
		<stop  offset="0" style="stop-color:#FF5C00"/>
		<stop  offset="0.9693" style="stop-color:#FF8F00"/>
	</linearGradient>
	<path class="st1" d="M45,74.3c-4.6,0-9.3,0-13.9,0c-2.6,0-4.1-1.3-4-3.4c0-2,1.5-3.2,4-3.2c9.4,0,18.7,0,28.1,0
		c2.5,0,3.9,1.3,3.9,3.3c0,2.1-1.5,3.3-4.1,3.3C54.3,74.3,49.7,74.3,45,74.3z"/>
	<linearGradient id="SVGID_3_" gradientUnits="userSpaceOnUse" x1="27.0492" y1="46.2238" x2="63.0219" y2="46.2238">
		<stop  offset="0" style="stop-color:#FF5C00"/>
		<stop  offset="0.9693" style="stop-color:#FF8F00"/>
	</linearGradient>
	<path class="st2" d="M45,42.9c4.6,0,9.3,0,13.9,0c2.6,0,4.1,1.3,4.1,3.4c0,2-1.5,3.3-3.9,3.3c-9.4,0-18.7,0-28.1,0
		c-2.5,0-3.9-1.3-3.9-3.3c0-2,1.5-3.4,4.1-3.4C35.8,42.9,40.4,42.9,45,42.9z"/>
	<linearGradient id="SVGID_4_" gradientUnits="userSpaceOnUse" x1="0" y1="58.6232" x2="35.9476" y2="58.6232">
		<stop  offset="0" style="stop-color:#FF5C00"/>
		<stop  offset="0.9693" style="stop-color:#FF8F00"/>
	</linearGradient>
	<path class="st3" d="M18.1,55.3c4.7,0,9.3,0,14,0c2.4,0,3.9,1.3,3.9,3.3c0,2-1.5,3.3-3.9,3.3c-9.4,0-18.8,0-28.2,0
		c-2.5,0-3.9-1.2-3.9-3.3c0-2,1.4-3.2,3.9-3.3C8.6,55.3,13.3,55.3,18.1,55.3z"/>
</g>
<g>
</g>
<g>
</g>
<g>
</g>
<g>
</g>
<g>
</g>
<g>
</g>
<g>
</g>
<g>
</g>
<g>
</g>
<g>
</g>
<g>
</g>
</svg>
