<?xml version="1.0" encoding="utf-8"?>
<!-- Generator: Adobe Illustrator 24.1.2, SVG Export Plug-In . SVG Version: 6.00 Build 0)  -->
<svg version="1.1" id="Camada_1" xmlns="http://www.w3.org/2000/svg" xmlns:xlink="http://www.w3.org/1999/xlink" x="0px" y="0px"
	 viewBox="0 0 24 24" style="enable-background:new 0 0 24 24;" xml:space="preserve">
<style type="text/css">
	.st0{fill:#FFFFFF;}
</style>
<path class="st0" d="M19,0H5C2.2,0,0,2.2,0,5v14c0,2.8,2.2,5,5,5h14c2.8,0,5-2.2,5-5V5C24,2.2,21.8,0,19,0z M8.7,16.7
	C6.1,16.7,4,14.6,4,12s2.1-4.7,4.7-4.7c1.3,0,2.3,0.5,3.1,1.2l-1.3,1.2c-0.3-0.3-1-0.7-1.9-0.7c-1.6,0-2.9,1.3-2.9,2.9
	s1.3,2.9,2.9,2.9c1.8,0,2.5-1.3,2.6-2H8.7v-1.6h4.4c0,0.2,0.1,0.5,0.1,0.8C13.1,14.8,11.4,16.7,8.7,16.7z M20,12.7h-2v2h-1.3v-2h-2
	v-1.3h2v-2H18v2h2V12.7z"/>
</svg>
