<?xml version="1.0" encoding="utf-8"?>
<!-- Generator: Adobe Illustrator 24.1.2, SVG Export Plug-In . SVG Version: 6.00 Build 0)  -->
<svg version="1.1" id="Camada_1" xmlns="http://www.w3.org/2000/svg" xmlns:xlink="http://www.w3.org/1999/xlink" x="0px" y="0px"
	 viewBox="0 0 36.8 36.6" style="enable-background:new 0 0 36.8 36.6;" xml:space="preserve">
<style type="text/css">
	.st0{fill:url(#SVGID_1_);}
	.st1{fill:url(#SVGID_2_);}
	.st2{fill:url(#SVGID_3_);}
	.st3{fill:url(#SVGID_4_);}
	.st4{fill:url(#SVGID_5_);}
	.st5{fill:url(#SVGID_6_);}
	.st6{fill:url(#SVGID_7_);}
</style>
<g>
	<linearGradient id="SVGID_1_" gradientUnits="userSpaceOnUse" x1="-9.094947e-13" y1="18.2926" x2="28.7996" y2="18.2926">
		<stop  offset="0" style="stop-color:#FF5C00"/>
		<stop  offset="0.9693" style="stop-color:#FF8F00"/>
	</linearGradient>
	<path class="st0" d="M28.8,20.7c0,0.4,0,0.6,0,0.9c0,3.8,0,7.6,0,11.3c0,2.4-1.3,3.7-3.6,3.7c-7.2,0-14.4,0-21.6,0
		C1.3,36.6,0,35.3,0,33c0-9.8,0-19.7,0-29.5C0,1.3,1.3,0,3.5,0c4.8,0,9.6,0,14.4,0c0.6,0,0.9,0.2,1.3,0.6c2,2.1,3.9,4.2,5.9,6.3
		c0.2,0.3,0.5,0.5,0.7,0.8c-0.4,0.4-0.7,0.7-1,1.1c-1.9-2-3.7-3.9-5.6-5.9c0,2.2,0,4.1,0,6.1c0,0.8,0.8,1.3,1.6,1.3
		c0.7,0,1.5,0,2.3,0c-1,1.5-1.8,1.8-3.2,1.4c-1.4-0.4-2.3-1.5-2.3-3c0-2.4,0-4.7,0-7.2c-0.4,0-0.7,0-1,0c-4.3,0-8.6,0-12.9,0
		c-1.6,0-2.1,0.5-2.1,2.1c0,9.7,0,19.4,0,29.1c0,1.7,0.5,2.2,2.2,2.2c7,0,14.1,0,21.1,0c1.7,0,2.2-0.5,2.2-2.2c0-3.1,0.1-6.2,0-9.3
		C27.1,22.1,27.9,21.5,28.8,20.7z"/>
	<linearGradient id="SVGID_2_" gradientUnits="userSpaceOnUse" x1="14.4419" y1="15.833" x2="36.768" y2="15.833">
		<stop  offset="0" style="stop-color:#FF5C00"/>
		<stop  offset="0.9693" style="stop-color:#FF8F00"/>
	</linearGradient>
	<path class="st1" d="M14.4,26.9c1.1-2.9,2.2-5.7,3.3-8.6c0.1-0.3,0.3-0.5,0.6-0.7C22.1,13.7,26,9.9,29.9,6c1.6-1.6,3.4-1.6,5,0
		c0.7,0.7,1.6,1.4,1.7,2.6c0.1,1-0.1,1.9-0.8,2.7c-4.1,4.1-8.1,8.1-12.2,12.2c-0.2,0.2-0.4,0.3-0.6,0.4c-2.8,1-5.5,2-8.3,3.1
		C14.7,26.9,14.6,26.9,14.4,26.9z M24,20.8c2.8-2.8,5.6-5.6,8.2-8.3c-1.1-1.1-2.2-2.2-3.3-3.3c-2.7,2.8-5.5,5.6-8.2,8.3
		C21.8,18.6,22.9,19.7,24,20.8z M17.1,24.3c2.1-0.8,3.9-1.5,5.6-2.1c-1.2-1.2-2.3-2.3-3.5-3.5C18.6,20.5,17.9,22.3,17.1,24.3z
		 M33.6,11.3c0.7-0.8,2-1.4,1.4-2.6c-0.4-0.9-1.3-1.8-2.3-2.2c-1.2-0.5-1.8,0.8-2.6,1.4C31.4,9,32.5,10.1,33.6,11.3z"/>
	<linearGradient id="SVGID_3_" gradientUnits="userSpaceOnUse" x1="5.6392" y1="22.3188" x2="15.1113" y2="22.3188">
		<stop  offset="0" style="stop-color:#FF5C00"/>
		<stop  offset="0.9693" style="stop-color:#FF8F00"/>
	</linearGradient>
	<path class="st2" d="M5.6,23.1c0-0.6,0-1,0-1.5c3.2,0,6.3,0,9.5,0c-0.3,1.5-0.3,1.5-1.6,1.5C10.9,23.1,8.3,23.1,5.6,23.1z"/>
	<linearGradient id="SVGID_4_" gradientUnits="userSpaceOnUse" x1="5.6575" y1="12.7304" x2="13.556" y2="12.7304">
		<stop  offset="0" style="stop-color:#FF5C00"/>
		<stop  offset="0.9693" style="stop-color:#FF8F00"/>
	</linearGradient>
	<path class="st3" d="M13.6,12c0,0.5,0,0.9,0,1.4c-2.6,0-5.2,0-7.9,0c0-0.5,0-0.9,0-1.4C8.3,12,10.9,12,13.6,12z"/>
	<linearGradient id="SVGID_5_" gradientUnits="userSpaceOnUse" x1="5.6531" y1="27.0527" x2="13.2879" y2="27.0527">
		<stop  offset="0" style="stop-color:#FF5C00"/>
		<stop  offset="0.9693" style="stop-color:#FF8F00"/>
	</linearGradient>
	<path class="st4" d="M5.7,26.3c2.6,0,5.1,0,7.6,0c-0.1,1.4-0.3,1.6-1.6,1.6c-2,0-4,0-6,0C5.7,27.3,5.7,26.8,5.7,26.3z"/>
	<linearGradient id="SVGID_6_" gradientUnits="userSpaceOnUse" x1="5.6459" y1="17.4892" x2="13.5419" y2="17.4892">
		<stop  offset="0" style="stop-color:#FF5C00"/>
		<stop  offset="0.9693" style="stop-color:#FF8F00"/>
	</linearGradient>
	<path class="st5" d="M5.6,18.2c0-0.5,0-0.9,0-1.4c2.6,0,5.2,0,7.9,0c0,0.5,0,0.9,0,1.4C10.9,18.2,8.3,18.2,5.6,18.2z"/>
	<linearGradient id="SVGID_7_" gradientUnits="userSpaceOnUse" x1="15.8219" y1="26.9836" x2="23.1283" y2="26.9836">
		<stop  offset="0" style="stop-color:#FF5C00"/>
		<stop  offset="0.9693" style="stop-color:#FF8F00"/>
	</linearGradient>
	<path class="st6" d="M15.8,27.8c2.4-1.1,4.7-2,7.3-1.4c0,0.4,0,0.9,0,1.4C20.7,27.8,18.4,27.8,15.8,27.8z"/>
</g>
<g>
</g>
<g>
</g>
<g>
</g>
<g>
</g>
<g>
</g>
<g>
</g>
<g>
</g>
<g>
</g>
<g>
</g>
<g>
</g>
<g>
</g>
</svg>
