<?xml version="1.0" encoding="utf-8"?>
<!-- Generator: Adobe Illustrator 25.2.1, SVG Export Plug-In . SVG Version: 6.00 Build 0)  -->
<svg version="1.1" id="Camada_1" xmlns="http://www.w3.org/2000/svg" xmlns:xlink="http://www.w3.org/1999/xlink" x="0px" y="0px"
	 viewBox="0 0 113.6 126.2" style="enable-background:new 0 0 113.6 126.2;" xml:space="preserve">
<style type="text/css">
	.st0{fill:url(#SVGID_1_);}
</style>
<linearGradient id="SVGID_1_" gradientUnits="userSpaceOnUse" x1="0" y1="63.0829" x2="113.6214" y2="63.0829">
	<stop  offset="8.379889e-03" style="stop-color:#772182"/>
	<stop  offset="1" style="stop-color:#812082"/>
</linearGradient>
<path class="st0" d="M25.8,0c12.9,0,25.8,0,38.8,0c0.1,0,0.2,0.1,0.2,0.1c4.1,0.5,8.1,4.1,8,9.6c-0.1,7.9,0,15.8,0,23.7
	c0,2.5-0.3,5-1,7.4c-1.8,6.5-5.5,11.6-11,15.5c-0.2,0.1-0.5,0.3-0.5,0.5c-0.1,0.6,0,1.3,0,1.9c11.2,0.7,19.8,5.7,25.9,15.2
	c0-6.1,0-12.1,0-18.1c0-0.4-0.1-0.5-0.5-0.5c-2.9-0.6-4.8-2.8-4.8-5.8c0-4.1,0-8.1,0-12.2c0-3.4,2.4-5.9,5.8-5.9
	c7-0.1,14-0.1,21.1,0c3.4,0,5.8,2.5,5.8,6c0,4.1,0,8.2,0,12.3c0,2.7-1.8,4.9-4.4,5.5c-0.6,0.1-1.2,0.2-1.9,0.3c0,0.3,0,0.7,0,1
	c0,17,0,34.1,0,51.1c0,0.5,0,1-0.1,1.4c-1.4,7.7-5.7,12.9-13.1,15.5c-1.2,0.4-2.5,0.6-3.8,0.9c0,0.2,0,0.5-0.1,0.8
	c-30.1,0-60.2,0-90.4,0c0-0.3,0-0.5,0-0.7c0-11.7,0-23.4,0-35c0-1.2,0.1-2.3,0.1-3.5c0.2-2.6,0.7-5.2,1.7-7.7
	c4.3-11.2,12.4-18,24.3-20.1c1.3-0.2,2.7-0.3,4-0.5c0.2-1.2,0.2-2.3-1.1-2.9c-0.2-0.1-0.3-0.2-0.5-0.4C21.8,50,18,43.1,17.7,34.6
	c-0.3-8.6-0.1-17.1,0-25.7c0-3.7,1.9-6.4,5.2-8C23.8,0.5,24.8,0.3,25.8,0z M86,87.4c-0.5-5.4-2.3-10.1-5.6-14.3
	c-3.3-4.2-7.6-7.1-12.7-8.8c-0.1,0.2-0.2,0.3-0.2,0.4c-1.4,2.9-3.5,5.3-6.1,7.3c-4,2.9-8.5,4.5-13.4,4.9c-5.9,0.5-11.4-0.5-16.5-3.5
	c-3.5-2-6.3-4.7-8.1-8.3c-0.4-0.8-0.4-0.8-1.3-0.5c-8.5,3.2-14.1,9.2-16.6,17.9c-0.5,1.6-0.7,3.2-1,4.9c5.7,0,11.3,0,16.9,0
	c0,11.5,0,22.9,0,34.4c18.7,0,37.2,0,55.9,0c-0.3-0.2-0.5-0.4-0.7-0.6c-1.6-1.2-2.9-2.6-4-4.3c-1.8-2.8-3.1-5.8-3.1-9.1
	c-0.1-6.6,0-13.2,0-19.8c0-0.2,0-0.4,0-0.7C74.9,87.4,80.4,87.4,86,87.4z M73.7,91.8c0,0.3,0,0.5,0,0.8c0,4.9,0,9.9,0,14.8
	c0,0.6,0,1.2,0.2,1.7c1.3,5.7,4.6,9.6,10.2,11.3c5.5,1.7,10.4,0.4,14.6-3.5c2.7-2.5,4.4-5.7,4.4-9.4c0.1-17.1,0-34.3,0-51.4
	c0-0.2,0-0.5,0-0.7c-1.9,0-3.8,0-5.7,0c0,1.6,0,3.2,0,4.7c-1.5,0-2.9,0-4.4,0c0-0.3,0-0.5,0-0.8c0-4,0-8.1,0-12.1c0-0.2,0-0.5,0-0.7
	c-0.1-0.6-0.7-1-1.3-1c-0.6,0.1-1,0.5-1.1,1.2c0,0.2,0,0.5,0,0.7c0,19.5,0,39,0,58.5c0,0.3,0,0.5,0,0.8c-1.5,0-2.9,0-4.4,0
	c0-5,0-10,0-15C82,91.8,77.9,91.8,73.7,91.8z M68.4,25.7c0-0.3,0-0.5,0-0.7c0-5.2,0-10.4,0-15.6c0-3.1-2.1-5.1-5.1-5.1
	c-12,0-24.1,0-36.1,0c-3.1,0-5.1,2.1-5.1,5.2c0,7,0,13.9,0,20.9c0,0.2,0,0.5,0,0.7c0.2,0,0.3,0,0.5,0c6-0.2,11.9-1,17.6-2.6
	c3.7-1.1,7.3-2.5,10.7-4.6c3.5-2.2,6.5-4.9,8.8-8.4c0.6-0.9,1.2-1.8,1.9-2.8C63.1,17.5,64.7,22.1,68.4,25.7z M60.2,21.9
	c0,0-0.1,0.1-0.2,0.2c-3.5,3.7-7.7,6.4-12.4,8.5c-7.2,3.1-14.7,4.4-22.4,4.9c-1,0.1-2,0.1-3,0.1c0,0.1,0,0.2,0,0.2
	c0,0.2,0,0.3,0,0.4c1.1,7.2,4.3,12.9,10.7,16.7c4.9,2.9,10.1,4.1,15.7,3.2c5.8-1,10.9-3.4,14.7-8.1c3.8-4.7,5.5-10.1,5-16.2
	c0-0.3-0.2-0.6-0.4-0.7c-1.7-1.3-3.3-2.8-4.6-4.6C62.2,25,61.3,23.4,60.2,21.9z M16.8,91.9c-4.2,0-8.3,0-12.4,0c0,10,0,20,0,29.9
	c4.2,0,8.3,0,12.4,0C16.8,111.8,16.8,101.9,16.8,91.9z M97.4,51c0.3,0,0.5,0,0.7,0c3.1,0,6.3,0,9.4,0c1.3,0,1.8-0.5,1.8-1.8
	c0-3.9,0-7.8,0-11.7c0-1.4-0.5-1.9-1.8-1.9c-6.7,0-13.5,0-20.2,0c-1.4,0-1.9,0.5-1.9,1.9c0,3.3,0,6.6,0,9.9c0,0.7,0,1.3,0,2
	c0,0.6,0.2,1.1,0.9,1.3c0-1.4-0.1-2.7,0-4c0-0.8,0.2-1.6,0.5-2.3c1-2.4,3.6-3.7,6.1-3.2c2.6,0.5,4.5,2.7,4.6,5.4
	C97.4,48.1,97.4,49.5,97.4,51z M63.2,63.4c-0.1-0.1-0.1-0.1-0.2-0.2c-0.9-0.1-1.7-0.1-2.6-0.2c-0.4,0-0.6,0.1-0.8,0.4
	c-1.1,1.7-2.5,3-4.2,4c-5.1,2.9-10.4,3.4-16,1.9c-3.6-1-6.7-2.8-8.8-6c-0.1-0.1-0.3-0.3-0.4-0.2c-1,0-1.9,0.1-3,0.2
	c0.2,0.4,0.3,0.6,0.5,0.8c1.3,2.1,3,3.8,5.1,5.1c5.6,3.5,11.6,4.2,17.9,2.9c4.2-0.9,7.9-2.8,10.7-6.1C62.1,65.2,62.6,64.3,63.2,63.4
	z M55.9,58.9c-7.2,2.9-14.3,2.8-21.4,0c0,0.5,0,1,0,1.4c-0.1,0.7,0.1,1.3,0.7,1.7c0.9,0.7,1.8,1.5,2.9,2c3.8,1.9,7.7,2,11.8,1
	c2.1-0.6,4.1-1.5,5.6-3.2c0.2-0.2,0.4-0.6,0.5-0.9C56,60.3,55.9,59.7,55.9,58.9z"/>
<g>
</g>
<g>
</g>
<g>
</g>
<g>
</g>
<g>
</g>
<g>
</g>
</svg>
