<?xml version="1.0" encoding="utf-8"?>
<!-- Generator: Adobe Illustrator 24.1.2, SVG Export Plug-In . SVG Version: 6.00 Build 0)  -->
<svg version="1.1" id="Camada_1" xmlns="http://www.w3.org/2000/svg" xmlns:xlink="http://www.w3.org/1999/xlink" x="0px" y="0px"
	 viewBox="0 0 40.3 28.9" style="enable-background:new 0 0 40.3 28.9;" xml:space="preserve">
<style type="text/css">
	.st0{fill:#772580;}
</style>
<g>
	<path class="st0" d="M0,3.4c0.3-0.6,0.4-1.3,0.8-1.8C1.6,0.5,2.7,0,4.1,0c2.1,0,4.2,0,6.4,0C19,0,27.6,0,36.1,0
		c1.4,0,2.5,0.5,3.4,1.6C40,2.3,40.3,3.1,40.3,4c0,2.8,0,5.5,0,8.3c0,4.1,0,8.3,0,12.4c0,2.5-1.7,4.2-4.2,4.2c-10.6,0-21.3,0-31.9,0
		c-2,0-3.8-1.3-4.1-3.3c0,0,0-0.1-0.1-0.1C0,18.1,0,10.8,0,3.4z M20.1,26.3c5.3,0,10.6,0,15.9,0c0.2,0,0.3,0,0.5,0
		c0.6,0,1-0.5,1.1-1c0-0.2,0-0.4,0-0.7c0-6.3,0-12.6,0-18.9c0-0.6,0-1.1,0-1.7c0-0.7-0.4-1.2-1-1.3c-0.2,0-0.4,0-0.6,0
		c-10.6,0-21.2,0-31.8,0c-0.1,0-0.3,0-0.4,0c-0.6,0-1.1,0.5-1.2,1c0,0.2,0,0.4,0,0.6c0,6.8,0,13.6,0,20.3c0,1.2,0.5,1.6,1.6,1.6
		C9.5,26.3,14.8,26.3,20.1,26.3z"/>
	<path class="st0" d="M5.3,14.5c0-2.6,0-5.2,0-7.8c0-0.7,0.3-1.2,1-1.4C7,5.1,7.8,5.7,7.9,6.5c0,0.1,0,0.3,0,0.4c0,5,0,10.1,0,15.1
		c0,1-0.5,1.6-1.3,1.6c-0.8,0-1.3-0.6-1.3-1.6C5.3,19.5,5.3,17,5.3,14.5z"/>
	<path class="st0" d="M35,14.5c0,2.6,0,5.1,0,7.7c0,0.7-0.3,1.2-1,1.4c-0.8,0.2-1.6-0.3-1.6-1.1c0-0.1,0-0.2,0-0.3
		c0-5.1,0-10.3,0-15.4c0-0.7,0.3-1.2,0.8-1.4C34.1,5,35,5.6,35,6.5c0,0.6,0,1.3,0,1.9C35,10.5,35,12.5,35,14.5z"/>
	<path class="st0" d="M23.7,11.8c0,1.7,0,3.4,0,5c0,0.4-0.1,0.8-0.4,1.1c-0.7,0.7-1.9,0.4-2.2-0.5C21,17.3,21,17.1,21,16.9
		c0-3.4,0-6.8,0-10.1c0-0.8,0.4-1.3,1-1.4c0.7-0.2,1.5,0.3,1.6,1c0,0.2,0,0.4,0,0.6C23.7,8.6,23.7,10.2,23.7,11.8z"/>
	<path class="st0" d="M15.8,11.8c0-1.7,0-3.4,0-5.1c0-0.8,0.3-1.3,1-1.4c0.7-0.2,1.4,0.2,1.6,0.9c0,0.2,0.1,0.3,0.1,0.5
		c0,3.4,0,6.8,0,10.1c0,1.1-0.9,1.7-1.8,1.4c-0.6-0.2-0.8-0.7-0.8-1.4C15.8,15.2,15.8,13.5,15.8,11.8z"/>
	<path class="st0" d="M13.1,11.9c0,1.7,0,3.5,0,5.2c0,0.6-0.4,1.1-0.9,1.3c-0.5,0.2-1.1,0-1.4-0.5c-0.2-0.2-0.3-0.6-0.3-0.8
		c0-3.5,0-6.9,0-10.4c0-0.8,0.6-1.4,1.3-1.4c0.7,0,1.3,0.6,1.3,1.4C13.1,8.4,13.1,10.1,13.1,11.9z"/>
	<path class="st0" d="M29.8,11.8c0,1.7,0,3.4,0,5c0,0.3-0.1,0.7-0.2,1c-0.3,0.5-0.9,0.7-1.4,0.5c-0.6-0.1-0.9-0.6-1-1.2
		c0-0.2,0-0.5,0-0.7c0-3.2,0-6.4,0-9.6c0-0.3,0-0.6,0.1-0.8c0.2-0.5,0.8-0.8,1.4-0.8c0.6,0.1,1,0.6,1.1,1.2c0,0.2,0,0.3,0,0.5
		C29.8,8.6,29.8,10.2,29.8,11.8z"/>
	<path class="st0" d="M17.1,21c0.7,0,1.3,0.6,1.3,1.3c0,0.7-0.6,1.3-1.3,1.3c-0.7,0-1.3-0.6-1.3-1.3C15.8,21.6,16.4,21,17.1,21z"/>
	<path class="st0" d="M23.6,22.4c0,0.7-0.6,1.3-1.3,1.3c-0.7,0-1.3-0.6-1.3-1.3c0-0.7,0.6-1.3,1.3-1.3
		C23.1,21.1,23.6,21.6,23.6,22.4z"/>
	<path class="st0" d="M10.5,22.4c0-0.7,0.6-1.3,1.3-1.3c0.7,0,1.3,0.6,1.3,1.3c0,0.7-0.6,1.3-1.3,1.3C11.1,23.7,10.5,23.1,10.5,22.4
		z"/>
	<path class="st0" d="M29.8,22.3c0,0.7-0.6,1.3-1.3,1.3c-0.7,0-1.3-0.6-1.3-1.3c0-0.7,0.6-1.3,1.3-1.3C29.2,21,29.8,21.6,29.8,22.3z
		"/>
</g>
<g>
</g>
<g>
</g>
<g>
</g>
<g>
</g>
<g>
</g>
<g>
</g>
<g>
</g>
<g>
</g>
<g>
</g>
<g>
</g>
<g>
</g>
</svg>
