<?xml version="1.0" encoding="utf-8"?>
<!-- Generator: Adobe Illustrator 25.2.1, SVG Export Plug-In . SVG Version: 6.00 Build 0)  -->
<svg version="1.1" id="Camada_1" xmlns="http://www.w3.org/2000/svg" xmlns:xlink="http://www.w3.org/1999/xlink" x="0px" y="0px"
	 viewBox="0 0 102 102" style="enable-background:new 0 0 102 102;" xml:space="preserve">
<style type="text/css">
	.st0{fill:url(#SVGID_1_);}
	.st1{fill:url(#SVGID_2_);}
</style>
<g>
	<linearGradient id="SVGID_1_" gradientUnits="userSpaceOnUse" x1="0" y1="51.0207" x2="102.0198" y2="51.0207">
		<stop  offset="8.379889e-03" style="stop-color:#772182"/>
		<stop  offset="1" style="stop-color:#812082"/>
	</linearGradient>
	<path class="st0" d="M24.6,10.2c1.1,0,2.1,0,3.2,0c1.6,0,2.9-0.7,3.8-2.1c1-1.6,2-3.1,3-4.7c0.7-1,1.4-2,2.5-2.6
		c2.1-1.2,4.2-1.1,6.3,0c1.7,0.9,3.4,1.9,5.1,2.8c1.7,1,3.4,1,5.2,0c1.6-1,3.3-1.9,4.9-2.8C61.8-0.8,65.1,0,67.2,3
		c1.1,1.6,2.1,3.2,3.1,4.9c1,1.6,2.4,2.4,4.3,2.3c1.8-0.1,3.6-0.2,5.4-0.1c1.1,0,2.2,0.1,3.2,0.5c2.5,0.9,3.7,3,3.9,5.6
		c0.2,1.8,0.4,3.7,0.5,5.5c0.1,2,1,3.4,2.9,4.2c1.7,0.8,3.3,1.6,4.9,2.4c3.5,1.8,4.8,5,3.3,8.7c-0.7,1.8-1.4,3.6-2.2,5.4
		c-0.7,1.7-0.5,3.2,0.6,4.6c1.1,1.6,2.3,3.1,3.4,4.7c1.2,1.6,1.7,3.4,1.3,5.4c-0.3,1.5-1.2,2.7-2.3,3.7c-1.5,1.3-2.9,2.5-4.4,3.7
		c-1.3,1.1-2,2.5-1.7,4.2c0.3,1.9,0.6,3.7,0.8,5.6c0.1,0.9,0.1,1.8,0,2.7c-0.4,3.1-2.5,4.6-5.3,5.3c-1.8,0.4-3.6,0.8-5.4,1.2
		c-1.8,0.4-2.9,1.4-3.5,3.1c-0.6,1.8-1.2,3.7-1.9,5.5c-0.8,2.2-2.3,3.8-4.7,4.4c-1.3,0.3-2.6,0.1-3.9-0.2c-1.7-0.5-3.4-0.9-5.1-1.4
		c-1.8-0.5-3.3-0.1-4.6,1.2c-1.3,1.3-2.7,2.5-4,3.8c-3,2.8-6.5,2.8-9.5,0c-1.3-1.2-2.6-2.5-3.9-3.7c-1.4-1.4-3-1.8-4.9-1.2
		c-1.8,0.5-3.6,1-5.4,1.5c-3.7,1-6.8-0.6-8.1-4.2c-0.6-1.8-1.3-3.5-1.8-5.3c-0.6-1.8-1.8-3-3.7-3.3c-1.8-0.4-3.6-0.8-5.4-1.2
		c-3.9-0.9-5.8-3.6-5.4-7.5c0.1-0.8,0.2-1.5,0.3-2.3c0.2-1.1,0.4-2.2,0.5-3.3c0.3-2-0.3-3.6-1.9-4.9c-1.4-1.1-2.7-2.2-4.1-3.4
		c-1.8-1.6-2.8-3.4-2.5-5.9c0.2-1.2,0.7-2.3,1.4-3.4c1-1.5,2.1-2.9,3.2-4.3c1.3-1.6,1.5-3.4,0.7-5.3c-0.7-1.6-1.4-3.2-2-4.8
		c-0.5-1.2-0.8-2.5-0.6-3.8c0.3-2.3,1.6-3.9,3.6-4.9c1.8-0.9,3.6-1.8,5.4-2.7c1.6-0.8,2.5-2,2.7-3.7c0.2-2,0.3-4,0.6-6
		c0.4-3.6,3-6,6.6-6c1,0,2.1,0,3.1,0C24.6,10.1,24.6,10.2,24.6,10.2z M18.2,50.8c0,18.1,14.7,33,32.7,33c18.1,0,32.9-14.6,32.9-32.5
		c0-18.5-14.5-33.1-32.7-33.1C33,18.2,18.2,33,18.2,50.8z"/>
	<linearGradient id="SVGID_2_" gradientUnits="userSpaceOnUse" x1="29.1344" y1="52.8458" x2="72.8304" y2="52.8458">
		<stop  offset="0" style="stop-color:#EB5E1D"/>
		<stop  offset="0.9693" style="stop-color:#F28A1A"/>
	</linearGradient>
	<path class="st1" d="M29.1,51.5c0.2-0.5,0.3-1.1,0.7-1.5c0.7-0.8,1.4-1.5,2.2-2.2c1.1-0.9,2.2-0.9,3.3,0c0.9,0.7,1.8,1.4,2.6,2.2
		c2.4,2.1,4.8,4.3,7.2,6.5c0.7,0.6,1.1,0.6,1.8-0.2c3.2-3.7,6.3-7.4,9.4-11.1c3.1-3.6,6.2-7.3,9.4-10.9c1.6-1.8,2.2-1.9,4.1-0.5
		c0.7,0.5,1.3,1,2,1.5c1,0.9,1.2,1.7,0.5,2.9c-0.2,0.5-0.5,0.9-0.8,1.3c-5.4,7.6-10.8,15.3-16.2,22.9c-2,2.9-4.1,5.8-6.1,8.7
		c-0.2,0.3-0.4,0.6-0.7,0.9c-0.8,0.9-2,0.9-2.9,0.2c-0.2-0.2-0.4-0.3-0.5-0.5c-4.7-5.6-9.4-11.1-14.1-16.7c-0.5-0.6-0.9-1.3-1.3-2
		C29.4,52.6,29.3,52.1,29.1,51.5z"/>
</g>
<g>
</g>
<g>
</g>
<g>
</g>
<g>
</g>
<g>
</g>
<g>
</g>
</svg>
