<?xml version="1.0" encoding="utf-8"?>
<!-- Generator: Adobe Illustrator 25.2.1, SVG Export Plug-In . SVG Version: 6.00 Build 0)  -->
<svg version="1.1" id="Camada_1" xmlns="http://www.w3.org/2000/svg" xmlns:xlink="http://www.w3.org/1999/xlink" x="0px" y="0px"
	 viewBox="0 0 125.84 125.84" style="enable-background:new 0 0 125.84 125.84;" xml:space="preserve">
<style type="text/css">
	.st0{fill:#782681;}
	.st1{fill:#FFFFFF;}
	.st2{fill:url(#SVGID_1_);}
	.st3{fill:url(#SVGID_2_);}
</style>
<circle class="st0" cx="62.92" cy="62.92" r="62.92"/>
<g>
	<path class="st1" d="M101.54,76.36c-0.71-2.45-2.01-4.55-3.66-6.45c-0.69-0.79-1.49-1.49-2.19-2.27c-0.22-0.24-0.38-0.62-0.38-0.94
		c-0.03-9.97-0.04-19.93-0.05-29.9c0-0.2,0-0.4,0-0.65c-22.13,0-44.22,0-66.34,0c0,15.8,0,31.56,0,47.41c13.54,0,27.02,0,40.57,0
		c0.2,2.35,1.35,4.27,2.43,6.3c-0.25,0.03-0.38,0.05-0.51,0.05c-13.59-0.01-27.19-0.02-40.78-0.04c-1.07,0-2.17,0.05-3.21-0.15
		c-2.8-0.54-4.44-2.45-4.74-5.48c-0.14-1.45-0.13-2.91-0.14-4.37c-0.04-13.19-0.08-26.38-0.1-39.56c0-1.44,0.05-2.88,0.1-4.31
		c0.12-3.39,2.41-5.84,5.81-6.11c1.57-0.12,3.16-0.12,4.74-0.12c19.91-0.02,39.83-0.02,59.74-0.03c0.91,0,1.82,0.03,2.73,0.05
		c2.79,0.07,5.91,2.23,5.99,6c0.07,3.48,0.1,6.96,0.12,10.45c0.03,7.72,0.05,15.44,0.06,23.15c0,1.96-0.05,3.93-0.08,5.89
		C101.62,75.64,101.57,76,101.54,76.36z"/>
	<linearGradient id="SVGID_1_" gradientUnits="userSpaceOnUse" x1="73.8965" y1="80.7346" x2="97.2892" y2="80.7346">
		<stop  offset="0" style="stop-color:#EB5E1D"/>
		<stop  offset="0.9693" style="stop-color:#F28A1A"/>
	</linearGradient>
	<path class="st2" d="M73.9,80.75c-0.01-6.53,5.24-11.73,11.81-11.72c6.38,0.01,11.58,5.3,11.58,11.78
		c0,6.43-5.28,11.64-11.79,11.63C79.13,92.43,73.9,87.17,73.9,80.75z M89.7,86.27c-0.14-0.86-0.24-1.58-0.39-2.28
		c-0.33-1.57-0.02-2.88,1.37-3.84c0.36-0.25,0.66-0.6,0.96-0.93c0.18-0.2,0.31-0.44,0.52-0.74c-1.13-0.21-2.14-0.45-3.16-0.57
		c-0.87-0.11-1.43-0.47-1.8-1.29c-0.42-0.95-0.97-1.85-1.54-2.9c-0.28,0.4-0.49,0.66-0.65,0.95c-0.35,0.66-0.69,1.33-1.01,2.01
		c-0.35,0.76-0.91,1.12-1.73,1.22c-1.03,0.13-2.05,0.35-3.2,0.56c0.6,0.71,1.08,1.39,1.68,1.94c1.01,0.93,1.4,1.96,1.04,3.33
		c-0.21,0.78-0.19,1.61-0.29,2.58c0.81-0.38,1.51-0.61,2.1-1c1.31-0.86,2.57-0.88,3.9-0.06C88.14,85.64,88.87,85.89,89.7,86.27z"/>
	<path class="st1" d="M62.04,52.5c-7.51-0.09-15.02-0.17-22.53-0.27c-0.91-0.01-0.96-0.03-0.99-0.93c-0.03-0.97,0.03-1.94,0.05-2.91
		c0.01-0.5,0.23-0.7,0.75-0.71c2.96-0.04,5.91-0.14,8.87-0.15c11.48-0.01,22.96,0,34.44,0.01c0.75,0,1.5,0.02,2.25,0.04
		c0.58,0.01,0.92,0.28,0.92,0.89c0.01,0.91,0.06,1.82,0,2.73c-0.05,0.86-0.19,0.97-1.04,0.99c-3.34,0.07-6.68,0.15-10.02,0.17
		c-4.23,0.03-8.46,0.01-12.7,0.01C62.04,52.41,62.04,52.46,62.04,52.5z"/>
	<path class="st1" d="M85.84,57.64c0,1.26,0.03,2.43-0.01,3.6c-0.02,0.67-0.32,0.92-1,0.96c-0.42,0.02-0.85,0.01-1.28,0.01
		c-14.5,0-29.01,0-43.51,0c-0.14,0-0.28,0-0.43,0c-0.88-0.03-1.12-0.25-1.14-1.13c-0.02-0.79-0.01-1.58,0.01-2.37
		c0.03-1,0.29-1.25,1.29-1.25c5.17-0.01,10.33-0.04,15.5-0.03c9.07,0.01,18.15,0.03,27.22,0.07C83.57,57.5,84.63,57.58,85.84,57.64z
		"/>
	<linearGradient id="SVGID_2_" gradientUnits="userSpaceOnUse" x1="77.3454" y1="101.5821" x2="93.9061" y2="101.5821">
		<stop  offset="0" style="stop-color:#EB5E1D"/>
		<stop  offset="0.9693" style="stop-color:#F28A1A"/>
	</linearGradient>
	<path class="st3" d="M93.9,94.95c0,0.85,0,1.53,0,2.21c0,3.1,0.02,6.2,0.01,9.3c0,0.44-0.1,0.88-0.18,1.32
		c-0.08,0.45-0.35,0.53-0.69,0.28c-0.56-0.4-1.13-0.79-1.62-1.26c-1.35-1.28-2.67-2.6-4-3.9c-0.2-0.2-0.4-0.4-0.62-0.58
		c-0.79-0.63-1.45-0.66-2.28-0.11c-0.23,0.16-0.46,0.33-0.66,0.53c-1.68,1.64-3.34,3.3-5.03,4.92c-0.27,0.26-0.66,0.38-1,0.56
		c-0.14-0.36-0.41-0.72-0.42-1.08c-0.05-1.92-0.04-3.85-0.04-5.77c0-2.08,0-4.17,0-6.44C82.83,97.95,88.28,97.82,93.9,94.95z"/>
	<path class="st1" d="M50.49,72.12c-2.21,0-4.41-0.01-6.62,0.01c-0.93,0.01-1.86,0.07-2.79,0.11c-0.16,0.01-0.32,0-0.49,0
		c-1.86-0.06-2.11-0.31-2.16-2.16c-0.01-0.49-0.01-0.97,0.02-1.46c0.05-0.96,0.4-1.3,1.37-1.3c1.78-0.01,3.56,0.01,5.35,0.02
		c4.78,0.01,9.56,0.01,14.34,0.03c0.67,0,1.33,0.08,2,0.1c0.4,0.01,0.6,0.19,0.6,0.59c0.02,0.95,0.08,1.9,0.04,2.85
		c-0.04,0.96-0.14,1.05-1.12,1.11c-1.72,0.09-3.43,0.15-5.15,0.18c-1.8,0.03-3.6,0.01-5.4,0.01C50.49,72.17,50.49,72.14,50.49,72.12
		z"/>
</g>
</svg>
