<?xml version="1.0" encoding="utf-8"?>
<!-- Generator: Adobe Illustrator 24.1.2, SVG Export Plug-In . SVG Version: 6.00 Build 0)  -->
<svg version="1.1" id="Camada_1" xmlns="http://www.w3.org/2000/svg" xmlns:xlink="http://www.w3.org/1999/xlink" x="0px" y="0px"
	 viewBox="0 0 126.6 94.1" style="enable-background:new 0 0 126.6 94.1;" xml:space="preserve">
<style type="text/css">
	.st0{fill:url(#SVGID_1_);}
	.st1{fill:url(#SVGID_2_);}
</style>
<g>
	<linearGradient id="SVGID_1_" gradientUnits="userSpaceOnUse" x1="9.094947e-13" y1="47.0356" x2="126.5631" y2="47.0356">
		<stop  offset="0" style="stop-color:#FF5C00"/>
		<stop  offset="0.9693" style="stop-color:#FF8F00"/>
	</linearGradient>
	<path class="st0" d="M63.3,94.1c-19,0-37.9,0-56.9,0c-4.7,0-6.3-1.6-6.3-6.3C0,60.6,0,33.4,0,6.1C0,1.6,1.6,0,6.2,0
		c38,0,76.1,0,114.1,0c4.6,0,6.2,1.5,6.2,6.1c0,27.3,0,54.6,0,81.9c0,4.4-1.7,6-6.1,6C101.4,94.1,82.3,94.1,63.3,94.1z M123.3,80.5
		c0-1.1,0-2,0-2.9c0-23.5,0-47,0-70.5c0-3.7-0.2-3.9-3.9-3.9c-37.5,0-75,0-112.4,0c-3.6,0-3.7,0.2-3.7,3.8c0,23.6,0,47.2,0,70.8
		c0,0.9,0.1,1.8,0.1,2.8C43.4,80.5,83.1,80.5,123.3,80.5z M16.9,87.8c1.3,0,2.5,0,3.7,0c31.5,0,62.9,0,94.4,0c0.7,0,1.5,0,2.2,0
		c1.8,0.1,2-0.8,1.3-2.5c-33.8,0-67.7,0-101.7,0c-0.1-1.1-0.2-1.9-0.2-2.7c-1.7,0-3.2,0-4.7,0c-0.2,1-0.3,1.9-0.5,2.7
		c-4.7,0.3-4.7,0.3-4.5,2.4c1.5,0.1,3,0.2,4.6,0.3c0.2,1,0.3,1.9,0.4,2.8c1.6,0,3.1,0,4.7,0C16.7,89.8,16.8,89,16.9,87.8z"/>
	<linearGradient id="SVGID_2_" gradientUnits="userSpaceOnUse" x1="32.6058" y1="41.4971" x2="93.9972" y2="41.4971">
		<stop  offset="0" style="stop-color:#FF5C00"/>
		<stop  offset="0.9693" style="stop-color:#FF8F00"/>
	</linearGradient>
	<path class="st1" d="M94,41.5c-0.1,17-13.7,30.7-30.7,30.8c-17,0-30.7-13.8-30.7-31c0-16.9,13.9-30.6,31.1-30.6
		C80.4,10.7,94.1,24.7,94,41.5z M51.6,41.3c0,4.4,0,8.9,0,13.3c0,3.5,1.1,4.2,4.3,2.6c8.8-4.3,17.6-8.7,26.3-13.1
		c0.9-0.5,2-1.5,2.1-2.5c0.1-0.6-1.2-1.8-2-2.2c-8.9-4.7-17.8-9.4-26.8-14c-2.8-1.5-3.8-0.8-3.9,2.5C51.6,32.4,51.6,36.9,51.6,41.3z
		"/>
</g>
<g>
</g>
<g>
</g>
<g>
</g>
<g>
</g>
<g>
</g>
<g>
</g>
<g>
</g>
<g>
</g>
<g>
</g>
<g>
</g>
<g>
</g>
</svg>
