<?xml version="1.0" encoding="utf-8"?>
<!-- Generator: Adobe Illustrator 24.1.2, SVG Export Plug-In . SVG Version: 6.00 Build 0)  -->
<svg version="1.1" id="Camada_1" xmlns="http://www.w3.org/2000/svg" xmlns:xlink="http://www.w3.org/1999/xlink" x="0px" y="0px"
	 viewBox="0 0 65.7 65.8" style="enable-background:new 0 0 65.7 65.8;" xml:space="preserve">
<style type="text/css">
	.st0{fill:#D7BEE3;}
</style>
<path class="st0" d="M0,24.6C0,14.3,6.6,4.9,16.3,1.5c10.1-3.6,21.1-0.4,27.8,8c6.3,7.9,6.9,19.4,1.5,28c-0.7,1.2-0.6,1.8,0.4,2.7
	c6,5.9,12,11.9,17.9,17.9c0.8,0.8,1.4,1.9,1.7,3c0.4,1.7-0.6,3.3-2.1,4.1c-1.6,0.9-3.4,0.6-4.9-0.8c-3.1-3.1-6.2-6.2-9.3-9.3
	c-2.9-2.9-5.9-5.7-8.7-8.7c-1.2-1.3-2-1.4-3.7-0.5C24.3,53.2,8.7,48.3,2.4,35.3C0.8,32.1,0,28.3,0,24.6z M8.2,24.7
	c0.1,9.2,7.4,16.5,16.6,16.3c9-0.1,16.2-7.5,16.2-16.5C41,15.4,33.5,8.1,24.4,8.2C15.4,8.4,8.1,15.8,8.2,24.7z"/>
<g>
</g>
<g>
</g>
<g>
</g>
<g>
</g>
<g>
</g>
<g>
</g>
<g>
</g>
<g>
</g>
<g>
</g>
<g>
</g>
<g>
</g>
</svg>
