<?xml version="1.0" encoding="utf-8"?>
<!-- Generator: Adobe Illustrator 25.2.1, SVG Export Plug-In . SVG Version: 6.00 Build 0)  -->
<svg version="1.1" id="Camada_1" xmlns="http://www.w3.org/2000/svg" xmlns:xlink="http://www.w3.org/1999/xlink" x="0px" y="0px"
	 viewBox="0 0 96.4 96.9" style="enable-background:new 0 0 96.4 96.9;" xml:space="preserve">
<style type="text/css">
	.st0{fill:#782681;}
	.st1{fill:url(#SVGID_1_);}
</style>
<g>
	<path class="st0" d="M0,96.9c0.7-2.6,1.3-5,2-7.4C3.4,84.3,4.8,79.2,6.2,74c0.4-1.3,0.1-2.5-0.5-3.6C2.9,65,1.2,59.3,0.5,53.3
		C0,48.9,0.2,44.5,0.9,40.2c1.1-6.5,3.4-12.6,7-18.1c5.8-8.9,13.6-15.2,23.6-18.9C37.2,1,43.1-0.1,49.2,0C58.1,0.2,66.4,2.6,74,7.4
		c6.8,4.3,12.3,10,16.2,17c4.7,8.4,6.7,17.4,6.1,27c-0.6,9.5-3.8,18.2-9.6,25.8C81.1,84.6,73.9,90,65.2,93.3
		c-5.6,2.1-11.4,3.1-17.4,3c-7.1-0.1-13.9-1.7-20.3-4.8c-1.6-0.7-3-0.9-4.7-0.4C15.4,93,8,94.9,0.7,96.8C0.5,96.8,0.4,96.9,0,96.9z
		 M11,86c0.4,0,0.5,0,0.6-0.1c4-1.1,8.1-2,12.1-3.2c1.8-0.5,3.3-0.4,4.9,0.6c8.2,4.6,17,6.2,26.3,4.6c10.6-1.8,19.3-7.1,25.7-15.7
		c6.8-9.1,9.2-19.4,7.4-30.5C86.3,30.8,80.9,22,72,15.5C62.5,8.7,52,6.4,40.6,8.7c-9.7,1.9-17.7,6.8-23.8,14.6
		c-5.4,6.8-8.3,14.6-8.7,23.4c-0.3,7.1,1.1,13.8,4.6,19.9c1.8,3.2,2.4,6.3,1.1,9.8C12.6,79.4,11.9,82.7,11,86z"/>
	<linearGradient id="SVGID_1_" gradientUnits="userSpaceOnUse" x1="23.9909" y1="48.5443" x2="72.6153" y2="48.5443">
		<stop  offset="0" style="stop-color:#EB5E1D"/>
		<stop  offset="0.9693" style="stop-color:#F28A1A"/>
	</linearGradient>
	<path class="st1" d="M72.5,61.2c-0.1,4.8-3.2,8.3-8,9.5c-2.7,0.7-5.4,0.3-8.1-0.3c-7-1.7-12.9-5.3-18.2-10.1
		c-4.7-4.2-8.6-9.1-11.7-14.6C24,41.6,23.1,37,25,32.2c0.8-2.1,2.1-3.8,3.8-5.2c1.9-1.5,4-1.2,6.1-0.5c0.4,0.1,0.8,0.7,1,1.2
		c1.4,3.2,2.7,6.4,4,9.6c0.6,1.4-0.3,2.5-1,3.5c-0.7,0.9-1.5,1.8-2.2,2.7c-0.6,0.7-0.7,1.5-0.2,2.3c3.9,6.7,9.4,11.6,16.7,14.5
		c1.3,0.5,2,0.3,2.9-0.9c1.1-1.4,2.2-2.7,3.3-4.1c1-1.2,1.6-1.3,2.9-0.6c2.9,1.4,5.7,2.8,8.6,4.2C72.1,59.3,72.9,60,72.5,61.2z"/>
</g>
<g>
</g>
<g>
</g>
<g>
</g>
<g>
</g>
<g>
</g>
<g>
</g>
</svg>
