<?xml version="1.0" encoding="utf-8"?>
<!-- Generator: Adobe Illustrator 24.1.2, SVG Export Plug-In . SVG Version: 6.00 Build 0)  -->
<svg version="1.1" id="Camada_1" xmlns="http://www.w3.org/2000/svg" xmlns:xlink="http://www.w3.org/1999/xlink" x="0px" y="0px"
	 viewBox="0 0 28.5 34.1" style="enable-background:new 0 0 28.5 34.1;" xml:space="preserve">
<style type="text/css">
	.st0{fill:#FFFFFF;}
</style>
<g>
	<path class="st0" d="M28.5,17c0,5.1,0,10.1,0,15.2c0,1.4-0.5,1.9-1.9,1.9c-1.4,0-2.9,0-4.3,0c-1.2,0-1.7-0.6-1.7-1.8
		c0-10.2,0-20.4,0-30.6c0-1.2,0.6-1.8,1.7-1.8c1.5,0,3,0,4.5,0c1.1,0,1.7,0.6,1.7,1.7C28.5,6.8,28.5,11.9,28.5,17z"/>
	<path class="st0" d="M10.3,20.9c0-3.8,0-7.5,0-11.3c0-1.3,0.5-1.9,1.9-1.9c1.4,0,2.9,0,4.3,0c1.1,0,1.7,0.6,1.7,1.7
		c0,7.6,0,15.2,0,22.8c0,1.2-0.6,1.8-1.8,1.8c-1.5,0-2.9,0-4.4,0c-1.2,0-1.8-0.6-1.8-1.8C10.3,28.5,10.3,24.7,10.3,20.9z"/>
	<path class="st0" d="M7.9,24.8c0,2.5,0,5,0,7.4c0,1.3-0.6,1.8-1.8,1.8c-1.5,0-2.9,0-4.4,0c-1.1,0-1.7-0.6-1.7-1.7
		c0-5.1,0-10.1,0-15.2c0-1.1,0.6-1.7,1.7-1.7c1.5,0,3,0,4.6,0c1.1,0,1.7,0.6,1.7,1.7C7.9,19.7,7.9,22.3,7.9,24.8z"/>
</g>
<g>
</g>
<g>
</g>
<g>
</g>
<g>
</g>
<g>
</g>
<g>
</g>
<g>
</g>
<g>
</g>
<g>
</g>
<g>
</g>
<g>
</g>
</svg>
