<?xml version="1.0" encoding="utf-8"?>
<!-- Generator: Adobe Illustrator 25.2.1, SVG Export Plug-In . SVG Version: 6.00 Build 0)  -->
<svg version="1.1" id="Camada_1" xmlns="http://www.w3.org/2000/svg" xmlns:xlink="http://www.w3.org/1999/xlink" x="0px" y="0px"
	 viewBox="0 0 80.76 79.88" style="enable-background:new 0 0 80.76 79.88;" xml:space="preserve">
<style type="text/css">
	.st0{fill:url(#SVGID_1_);}
	.st1{fill:url(#SVGID_2_);}
	.st2{fill:url(#SVGID_3_);}
</style>
<g>
	<linearGradient id="SVGID_1_" gradientUnits="userSpaceOnUse" x1="0" y1="53.1413" x2="53.432" y2="53.1413">
		<stop  offset="8.379889e-03" style="stop-color:#772182"/>
		<stop  offset="1" style="stop-color:#812082"/>
	</linearGradient>
	<path class="st0" d="M42.69,31.97c-2.03,2.04-3.91,3.92-5.65,5.67c-2.79-0.82-5.37-1.94-8.04-2.31c-8.34-1.14-15.89,3.4-19,11.11
		c-3.06,7.6-0.57,16.34,6.04,21.24c6.48,4.8,15.5,4.65,21.84-0.35c6.46-5.1,8.72-13.8,5.3-21.38c-0.86-1.9-0.66-2.96,0.82-4.28
		c1.39-1.24,2.51-2.78,3.74-4.17c8.12,7.41,7.4,23.92-1.06,33.41c-9.83,11.02-26.51,12.03-37.62,2.27
		C-1.9,63.57-3.07,46.86,6.42,35.76C15.59,25.04,32.23,23.2,42.69,31.97z"/>
	<linearGradient id="SVGID_2_" gradientUnits="userSpaceOnUse" x1="25.4548" y1="27.3873" x2="80.7611" y2="27.3873">
		<stop  offset="0" style="stop-color:#EB5E1D"/>
		<stop  offset="0.9693" style="stop-color:#F28A1A"/>
	</linearGradient>
	<path class="st1" d="M68.64,0.43c0,1.95-0.02,3.9,0,5.85c0.07,6.23-0.67,5.2,5.42,5.3c1.94,0.03,3.88,0.01,6.7,0.01
		c-1.05,1.38-1.52,2.16-2.14,2.79c-3.48,3.53-7.06,6.95-10.47,10.55c-1.41,1.49-2.89,2.38-4.92,2.01c-5.2-0.94-8.82,1.26-12.32,5.05
		c-6.71,7.27-13.93,14.09-20.94,21.09c-0.56,0.56-1.08,1.33-1.76,1.55c-0.72,0.23-1.89,0.21-2.35-0.23
		c-0.45-0.43-0.52-1.64-0.27-2.33c0.29-0.77,1.1-1.37,1.73-2c7.98-7.99,15.93-16.01,23.98-23.93c1.46-1.44,2.39-2.89,2-4.93
		c-1.01-5.25,1.12-9.05,5.12-12.3c2.6-2.11,4.79-4.73,7.18-7.1C66.27,1.16,67.03,0.6,67.74,0C68.04,0.14,68.34,0.29,68.64,0.43z"/>
	<linearGradient id="SVGID_3_" gradientUnits="userSpaceOnUse" x1="13.4217" y1="53.2106" x2="39.9835" y2="53.2106">
		<stop  offset="8.379889e-03" style="stop-color:#772182"/>
		<stop  offset="1" style="stop-color:#812082"/>
	</linearGradient>
	<path class="st2" d="M33.42,41.84c-3.19,2.61-6.19,4.8-8.86,7.34c-1.16,1.1-2.36,2.97-2.23,4.37c0.14,1.4,1.72,3.4,3.03,3.74
		c1.45,0.38,3.73-0.37,4.91-1.44c2.83-2.56,5.23-5.59,7.85-8.48c3.24,4.27,2.11,11.3-2.23,15.39c-4.99,4.7-12.7,4.89-17.85,0.44
		c-5.1-4.41-6.11-11.89-2.36-17.47C19.47,40.09,26.67,38.27,33.42,41.84z"/>
</g>
</svg>
