<?xml version="1.0" encoding="utf-8"?>
<!-- Generator: Adobe Illustrator 24.1.2, SVG Export Plug-In . SVG Version: 6.00 Build 0)  -->
<svg version="1.1" id="Camada_1" xmlns="http://www.w3.org/2000/svg" xmlns:xlink="http://www.w3.org/1999/xlink" x="0px" y="0px"
	 viewBox="0 0 166.5 188.4" style="enable-background:new 0 0 166.5 188.4;" xml:space="preserve">
<style type="text/css">
	.st0{fill:url(#SVGID_1_);}
	.st1{fill:url(#SVGID_2_);}
	.st2{fill:url(#SVGID_3_);}
	.st3{fill:url(#SVGID_4_);}
	.st4{fill:url(#SVGID_5_);}
	.st5{fill:url(#SVGID_6_);}
	.st6{fill:url(#SVGID_7_);}
	.st7{fill:url(#SVGID_8_);}
</style>
<g>
	<linearGradient id="SVGID_1_" gradientUnits="userSpaceOnUse" x1="0" y1="94.1782" x2="166.5342" y2="94.1782">
		<stop  offset="0" style="stop-color:#FF5C00"/>
		<stop  offset="0.9693" style="stop-color:#FF8B00"/>
	</linearGradient>
	<path class="st0" d="M131.5,174.5c-1.4,0.1-3.2-0.3-4.2,0.4c-0.9,0.6-1,2.5-1.4,3.8c-2.5,7.7-9.7,11.4-17.4,9
		c-13.6-4.2-27.2-8.4-40.8-12.5c-1.2-0.4-2.5-0.6-3.8-0.6c-10.2,0-20.4,0-30.7,0c-8,0-13.6-5.2-14-13.2c0-0.9-0.4-1.2-1.1-1.4
		c-2.8-0.8-5.5-1.7-8.3-2.5c-7.5-2.4-11.3-9.7-9-17.2c5.9-19.4,11.9-38.8,17.9-58.3c0.3-1.1,0.5-2.3,0.5-3.5c0-16.8,0-33.6,0-50.4
		c0-8.4,5.6-14.1,14-14.1c1.8,0,3.6,0.1,5.4,0c0.4,0,1-0.5,1.2-0.9c0.4-0.9,0.6-2,1-3C43.1,2.2,50.3-1.7,58,0.7
		c13.7,4.2,27.4,8.4,41.1,12.6c1.1,0.3,2.2,0.5,3.4,0.5c10.4,0,20.7,0,31.1,0c6.7,0,12,4.1,13.5,10.3c0.1,0.5,0.3,1.1,0.2,1.6
		c-0.3,2.2,1,2.8,2.8,3.3c2.2,0.5,4.4,1.3,6.6,2c7.6,2.4,11.5,9.6,9.1,17.2c-3.5,11.6-7.1,23.1-10.6,34.7c-2.5,8.1-5,16.2-7.4,24.3
		c-0.2,0.8-0.3,1.7-0.3,2.5c0,16.6-0.2,33.3,0.1,49.9c0.1,8.9-6.3,15.5-14.9,14.9C132.3,174.5,131.9,174.5,131.5,174.5
		C131.5,174.5,131.5,174.5,131.5,174.5z M25.8,94.2C25.8,94.2,25.8,94.2,25.8,94.2c0,22.1,0,44.2,0,66.2c0,4.8,2.6,7.4,7.4,7.4
		c33.3,0,66.7,0,100,0c5.1,0,7.6-2.5,7.6-7.6c0-44,0-87.9,0-131.9c0-5.3-2.5-7.8-7.8-7.8c-33.2,0-66.5,0-99.7,0
		c-5,0-7.5,2.6-7.5,7.6C25.8,50.1,25.8,72.2,25.8,94.2z M19,153.2c0-16.6,0-32.8,0-49.1c-1.1,2.7-2,5.4-2.8,8.1
		c-3,9.9-6.1,19.8-9.1,29.7c-1.1,3.6,0.3,7.2,3.5,8.5C13.3,151.6,16.1,152.3,19,153.2z M147.5,35.1c0,16.6,0,32.9,0,49.1
		c0.9-2.1,1.6-4.4,2.3-6.6c3.2-10.4,6.4-20.8,9.6-31.3c1.1-3.6-0.2-7.1-3.4-8.4C153.4,36.8,150.5,36.1,147.5,35.1z M46.6,13.7
		c10.2,0,20.2,0,30.3,0c-0.1-0.3-0.3-0.4-0.4-0.4C69.5,11.2,62.6,9,55.6,7c-0.9-0.3-2-0.3-2.9-0.2C49.3,7.3,47.5,9.4,46.6,13.7z
		 M89.6,174.6c0,0.1,0,0.2,0,0.3c0.4,0.1,0.7,0.3,1.1,0.4c6.4,2,12.8,3.8,19.1,5.9c4.8,1.7,9.4-0.9,10.1-6.6
		C109.8,174.6,99.7,174.6,89.6,174.6z"/>
	<linearGradient id="SVGID_2_" gradientUnits="userSpaceOnUse" x1="37.8155" y1="37.4806" x2="128.7164" y2="37.4806">
		<stop  offset="0" style="stop-color:#FF5C00"/>
		<stop  offset="0.9693" style="stop-color:#FF8B00"/>
	</linearGradient>
	<path class="st1" d="M83.2,40.8c-13.6,0-27.2,0-40.8,0c-0.5,0-1,0-1.5,0c-1.8-0.2-3-1.6-3-3.3c0-1.8,1.3-3.2,3.2-3.4c1-0.1,2,0,3,0
		c26.7,0,53.3,0,80,0c0.8,0,1.7,0,2.5,0.2c1.5,0.4,2.3,1.8,2.3,3.3c-0.1,1.5-1.1,2.7-2.6,3c-0.7,0.1-1.4,0.1-2.1,0.1
		C110.4,40.8,96.8,40.8,83.2,40.8z"/>
	<linearGradient id="SVGID_3_" gradientUnits="userSpaceOnUse" x1="37.8147" y1="52.1272" x2="128.7086" y2="52.1272">
		<stop  offset="0" style="stop-color:#FF5C00"/>
		<stop  offset="0.9693" style="stop-color:#FF8B00"/>
	</linearGradient>
	<path class="st2" d="M83.2,55.5c-13.6,0-27.1,0-40.7,0c-0.5,0-1.1,0-1.6,0c-1.7-0.2-3-1.4-3.1-3.1c-0.1-1.7,1.1-3.2,2.9-3.5
		c0.5-0.1,1,0,1.5,0c27.4,0,54.7,0,82.1,0c0.4,0,0.9,0,1.3,0c1.9,0.2,3.2,1.6,3.1,3.4c0,1.8-1.3,3.1-3.2,3.3c-0.7,0-1.5,0-2.2,0
		C109.9,55.5,96.5,55.5,83.2,55.5z"/>
	<linearGradient id="SVGID_4_" gradientUnits="userSpaceOnUse" x1="37.8166" y1="96.0503" x2="128.7233" y2="96.0503">
		<stop  offset="0" style="stop-color:#FF5C00"/>
		<stop  offset="0.9693" style="stop-color:#FF8B00"/>
	</linearGradient>
	<path class="st3" d="M83.2,99.4c-13.6,0-27.2,0-40.8,0c-0.5,0-1,0-1.5,0c-1.7-0.2-3-1.4-3.1-3.1c-0.1-1.7,1.1-3.2,2.8-3.5
		c0.4-0.1,0.9,0,1.3,0c27.5,0,55,0,82.5,0c0.6,0,1.3,0,1.9,0.2c1.5,0.5,2.4,1.9,2.3,3.5c-0.1,1.5-1.2,2.7-2.8,2.9
		c-0.6,0.1-1.3,0.1-1.9,0.1C110.4,99.4,96.8,99.4,83.2,99.4z"/>
	<linearGradient id="SVGID_5_" gradientUnits="userSpaceOnUse" x1="37.8146" y1="66.765" x2="128.7206" y2="66.765">
		<stop  offset="0" style="stop-color:#FF5C00"/>
		<stop  offset="0.9693" style="stop-color:#FF8B00"/>
	</linearGradient>
	<path class="st4" d="M83.1,70.1c-13.5,0-27,0-40.5,0c-0.6,0-1.2,0-1.8,0c-1.7-0.2-2.9-1.5-3-3.2c-0.1-1.7,1.2-3.2,2.9-3.4
		c0.4-0.1,0.9,0,1.3,0c27.4,0,54.8,0,82.2,0c0.7,0,1.4,0,2.1,0.2c1.5,0.4,2.5,1.8,2.3,3.4c-0.1,1.6-1.3,2.8-2.8,3
		c-0.8,0.1-1.7,0.1-2.5,0.1C109.9,70.1,96.5,70.1,83.1,70.1C83.1,70.1,83.1,70.1,83.1,70.1z"/>
	<linearGradient id="SVGID_6_" gradientUnits="userSpaceOnUse" x1="37.8079" y1="81.4053" x2="128.7143" y2="81.4053">
		<stop  offset="0" style="stop-color:#FF5C00"/>
		<stop  offset="0.9693" style="stop-color:#FF8B00"/>
	</linearGradient>
	<path class="st5" d="M83.2,84.7c-13.7,0-27.4,0-41.1,0c-0.7,0-1.5,0-2.2-0.3c-1.4-0.5-2.2-2-2-3.5c0.2-1.5,1.3-2.7,2.8-2.9
		c0.5-0.1,1,0,1.5,0c27.4,0,54.7,0,82.1,0c0,0,0.1,0,0.1,0c2.8,0,4.4,1.2,4.3,3.4c0,2.1-1.5,3.3-4.3,3.3
		C110.7,84.7,96.9,84.7,83.2,84.7z"/>
	<linearGradient id="SVGID_7_" gradientUnits="userSpaceOnUse" x1="63.6514" y1="125.8634" x2="105.5882" y2="125.8634">
		<stop  offset="0" style="stop-color:#FF5C00"/>
		<stop  offset="0.9693" style="stop-color:#FF8B00"/>
	</linearGradient>
	<path class="st6" d="M78.8,135c3.9-4.8,7.7-9.4,11.4-14.1c3.1-3.8,6.1-7.6,9.2-11.4c1.4-1.7,3.3-2,4.9-0.8c1.5,1.2,1.7,3.2,0.4,4.9
		c-7.7,9.6-15.5,19.1-23.2,28.6c-1.6,2-3.9,1.9-5.5-0.1c-3.9-4.9-7.7-9.9-11.5-14.9c-1.3-1.7-1-3.8,0.5-4.9c1.6-1.2,3.5-0.8,4.8,0.9
		C72.8,127.1,75.7,131,78.8,135z"/>
	<linearGradient id="SVGID_8_" gradientUnits="userSpaceOnUse" x1="61.7234" y1="152.8142" x2="95.5534" y2="152.8142">
		<stop  offset="0" style="stop-color:#FF5C00"/>
		<stop  offset="0.9693" style="stop-color:#FF8B00"/>
	</linearGradient>
	<path class="st7" d="M78.7,156.1c-4.4,0-8.8,0-13.1,0c-2.3,0-3.8-1.3-3.8-3.3c0-2,1.5-3.4,3.9-3.4c8.7,0,17.4,0,26.1,0
		c2.3,0,3.8,1.3,3.8,3.3c0,2.1-1.4,3.3-3.9,3.3C87.4,156.1,83,156.1,78.7,156.1z"/>
</g>
<g>
</g>
<g>
</g>
<g>
</g>
<g>
</g>
<g>
</g>
<g>
</g>
<g>
</g>
<g>
</g>
<g>
</g>
<g>
</g>
<g>
</g>
</svg>
