<?xml version="1.0" encoding="utf-8"?>
<!-- Generator: Adobe Illustrator 24.1.2, SVG Export Plug-In . SVG Version: 6.00 Build 0)  -->
<svg version="1.1" id="Camada_1" xmlns="http://www.w3.org/2000/svg" xmlns:xlink="http://www.w3.org/1999/xlink" x="0px" y="0px"
	 viewBox="0 0 38.6 30.7" style="enable-background:new 0 0 38.6 30.7;" xml:space="preserve">
<style type="text/css">
	.st0{fill:url(#SVGID_1_);}
	.st1{fill:url(#SVGID_2_);}
</style>
<g>
	<linearGradient id="SVGID_1_" gradientUnits="userSpaceOnUse" x1="0" y1="9.0422" x2="38.5983" y2="9.0422">
		<stop  offset="0" style="stop-color:#FF5C00"/>
		<stop  offset="0.9693" style="stop-color:#FF8F00"/>
	</linearGradient>
	<path class="st0" d="M0,15.4c0.2-0.2,0.3-0.4,0.5-0.6c5.6-4.7,11.2-9.3,16.8-14c1.3-1.1,2.8-1.1,4.1,0c1.7,1.5,3.5,2.9,5.2,4.4
		c0.1,0.1,0.2,0.2,0.3,0.3c0-0.2,0-0.3,0-0.4c0-1.3,0-2.7,0-4c0-0.8,0.3-1,1-1c1.4,0,2.7,0,4.1,0c0.7,0,1,0.3,1,1c0,3.1,0,6.1,0,9.2
		c0,0.3,0.1,0.5,0.3,0.6c1.6,1.3,3.1,2.6,4.7,3.9c0.6,0.5,0.7,0.9,0.1,1.5c-0.4,0.5-0.8,0.9-1.2,1.4c-0.4,0.5-0.8,0.5-1.4,0.1
		c-5.3-4.4-10.6-8.8-15.9-13.3c-0.2-0.1-0.3-0.3-0.5-0.4c-0.6,0.5-1.2,1-1.8,1.5c-4.9,4.1-9.7,8.1-14.6,12.2c-0.6,0.5-1,0.4-1.4-0.1
		C1,17,0.5,16.4,0,15.8C0,15.7,0,15.5,0,15.4z"/>
	<linearGradient id="SVGID_2_" gradientUnits="userSpaceOnUse" x1="5.5018" y1="18.478" x2="33.0975" y2="18.478">
		<stop  offset="0" style="stop-color:#FF5C00"/>
		<stop  offset="0.9693" style="stop-color:#FF8F00"/>
	</linearGradient>
	<path class="st1" d="M22.4,30.7c0-3,0-6.1,0-9.1c-2.1,0-4.1,0-6.1,0c0,3,0,6.1,0,9.2c-0.2,0-0.3,0-0.5,0c-2.8,0-5.6,0-8.4,0
		c-1.2,0-1.8-0.6-1.8-1.8c0-3.6,0-7.3,0-10.9c0-0.3,0-0.4,0.3-0.6c4.4-3.6,8.8-7.2,13.2-10.9c0.1-0.1,0.2-0.2,0.3-0.3
		c1,0.8,2,1.6,2.9,2.4c3.5,2.9,7,5.8,10.6,8.7c0.2,0.2,0.3,0.3,0.3,0.6c0,3.7,0,7.4,0,11.1c0,1-0.6,1.7-1.6,1.7c-2.9,0-5.9,0-8.8,0
		C22.6,30.7,22.5,30.7,22.4,30.7z"/>
</g>
<g>
</g>
<g>
</g>
<g>
</g>
<g>
</g>
<g>
</g>
<g>
</g>
<g>
</g>
<g>
</g>
<g>
</g>
<g>
</g>
<g>
</g>
</svg>
