<?xml version="1.0" encoding="utf-8"?>
<!-- Generator: Adobe Illustrator 24.1.2, SVG Export Plug-In . SVG Version: 6.00 Build 0)  -->
<svg version="1.1" id="Camada_1" xmlns="http://www.w3.org/2000/svg" xmlns:xlink="http://www.w3.org/1999/xlink" x="0px" y="0px"
	 viewBox="0 0 75.8 75.8" style="enable-background:new 0 0 75.8 75.8;" xml:space="preserve">
<style type="text/css">
	.st0{fill:#772580;}
</style>
<g>
	<g>
		<path class="st0" d="M0,41.4c0-2.4,0-4.9,0-7.3c0.1-0.4,0.2-0.8,0.3-1.2c2.8-16.2,12-26.7,27.7-31.6c2-0.6,4-0.9,6.1-1.3
			c2.4,0,4.9,0,7.3,0c0.5,0.1,0.9,0.2,1.4,0.3c14.9,1.9,27.5,12.8,31.6,27.3c0.6,2.2,1,4.5,1.5,6.8c0,2.3,0,4.7,0,7
			c-0.1,0.5-0.2,1-0.3,1.5c-2.4,14.5-10.3,24.7-23.9,30.2c-3.2,1.3-6.8,1.8-10.2,2.7c-2.3,0-4.7,0-7,0c-0.4-0.1-0.7-0.2-1.1-0.3
			C17,72.9,6.4,63.8,1.4,48.1C0.7,45.9,0.5,43.6,0,41.4z M38,8.3C21.8,8.2,8.4,21.5,8.3,37.8C8.2,54,21.5,67.5,37.8,67.6
			c16.3,0.1,29.6-13.2,29.8-29.5C67.7,21.8,54.4,8.4,38,8.3z"/>
		<path class="st0" d="M32.1,44.9c0-3.3-0.1-6.5,0-9.8c0-1.1,0.2-2.3,0.6-3.4c0.9-2.3,3.2-3.6,5.6-3.4c2.5,0.2,4.5,1.9,5.1,4.3
			c0.2,0.8,0.3,1.7,0.3,2.6c0,6.5,0,13,0,19.5c0,3.3-1.4,5.5-3.9,6.3c-3.8,1.3-7.4-1.3-7.6-5.6c-0.1-1.8,0-3.6,0-5.4
			C32.1,48.4,32.1,46.7,32.1,44.9z"/>
		<path class="st0" d="M38,12.5c3.5,0,6.3,2.8,6.3,6.3c0,3.5-2.9,6.4-6.5,6.3c-3.4-0.1-6.3-3-6.2-6.4C31.7,15.2,34.5,12.4,38,12.5z"
			/>
	</g>
</g>
<g>
</g>
<g>
</g>
<g>
</g>
<g>
</g>
<g>
</g>
<g>
</g>
<g>
</g>
<g>
</g>
<g>
</g>
<g>
</g>
<g>
</g>
</svg>
