<?xml version="1.0" encoding="utf-8"?>
<!-- Generator: Adobe Illustrator 24.1.2, SVG Export Plug-In . SVG Version: 6.00 Build 0)  -->
<svg version="1.1" id="Camada_1" xmlns="http://www.w3.org/2000/svg" xmlns:xlink="http://www.w3.org/1999/xlink" x="0px" y="0px"
	 viewBox="0 0 186.7 162.1" style="enable-background:new 0 0 186.7 162.1;" xml:space="preserve">
<style type="text/css">
	.st0{fill:url(#SVGID_1_);}
	.st1{fill:url(#SVGID_2_);}
	.st2{fill:url(#SVGID_3_);}
</style>
<g>
	<linearGradient id="SVGID_1_" gradientUnits="userSpaceOnUse" x1="-9.094947e-13" y1="81.038" x2="186.6785" y2="81.038">
		<stop  offset="8.379889e-03" style="stop-color:#7A1687"/>
		<stop  offset="1" style="stop-color:#851687"/>
	</linearGradient>
	<path class="st0" d="M60.9,20.9c0-3,0-5.7,0-8.4C60.9,5,65.8,0.1,73.2,0c13.4,0,26.8,0,40.3,0c7.3,0,12.2,5,12.3,12.3
		c0,2.8,0,5.5,0,8.6c0.9,0,1.7,0,2.5,0c12.3,0,24.6,0,36.9,0c12.1,0.1,21.3,8.9,21.4,21c0.1,28.9,0.2,57.7,0,86.6
		c-0.1,12-9.3,20.8-21.3,20.9c-1.7,0-3.3,0.1-5,0c-1.1,0-1.6,0.3-1.5,1.5c0.1,1,0,2.1,0,3.1c-0.2,4.3-3.6,7.8-8,7.9
		c-4.8,0.1-9.6,0.1-14.4,0c-4.5-0.1-7.9-3.7-8.1-8.2c-0.1-4.3-0.1-4.3-4.4-4.3c-21.1,0-42.2,0-63.3,0c-1.9,0-2.4,0.5-2.4,2.4
		c0.1,5.5-1.8,8.6-5.9,9.9c-0.9,0.3-1.9,0.4-2.9,0.4c-4.2,0-8.5,0.1-12.7,0c-5.4-0.1-8.8-3.5-8.9-8.9c0-3.6,0-3.7-3.7-3.6
		c-5.4,0.2-10.5-0.5-14.9-3.7c-6-4.3-9.1-10.2-9.1-17.6C0,99.8,0.1,71.4,0,43c-0.1-11.8,7.9-19.9,16.8-21.6c2.3-0.5,4.8-0.5,7.2-0.5
		c11.6,0,23.1,0,34.7,0C59.3,20.9,60,20.9,60.9,20.9z M93.4,142.1c23.8,0,47.5-0.1,71.3,0.1c7.9,0.1,14.7-6,14.6-14.6
		c-0.1-28.3,0-56.5-0.1-84.8c0-8.7-5.8-14.5-14.5-14.5c-47.6,0-95.3,0-142.9,0c-8.6,0-14.4,5.8-14.4,14.4c0,28.4,0,56.8,0,85.1
		c0,8.5,5.7,14.2,14.3,14.2C45.6,142.1,69.5,142.1,93.4,142.1z M118.4,20.9c0-3,0.1-5.9,0-8.7c-0.1-3.2-1.8-4.8-5-4.8
		c-13.3,0-26.7,0-40,0c-3.3,0-5,1.6-5,5c0,2.3,0.1,4.6,0,6.8c-0.1,1.4,0.5,1.7,1.8,1.7c15.4-0.1,30.9,0,46.3,0
		C117,20.9,117.6,20.9,118.4,20.9z M50.8,149.6c-5.2,0-10.3,0-15.6,0c0,1.1,0.1,2.1,0,3c-0.1,1.5,0.6,2.1,2.1,2c3.1-0.1,6.3,0,9.4,0
		C51.4,154.6,51.5,154.6,50.8,149.6z M151.3,149.6c-5.1,0-10.2,0-15.5,0c0,1,0.1,2,0,2.9c-0.2,1.8,0.6,2.2,2.3,2.2
		c3.1-0.1,6.3,0,9.4,0c4.4,0,4.4,0,4.1-4.4C151.4,150.1,151.3,149.9,151.3,149.6z"/>
	<linearGradient id="SVGID_2_" gradientUnits="userSpaceOnUse" x1="56.038" y1="85.2094" x2="130.6267" y2="85.2094">
		<stop  offset="8.379889e-03" style="stop-color:#7A1687"/>
		<stop  offset="1" style="stop-color:#851687"/>
	</linearGradient>
	<path class="st1" d="M93.4,47.9c20.6,0,37.3,16.8,37.2,37.7c0,20.3-17,37-37.4,36.9C72.7,122.4,56,105.7,56,85.1
		C56.1,64.7,72.9,47.9,93.4,47.9z M93.3,55.3c-16.4,0-29.8,13.5-29.8,29.9c0,16.5,13.4,29.9,30,29.9c16.5,0,29.9-13.5,29.8-30
		C123.2,68.7,109.6,55.3,93.3,55.3z"/>
	<linearGradient id="SVGID_3_" gradientUnits="userSpaceOnUse" x1="72.3907" y1="85.2442" x2="114.2706" y2="85.2442">
		<stop  offset="8.379889e-03" style="stop-color:#7A1687"/>
		<stop  offset="1" style="stop-color:#851687"/>
	</linearGradient>
	<path class="st2" d="M89.6,88.9c-4.6,0-8.9,0-13.3,0c-2.9,0-4.7-2.5-3.7-5c0.7-1.8,2.2-2.4,4-2.4c4.2,0,8.5,0,13,0
		c0-1.7,0-3.3,0-4.8c0-2.6,0-5.2,0-7.8c0-3,1.3-4.5,3.6-4.6c2.4,0,3.7,1.6,3.7,4.6c0,3.5,0,7,0,10.5c0,0.6,0,1.2,0,2
		c3.6,0,6.9,0,10.3,0c1,0,2,0,3,0c2.4,0.1,4,1.6,4,3.7c0,2.1-1.6,3.6-4,3.6c-2.2,0-4.3,0-6.5,0c-2.1,0-4.3,0-6.6,0
		c0,0.7-0.1,1.3-0.1,1.8c0,3.6,0,7.1,0,10.7c0,3-1.4,4.7-3.7,4.7c-2.3,0-3.6-1.7-3.7-4.8C89.6,97.3,89.6,93.3,89.6,88.9z"/>
</g>
<g>
</g>
<g>
</g>
<g>
</g>
<g>
</g>
<g>
</g>
<g>
</g>
<g>
</g>
<g>
</g>
<g>
</g>
<g>
</g>
<g>
</g>
</svg>
