<?xml version="1.0" encoding="utf-8"?>
<!-- Generator: Adobe Illustrator 24.1.2, SVG Export Plug-In . SVG Version: 6.00 Build 0)  -->
<svg version="1.1" id="Camada_1" xmlns="http://www.w3.org/2000/svg" xmlns:xlink="http://www.w3.org/1999/xlink" x="0px" y="0px"
	 viewBox="0 0 38.9 29" style="enable-background:new 0 0 38.9 29;" xml:space="preserve">
<style type="text/css">
	.st0{fill:url(#SVGID_1_);}
	.st1{fill:url(#SVGID_2_);}
	.st2{fill:url(#SVGID_3_);}
</style>
<g>
	<linearGradient id="SVGID_1_" gradientUnits="userSpaceOnUse" x1="0" y1="12.3914" x2="38.9233" y2="12.3914">
		<stop  offset="0" style="stop-color:#FF5C00"/>
		<stop  offset="0.9693" style="stop-color:#FF8F00"/>
	</linearGradient>
	<path class="st0" d="M19.5,0c5.4,0,10.9,0,16.3,0c2,0,3.1,1.1,3.1,3.1c0,6.1,0,12.2,0,18.3c0,0.2,0,0.5,0,0.7
		c-0.1,1.6-1.2,2.7-2.8,2.7c-11.1,0-22.2,0-33.4,0C1.2,24.8,0,23.6,0,22C0,15.6,0,9.2,0,2.8C0,1.2,1.2,0,2.8,0C8.4,0,13.9,0,19.5,0
		C19.5,0,19.5,0,19.5,0z M19.5,22.6c5.5,0,10.9,0,16.4,0c0.7,0,0.9-0.1,0.9-0.8c0-6.2,0-12.4,0-18.7c0-0.7-0.1-0.9-0.9-0.9
		c-10.9,0-21.8,0-32.7,0c-0.7,0-0.9,0.1-0.9,0.9c0,6.2,0,12.3,0,18.5c0,0.9,0.1,1,1,1C8.7,22.6,14.1,22.6,19.5,22.6z"/>
	<linearGradient id="SVGID_2_" gradientUnits="userSpaceOnUse" x1="12.6931" y1="27.3381" x2="26.1652" y2="27.3381">
		<stop  offset="0" style="stop-color:#FF5C00"/>
		<stop  offset="0.9693" style="stop-color:#FF8F00"/>
	</linearGradient>
	<path class="st1" d="M19.5,29c-1.9,0-3.8,0-5.7,0c-0.4,0-0.8,0-1-0.5c-0.2-0.4,0-0.7,0.3-1.1c1.4-1.9,1.4-1.9,3.7-1.8
		c2.2,0,4.3,0,6.5,0c0.9,0,1.6,0.2,2.1,1.1c0.2,0.3,0.5,0.6,0.7,0.9c0.1,0.3,0.2,0.7,0.1,0.9C26,28.8,25.6,29,25.3,29
		C23.3,29,21.4,29,19.5,29z"/>
	<linearGradient id="SVGID_3_" gradientUnits="userSpaceOnUse" x1="15.9384" y1="12.5739" x2="23.069" y2="12.5739">
		<stop  offset="0" style="stop-color:#FF5C00"/>
		<stop  offset="0.9693" style="stop-color:#FF8F00"/>
	</linearGradient>
	<path class="st2" d="M19.8,13.9c-0.4,0.6-0.8,1.1-1.2,1.6c-0.1,0.1-0.3,0.3-0.5,0.3c-0.1,0-0.2-0.2-0.3-0.4
		c-0.6-2.1-1.3-4.1-1.9-6.2c0-0.1,0-0.4,0.1-0.5c0.1-0.1,0.4-0.1,0.5,0c2,0.8,3.9,1.7,5.9,2.5c0.2,0.1,0.4,0.2,0.4,0.4
		c0,0.1-0.2,0.3-0.3,0.4c-0.5,0.3-1.1,0.6-1.7,1c0.7,0.8,1.4,1.6,2.1,2.3c0.3,0.3,0.4,0.7,0.1,1c-0.4,0.3-0.7,0.2-1-0.1
		C21.2,15.4,20.5,14.7,19.8,13.9z"/>
</g>
<g>
</g>
<g>
</g>
<g>
</g>
<g>
</g>
<g>
</g>
<g>
</g>
<g>
</g>
<g>
</g>
<g>
</g>
<g>
</g>
<g>
</g>
</svg>
