<?xml version="1.0" encoding="utf-8"?>
<!-- Generator: Adobe Illustrator 24.1.2, SVG Export Plug-In . SVG Version: 6.00 Build 0)  -->
<svg version="1.1" id="Camada_1" xmlns="http://www.w3.org/2000/svg" xmlns:xlink="http://www.w3.org/1999/xlink" x="0px" y="0px"
	 viewBox="0 0 30.3 30.4" style="enable-background:new 0 0 30.3 30.4;" xml:space="preserve">
<style type="text/css">
	.st0{fill:#FFFFFF;}
</style>
<g>
	<path class="st0" d="M6.2,8.5c1.5-0.3,2.6,0.4,3.6,1.4c1.2,1.3,2.5,2.5,3.8,3.8c1.1,1.1,2.3,1.1,3.4,0c1.4-1.4,2.9-2.8,4.3-4.3
		c1.2-1.3,2.7-1,4.2-1c0.1,0,0.3,0.2,0.4,0.3c1,1,2,2,3,3c1.9,1.9,1.9,4.7,0,6.6c-1,1-2,2-3,3c-0.3,0.3-0.5,0.4-0.9,0.4
		c-0.4,0-0.9,0-1.3,0c-0.9,0-1.7-0.3-2.4-1c-1.4-1.4-2.8-2.8-4.2-4.2c-1.2-1.2-2.4-1.1-3.5,0c-1.3,1.3-2.7,2.6-3.9,4
		c-0.8,0.9-1.8,1.2-3.1,1.3c-1.3,0.1-2.3-0.3-3.1-1.3c-0.6-0.8-1.4-1.4-2.1-2.1c-1.8-1.9-1.8-4.7,0-6.6c0.8-0.8,1.6-1.5,2.3-2.3
		C4.4,8.7,5.1,8.2,6.2,8.5z"/>
	<path class="st0" d="M24.2,7.1C22.3,7,21,7.8,19.9,9c-1.2,1.3-2.5,2.5-3.7,3.7c-0.7,0.7-1,0.6-1.7,0c-1.2-1.2-2.5-2.4-3.6-3.6
		c-1.2-1.3-2.7-2.2-4.6-2C6.2,6.9,6.4,6.8,6.6,6.7c1.7-1.8,3.5-3.5,5.2-5.2c1.9-1.9,4.7-2,6.6-0.1C20.3,3.2,22.2,5.1,24.2,7.1z"/>
	<path class="st0" d="M6.3,23.2c2,0.3,3.4-0.6,4.6-2c1.2-1.3,2.4-2.4,3.6-3.6c0.6-0.6,1-0.6,1.7,0c1.1,1.1,2.3,2.2,3.4,3.4
		c1.2,1.3,2.5,2.4,4.5,2.2c-2,2-3.9,4.1-6,6c-1.7,1.5-4.2,1.6-5.9,0C10.2,27.3,8.3,25.2,6.3,23.2z"/>
</g>
<g>
</g>
<g>
</g>
<g>
</g>
<g>
</g>
<g>
</g>
<g>
</g>
<g>
</g>
<g>
</g>
<g>
</g>
<g>
</g>
<g>
</g>
</svg>
