<?xml version="1.0" encoding="utf-8"?>
<!-- Generator: Adobe Illustrator 24.1.2, SVG Export Plug-In . SVG Version: 6.00 Build 0)  -->
<svg version="1.1" id="Camada_1" xmlns="http://www.w3.org/2000/svg" xmlns:xlink="http://www.w3.org/1999/xlink" x="0px" y="0px"
	 viewBox="0 0 153.3 110.5" style="enable-background:new 0 0 153.3 110.5;" xml:space="preserve">
<style type="text/css">
	.st0{fill:url(#SVGID_1_);}
	.st1{fill:url(#SVGID_2_);}
	.st2{fill:url(#SVGID_3_);}
	.st3{fill:url(#SVGID_4_);}
	.st4{fill:url(#SVGID_5_);}
	.st5{fill:url(#SVGID_6_);}
	.st6{fill:url(#SVGID_7_);}
	.st7{fill:url(#SVGID_8_);}
	.st8{fill:url(#SVGID_9_);}
	.st9{fill:url(#SVGID_10_);}
	.st10{fill:url(#SVGID_11_);}
	.st11{fill:url(#SVGID_12_);}
	.st12{fill:url(#SVGID_13_);}
	.st13{fill:url(#SVGID_14_);}
	.st14{fill:url(#SVGID_15_);}
	.st15{fill:url(#SVGID_16_);}
	.st16{fill:url(#SVGID_17_);}
	.st17{fill:url(#SVGID_18_);}
</style>
<g>
	<linearGradient id="SVGID_1_" gradientUnits="userSpaceOnUse" x1="0" y1="55.2727" x2="139.6553" y2="55.2727">
		<stop  offset="0" style="stop-color:#FF5C00"/>
		<stop  offset="0.9693" style="stop-color:#FF8F00"/>
	</linearGradient>
	<path class="st0" d="M69.8,8.9c4.6-4.2,9.9-7,15.9-8.2C87.8,0.3,90,0.1,92.1,0c11.2-0.1,22.5,0,33.7,0c2.1,0,2.8,0.7,2.8,2.9
		c0,0.7,0,1.4,0,2.3c0.9,0,1.7,0,2.6,0c1.9,0,3.9,0,5.8,0c1.8,0,2.6,0.8,2.6,2.6c0,9.9,0,19.9,0,29.8c0,1.7-0.8,2.6-2.2,2.7
		c-1.4,0-2.2-1-2.2-2.6c0-8.8,0-17.7,0-26.5c0-0.4,0-0.9,0-1.4c-2.2,0-4.3,0-6.6,0c0,0.4-0.1,0.8-0.1,1.3c0,9.1,0,18.2,0,27.4
		c0,0.5,0,1-0.1,1.4c-0.3,1-1.2,1.7-2.3,1.5c-1.1-0.1-1.8-0.8-1.9-1.9c-0.1-0.4,0-0.9,0-1.3c0-10.7,0-21.4,0-32.1c0-0.4,0-0.9,0-1.4
		c-0.5,0-1-0.1-1.4-0.1c-10.3,0-20.5,0-30.8,0c-7.3,0-13.7,2.7-19.1,7.5c-0.7,0.6-1,1.2-1,2.2c0,19.6,0,39.3,0,58.9
		c0,0.4,0,0.7,0,1.1c-0.2,1.1-1,1.9-2.2,1.9c-1.1,0-2-0.8-2.2-1.9c-0.1-0.5,0-1.1,0-1.6c0-19.4,0-38.8,0-58.3c0-1-0.3-1.7-1.1-2.4
		C61.1,7,54.7,4.4,47.3,4.4c-10.2,0-20.4,0-30.5,0c-0.4,0-0.8,0-1.3,0c0,29.4,0,58.8,0,88.3c0.4,0,0.9,0.1,1.4,0.1
		c9.7,0,19.4,0.1,29.1,0c8.9-0.1,16.7,2.5,23.4,8.5c0.1,0.1,0.3,0.2,0.3,0.2c2.4-1.6,4.6-3.3,7.1-4.7c4.9-2.7,10.2-4,15.7-4
		c1.3,0,2.7,0,4,0c1.4,0,2.3,1,2.3,2.2c0,1.2-1,2.1-2.3,2.1c-3.3,0.2-6.7,0.2-9.9,0.7c-4.5,0.7-8.4,2.8-12,5.6
		c-0.3,0.2-0.6,0.4-1,0.7c2.8,1.2,5.2,2.1,8,2.1c17.5-0.1,34.9-0.1,52.4-0.1c0.4,0,0.8,0,1.3-0.1c0-0.6,0-1.2,0-1.7
		c0.1-1.3,1-2.1,2.2-2.1c1.2,0,2.1,0.8,2.1,2.1c0.1,1.4,0.1,2.8,0,4.1c-0.1,1.2-0.9,2-2.1,2.1c-0.4,0-0.9,0-1.3,0
		c-19.1,0-38.1,0-57.2,0c-1.1,0-2.2-0.3-3.1-0.7c-2.5-1-4.9-2.1-7.6-1.5c-1.6,0.4-3.2,1.1-4.8,1.7c-0.8,0.3-1.6,0.5-2.5,0.5
		c-19.3,0-38.6,0-57.9,0c-2.5,0-3.1-0.6-3.1-3.1c0-33,0-65.9,0-98.9c0-2.9,0.5-3.4,3.5-3.4c2.4,0,4.9,0,7.5,0c0-0.9,0-1.7,0-2.6
		C11,0.8,11.8,0,13.6,0C25,0,36.5,0,47.9,0c7.6,0.1,14.3,2.7,20.3,7.4C68.7,7.9,69.2,8.3,69.8,8.9z M65.9,104.3
		c-0.1-0.2-0.1-0.2-0.1-0.3c-0.2-0.2-0.5-0.4-0.7-0.6c-5.3-4.2-11.4-6.2-18.2-6.2c-11.1,0-22.1,0-33.2,0c-1.8,0-2.6-0.7-2.6-2.6
		c0-0.2,0-0.4,0-0.6c0-27.6,0-55.2,0-82.8c0-0.5,0-1,0-1.5c-2.3,0-4.4,0-6.5,0c0,32.2,0,64.3,0,96.5c0.5,0,1,0,1.4,0
		c16.8,0,33.6-0.1,50.4,0c3.3,0,6.5-0.2,9.5-1.8C65.7,104.4,65.8,104.3,65.9,104.3z"/>
	<linearGradient id="SVGID_2_" gradientUnits="userSpaceOnUse" x1="98.527" y1="72.3363" x2="153.2623" y2="72.3363">
		<stop  offset="0" style="stop-color:#FF5C00"/>
		<stop  offset="0.9693" style="stop-color:#FF8F00"/>
	</linearGradient>
	<path class="st1" d="M125.9,99.7c-3.6,0-7.2,0-10.8,0c-9.4-0.1-16.4-7-16.5-16.4c-0.1-7.3-0.1-14.7,0-22
		c0.1-9.4,7.2-16.3,16.6-16.3c7.2,0,14.3,0,21.5,0c9.5,0,16.6,7.1,16.6,16.5c0,7.2,0,14.4,0,21.6c0,9.2-7,16.4-16.3,16.5
		C133.3,99.7,129.6,99.7,125.9,99.7z M126,49.4C126,49.4,126,49.4,126,49.4c-3.6,0-7.2,0-10.8,0c-7.1,0.1-12.2,5.2-12.2,12.2
		c0,7.1,0,14.3,0,21.4c0,7.1,5.1,12.2,12.3,12.3c7.1,0,14.3,0,21.4,0c7.1,0,12.2-5.1,12.2-12.2c0-7.2,0-14.3,0-21.5
		c0-7-5.1-12.2-12.1-12.2C133.2,49.3,129.6,49.4,126,49.4z"/>
	<linearGradient id="SVGID_3_" gradientUnits="userSpaceOnUse" x1="22.8312" y1="37.5323" x2="54.6084" y2="37.5323">
		<stop  offset="0" style="stop-color:#FF5C00"/>
		<stop  offset="0.9693" style="stop-color:#FF8F00"/>
	</linearGradient>
	<path class="st2" d="M38.8,39.7c-4.4,0-8.8,0-13.2,0c-1.8,0-2.7-0.8-2.7-2.2c0-1.4,1-2.1,2.7-2.1c8.8,0,17.6,0,26.4,0
		c1,0,1.9,0.2,2.5,1.2c0.8,1.5-0.3,3.2-2.1,3.2c-3.6,0-7.1,0-10.7,0C40.6,39.7,39.7,39.7,38.8,39.7z"/>
	<linearGradient id="SVGID_4_" gradientUnits="userSpaceOnUse" x1="22.8315" y1="15.4684" x2="54.454" y2="15.4684">
		<stop  offset="0" style="stop-color:#FF5C00"/>
		<stop  offset="0.9693" style="stop-color:#FF8F00"/>
	</linearGradient>
	<path class="st3" d="M38.6,17.6c-4.4,0-8.7,0-13.1,0c-1.7,0-2.6-0.7-2.7-2.1c0-1.4,0.9-2.2,2.6-2.2c8.8,0,17.7,0,26.5,0
		c1,0,2,0.1,2.3,1.1c0.2,0.6,0.3,1.7-0.1,2.1c-0.4,0.6-1.4,1-2.1,1C47.6,17.7,43.1,17.6,38.6,17.6z"/>
	<linearGradient id="SVGID_5_" gradientUnits="userSpaceOnUse" x1="85.0367" y1="37.5307" x2="116.6359" y2="37.5307">
		<stop  offset="0" style="stop-color:#FF5C00"/>
		<stop  offset="0.9693" style="stop-color:#FF8F00"/>
	</linearGradient>
	<path class="st4" d="M100.9,39.7c-4.5,0-9,0-13.5,0c-1.7,0-2.7-1.2-2.3-2.7c0.2-1.1,1.1-1.7,2.5-1.7c3.4,0,6.9,0,10.3,0
		c5.4,0,10.8,0,16.2,0c0.7,0,1.7,0.2,2.1,0.7c0.4,0.6,0.6,1.6,0.5,2.3c-0.2,1-1.2,1.4-2.2,1.4C109.9,39.7,105.4,39.7,100.9,39.7
		C100.9,39.7,100.9,39.7,100.9,39.7z"/>
	<linearGradient id="SVGID_6_" gradientUnits="userSpaceOnUse" x1="22.8337" y1="70.6304" x2="54.5735" y2="70.6304">
		<stop  offset="0" style="stop-color:#FF5C00"/>
		<stop  offset="0.9693" style="stop-color:#FF8F00"/>
	</linearGradient>
	<path class="st5" d="M38.7,72.8c-4.4,0-8.7,0-13.1,0c-1.8,0-2.7-0.8-2.7-2.2c0-1.4,1-2.2,2.7-2.2c8.8,0,17.7,0,26.5,0
		c1.7,0,2.6,0.8,2.6,2.2c0,1.3-0.9,2.1-2.4,2.1C47.7,72.8,43.2,72.8,38.7,72.8z"/>
	<linearGradient id="SVGID_7_" gradientUnits="userSpaceOnUse" x1="22.833" y1="26.5153" x2="54.5736" y2="26.5153">
		<stop  offset="0" style="stop-color:#FF5C00"/>
		<stop  offset="0.9693" style="stop-color:#FF8F00"/>
	</linearGradient>
	<path class="st6" d="M38.8,24.3c4.3,0,8.5,0,12.8,0c0.4,0,0.8,0,1.2,0c1,0.2,1.7,0.8,1.8,1.8c0.1,1.1-0.3,1.9-1.4,2.3
		c-0.4,0.2-0.9,0.2-1.3,0.2c-8.8,0-17.6,0-26.4,0c-0.2,0-0.5,0-0.7,0c-1.2-0.2-2-1.1-1.9-2.2c0-1.2,0.9-2,2.1-2.1
		c1.3-0.1,2.6,0,3.9,0C32.1,24.3,35.5,24.3,38.8,24.3z"/>
	<linearGradient id="SVGID_8_" gradientUnits="userSpaceOnUse" x1="85.0363" y1="26.5173" x2="116.8112" y2="26.5173">
		<stop  offset="0" style="stop-color:#FF5C00"/>
		<stop  offset="0.9693" style="stop-color:#FF8F00"/>
	</linearGradient>
	<path class="st7" d="M101.1,24.3c4.4,0,8.8,0,13.2,0c1.7,0,2.8,1.2,2.4,2.7c-0.3,1.1-1.1,1.7-2.3,1.7c-9,0-18.1,0-27.1,0
		c-1.5,0-2.4-0.9-2.4-2.2c0-1.3,0.9-2.1,2.4-2.1C92,24.3,96.5,24.3,101.1,24.3z"/>
	<linearGradient id="SVGID_9_" gradientUnits="userSpaceOnUse" x1="22.8302" y1="48.5696" x2="54.5804" y2="48.5696">
		<stop  offset="0" style="stop-color:#FF5C00"/>
		<stop  offset="0.9693" style="stop-color:#FF8F00"/>
	</linearGradient>
	<path class="st8" d="M38.7,50.8c-4.5,0-8.9,0-13.4,0c-1.5,0-2.4-0.7-2.5-1.9c-0.1-1.3,0.7-2.3,2-2.4c0.6-0.1,1.3,0,1.9,0
		c8.2,0,16.4,0,24.5,0c0.4,0,0.9,0,1.3,0c1.1,0.2,1.9,1.1,1.9,2.2c0,1.1-0.8,2-1.9,2.1c-1,0.1-2,0-3,0C46,50.8,42.3,50.8,38.7,50.8z
		"/>
	<linearGradient id="SVGID_10_" gradientUnits="userSpaceOnUse" x1="22.9761" y1="59.6195" x2="54.577" y2="59.6195">
		<stop  offset="0" style="stop-color:#FF5C00"/>
		<stop  offset="0.9693" style="stop-color:#FF8F00"/>
	</linearGradient>
	<path class="st9" d="M38.7,57.4c4.4,0,8.8,0,13.2,0c1.7,0,2.6,0.8,2.7,2.1c0,1.4-0.9,2.2-2.6,2.2c-8.9,0-17.7,0-26.6,0
		c-1.1,0-2.1-0.3-2.4-1.5c-0.1-0.7,0.1-1.7,0.6-2.3c0.3-0.4,1.2-0.6,1.9-0.6C29.8,57.4,34.3,57.4,38.7,57.4z"/>
	<linearGradient id="SVGID_11_" gradientUnits="userSpaceOnUse" x1="85.0376" y1="15.4672" x2="116.8151" y2="15.4672">
		<stop  offset="0" style="stop-color:#FF5C00"/>
		<stop  offset="0.9693" style="stop-color:#FF8F00"/>
	</linearGradient>
	<path class="st10" d="M100.9,17.6c-4.5,0-8.9,0-13.4,0c-1.7,0-2.7-1.1-2.4-2.6c0.2-1.2,1-1.8,2.5-1.8c4.8,0,9.6,0,14.3,0
		c4.1,0,8.2,0,12.3,0c1,0,1.9,0.2,2.3,1.2c0.8,1.5-0.2,3.1-2.1,3.2c-3.5,0-7,0-10.6,0C102.9,17.6,101.9,17.6,100.9,17.6z"/>
	<linearGradient id="SVGID_12_" gradientUnits="userSpaceOnUse" x1="22.8207" y1="81.6682" x2="54.5796" y2="81.6682">
		<stop  offset="0" style="stop-color:#FF5C00"/>
		<stop  offset="0.9693" style="stop-color:#FF8F00"/>
	</linearGradient>
	<path class="st11" d="M38.7,83.9c-4.5,0-8.9,0-13.4,0c-1.4,0-2.2-0.6-2.5-1.7c-0.3-1.3,0.5-2.5,1.8-2.6c0.4-0.1,0.8,0,1.2,0
		c8.5,0,17,0,25.5,0c2.1,0,3.1,0.7,3.1,2.2c0,1.5-1,2.2-3.1,2.2C47.2,83.9,43,83.9,38.7,83.9z"/>
	<linearGradient id="SVGID_13_" gradientUnits="userSpaceOnUse" x1="85.0418" y1="48.5734" x2="97.4976" y2="48.5734">
		<stop  offset="0" style="stop-color:#FF5C00"/>
		<stop  offset="0.9693" style="stop-color:#FF8F00"/>
	</linearGradient>
	<path class="st12" d="M91.2,50.7c-1.3,0-2.5,0-3.8,0c-1.5,0-2.4-0.9-2.4-2.2c0-1.3,0.9-2.1,2.3-2.1c2.6,0,5.2,0,7.8,0
		c1.5,0,2.4,0.9,2.4,2.2c0,1.2-0.9,2.1-2.3,2.1C93.8,50.8,92.5,50.8,91.2,50.7C91.2,50.8,91.2,50.8,91.2,50.7z"/>
	<linearGradient id="SVGID_14_" gradientUnits="userSpaceOnUse" x1="67.6144" y1="87.4428" x2="72.0078" y2="87.4428">
		<stop  offset="0" style="stop-color:#FF5C00"/>
		<stop  offset="0.9693" style="stop-color:#FF8F00"/>
	</linearGradient>
	<path class="st13" d="M72,87.4c0,1.2,0,2.4,0,3.6c0,1.4-1,2.4-2.2,2.4c-1.2,0-2.1-1-2.1-2.4c0-2.4,0-4.9,0-7.3
		c0-1.4,0.9-2.3,2.2-2.3c1.3,0,2.1,0.9,2.2,2.3c0,0.6,0,1.2,0,1.8C72,86.2,72,86.8,72,87.4z"/>
	<linearGradient id="SVGID_15_" gradientUnits="userSpaceOnUse" x1="85.0308" y1="70.6236" x2="94.7148" y2="70.6236">
		<stop  offset="0" style="stop-color:#FF5C00"/>
		<stop  offset="0.9693" style="stop-color:#FF8F00"/>
	</linearGradient>
	<path class="st14" d="M89.8,72.8c-0.8,0-1.7,0-2.5,0c-1.3,0-2.2-0.9-2.2-2.1c0-1.2,0.8-2.2,2.1-2.2c1.9-0.1,3.7-0.1,5.6,0
		c1.2,0,2,1,2,2.2c0,1.2-0.8,2.1-2.1,2.2c-0.1,0-0.2,0-0.2,0C91.5,72.8,90.6,72.8,89.8,72.8z"/>
	<linearGradient id="SVGID_16_" gradientUnits="userSpaceOnUse" x1="85.0409" y1="59.6295" x2="94.7138" y2="59.6295">
		<stop  offset="0" style="stop-color:#FF5C00"/>
		<stop  offset="0.9693" style="stop-color:#FF8F00"/>
	</linearGradient>
	<path class="st15" d="M89.9,57.4c0.9,0,1.8,0,2.7,0c1.2,0,2.1,0.9,2.1,2.1c0.1,1.2-0.8,2.2-2,2.3c-1.9,0.1-3.7,0.1-5.6,0
		c-1.3,0-2.1-1-2.1-2.2c0-1.2,0.9-2,2.2-2.1C88.1,57.4,89,57.4,89.9,57.4z"/>
	<linearGradient id="SVGID_17_" gradientUnits="userSpaceOnUse" x1="85.0306" y1="81.6656" x2="94.7167" y2="81.6656">
		<stop  offset="0" style="stop-color:#FF5C00"/>
		<stop  offset="0.9693" style="stop-color:#FF8F00"/>
	</linearGradient>
	<path class="st16" d="M89.7,83.8c-0.8,0-1.7,0-2.5,0c-1.3-0.1-2.1-1-2.1-2.2c0-1.1,0.8-2.1,2.1-2.1c1.9-0.1,3.7-0.1,5.6,0
		c1.3,0.1,2.1,1,2.1,2.2c0,1.2-0.9,2-2.1,2.1C91.6,83.9,90.7,83.8,89.7,83.8z"/>
	<linearGradient id="SVGID_18_" gradientUnits="userSpaceOnUse" x1="108.6918" y1="72.3393" x2="145.8847" y2="72.3393">
		<stop  offset="0" style="stop-color:#FF5C00"/>
		<stop  offset="0.9693" style="stop-color:#FF8F00"/>
	</linearGradient>
	<path class="st17" d="M116.5,69.7c0-1.5,0-2.9,0-4.3c0-2.7,0-5.4,0-8.1c0-1.6,0.8-2.5,2.1-2.6c1.4,0,2.2,0.9,2.2,2.6
		c0,4.5,0,9.1,0,13.6c0,2.5-0.6,3.1-3,3.1c-0.4,0-0.7,0-1.2,0.3c3.6,3.4,7.1,6.9,10.7,10.4c3.6-3.5,7.2-6.9,11-10.6
		c-1.1,0-1.7,0-2.4,0c-1.3-0.1-2.1-0.9-2.1-2.2c0-5,0-10,0-15c0-1.4,1-2.2,2.2-2.2c1.2,0,2.1,0.9,2.1,2.3c0,3.7,0,7.5,0,11.2
		c0,0.4,0,0.9,0,1.4c1.8,0,3.4,0,5,0c1.1,0,2.1,0.2,2.6,1.4c0.5,1.2-0.1,2-0.9,2.8c-5.3,5.1-10.5,10.1-15.8,15.2
		c-1.2,1.2-2.4,1.2-3.6,0c-5.3-5.1-10.6-10.2-15.8-15.3c-0.8-0.8-1.2-1.7-0.7-2.7c0.4-1,1.3-1.3,2.4-1.3
		C112.9,69.7,114.6,69.7,116.5,69.7z"/>
</g>
<g>
</g>
<g>
</g>
<g>
</g>
<g>
</g>
<g>
</g>
<g>
</g>
<g>
</g>
<g>
</g>
<g>
</g>
<g>
</g>
<g>
</g>
</svg>
