<?xml version="1.0" encoding="utf-8"?>
<!-- Generator: Adobe Illustrator 24.1.2, SVG Export Plug-In . SVG Version: 6.00 Build 0)  -->
<svg version="1.1" id="Camada_1" xmlns="http://www.w3.org/2000/svg" xmlns:xlink="http://www.w3.org/1999/xlink" x="0px" y="0px"
	 viewBox="0 0 32.7 21.4" style="enable-background:new 0 0 32.7 21.4;" xml:space="preserve">
<style type="text/css">
	.st0{fill:#FFFFFF;}
</style>
<g>
	<path class="st0" d="M20.1,0c3.6,0,7.2,0,10.7,0c1.3,0,1.8,0.4,1.8,1.3c0,1,0,2.1,0,3.1c0,0.8-0.6,1.2-1.6,1.2
		c-7.2,0-14.5,0-21.7,0c-1.1,0-1.7-0.4-1.7-1.3c0-1,0-2.1,0-3.1C7.6,0.4,8.2,0,9.3,0C12.9,0,16.5,0,20.1,0z"/>
	<path class="st0" d="M20.1,7.4c3.6,0,7.2,0,10.7,0c1.3,0,1.8,0.4,1.8,1.3c0,1,0,2.1,0,3.1c0,0.8-0.6,1.2-1.6,1.2
		c-7.2,0-14.5,0-21.7,0c-1.1,0-1.7-0.4-1.7-1.3c0-1,0-2.1,0-3.1c0-0.9,0.5-1.3,1.7-1.3C12.9,7.4,16.5,7.4,20.1,7.4z"/>
	<path class="st0" d="M20.1,15.8c3.6,0,7.2,0,10.7,0c1.3,0,1.8,0.4,1.8,1.3c0,1,0,2.1,0,3.1c0,0.8-0.6,1.2-1.6,1.2
		c-7.2,0-14.5,0-21.7,0c-1.1,0-1.7-0.4-1.7-1.3c0-1,0-2.1,0-3.1c0-0.9,0.5-1.3,1.7-1.3C12.9,15.8,16.5,15.8,20.1,15.8z"/>
	<circle class="st0" cx="2.6" cy="2.8" r="2.6"/>
	<circle class="st0" cx="2.6" cy="10.3" r="2.6"/>
	<circle class="st0" cx="2.6" cy="18.6" r="2.6"/>
</g>
<g>
</g>
<g>
</g>
<g>
</g>
<g>
</g>
<g>
</g>
<g>
</g>
<g>
</g>
<g>
</g>
<g>
</g>
<g>
</g>
<g>
</g>
</svg>
