<?xml version="1.0" encoding="utf-8"?>
<!-- Generator: Adobe Illustrator 25.2.1, SVG Export Plug-In . SVG Version: 6.00 Build 0)  -->
<svg version="1.1" id="Camada_1" xmlns="http://www.w3.org/2000/svg" xmlns:xlink="http://www.w3.org/1999/xlink" x="0px" y="0px"
	 viewBox="0 0 105.9 105.9" style="enable-background:new 0 0 105.9 105.9;" xml:space="preserve">
<style type="text/css">
	.st0{fill:url(#SVGID_1_);}
	.st1{fill:#FFFFFF;}
	.st2{fill:url(#SVGID_2_);}
	.st3{fill:url(#SVGID_3_);}
	.st4{fill:url(#SVGID_4_);}
	.st5{fill:url(#SVGID_5_);}
</style>
<linearGradient id="SVGID_1_" gradientUnits="userSpaceOnUse" x1="0" y1="52.9493" x2="105.8987" y2="52.9493">
	<stop  offset="8.379889e-03" style="stop-color:#772182"/>
	<stop  offset="1" style="stop-color:#812082"/>
</linearGradient>
<circle class="st0" cx="52.9" cy="52.9" r="52.9"/>
<g>
	<path class="st1" d="M74.5,85.9c-14.4,0-28.7,0-43.1,0c-3.6-1.3-4.2-2.2-4.2-6.2c0-17.9,0-35.7,0-53.6c0-3.9,0.6-4.9,4.2-6.2
		c10.3,0,20.5,0,30.8,0c5.1,5.1,10.3,10.3,15.5,15.4c0.8,0.8,1.1,1.6,1.1,2.7c0,13.9,0,27.8,0,41.7C78.7,83.7,78.1,84.6,74.5,85.9z
		 M74.1,41.2c-0.7,0-1.2,0-1.8,0c-3.1,0-6.3,0-9.4,0c-3.6,0-5.4-1.8-5.4-5.4c0-1.8,0-3.6,0-5.4c0-1.8,0-3.6,0-5.5
		c-0.6,0-1-0.1-1.5-0.1c-6.4,0-12.7,0-19.1,0c-3.5,0-5.4,1.9-5.4,5.5c0,15.1,0,30.2,0,45.3c0,3.7,1.9,5.5,5.5,5.5
		c10.5,0,20.9,0,31.4,0c3.7,0,5.6-1.9,5.6-5.6c0-10.9,0-21.8,0-32.7C74.1,42.4,74.1,41.9,74.1,41.2z"/>
	<linearGradient id="SVGID_2_" gradientUnits="userSpaceOnUse" x1="36.6067" y1="64.6916" x2="69.3895" y2="64.6916">
		<stop  offset="0" style="stop-color:#EB5E1D"/>
		<stop  offset="0.9693" style="stop-color:#F28A1A"/>
	</linearGradient>
	<path class="st2" d="M52.9,67.1c-4.4,0-8.9,0-13.3,0c-0.8,0-1.8-0.2-2.3-0.7c-0.5-0.5-0.8-1.5-0.7-2.2c0.1-0.7,0.9-1.3,1.5-1.7
		c0.4-0.3,1.1-0.2,1.7-0.2c8.7,0,17.4,0,26.1,0c0.3,0,0.7,0,1,0c1.4,0.1,2.4,1,2.4,2.3c0,1.3-0.9,2.4-2.4,2.4c-2.3,0.1-4.6,0-6.9,0
		C57.7,67.1,55.3,67.1,52.9,67.1z"/>
	<linearGradient id="SVGID_3_" gradientUnits="userSpaceOnUse" x1="36.4853" y1="55.3053" x2="69.3909" y2="55.3053">
		<stop  offset="0" style="stop-color:#EB5E1D"/>
		<stop  offset="0.9693" style="stop-color:#F28A1A"/>
	</linearGradient>
	<path class="st3" d="M53.1,53c4.5,0,9,0,13.5,0c1.8,0,2.8,0.8,2.8,2.2c0,1.4-1,2.3-2.8,2.3c-9.1,0-18.3,0-27.4,0
		c-1.7,0-2.8-0.9-2.8-2.3c0-1.4,1-2.2,2.8-2.2C43.9,53,48.5,53,53.1,53z"/>
	<linearGradient id="SVGID_4_" gradientUnits="userSpaceOnUse" x1="36.4828" y1="74.0523" x2="69.2053" y2="74.0523">
		<stop  offset="0" style="stop-color:#EB5E1D"/>
		<stop  offset="0.9693" style="stop-color:#F28A1A"/>
	</linearGradient>
	<path class="st4" d="M52.8,76.4c-4.5,0-9.1,0-13.6,0c-1.9,0-3-1.1-2.6-2.7c0.3-1.4,1.3-1.9,2.7-1.9c3.6,0,7.2,0,10.8,0
		c5.4,0,10.8,0,16.3,0c0.7,0,1.8,0.1,2.2,0.6c0.5,0.6,0.8,1.6,0.7,2.5c-0.1,1.1-1.1,1.5-2.2,1.5c-2.4,0-4.8,0-7.2,0
		C57.5,76.4,55.1,76.4,52.8,76.4z"/>
	<linearGradient id="SVGID_5_" gradientUnits="userSpaceOnUse" x1="36.4852" y1="45.8958" x2="52.8691" y2="45.8958">
		<stop  offset="0" style="stop-color:#EB5E1D"/>
		<stop  offset="0.9693" style="stop-color:#F28A1A"/>
	</linearGradient>
	<path class="st5" d="M44.6,48.3c-1.8,0-3.6,0-5.4,0c-1.7,0-2.6-0.9-2.7-2.3c-0.1-1.4,1-2.4,2.7-2.4c3.7,0,7.4,0,11.1,0
		c1.7,0,2.6,0.9,2.6,2.4c0,1.5-0.9,2.3-2.6,2.3C48.4,48.3,46.5,48.3,44.6,48.3z"/>
</g>
<g>
</g>
<g>
</g>
<g>
</g>
<g>
</g>
<g>
</g>
<g>
</g>
</svg>
