<?xml version="1.0" encoding="utf-8"?>
<!-- Generator: Adobe Illustrator 25.2.1, SVG Export Plug-In . SVG Version: 6.00 Build 0)  -->
<svg version="1.1" id="Camada_1" xmlns="http://www.w3.org/2000/svg" xmlns:xlink="http://www.w3.org/1999/xlink" x="0px" y="0px"
	 viewBox="0 0 299.9 244.1" style="enable-background:new 0 0 299.9 244.1;" xml:space="preserve">
<style type="text/css">
	.st0{fill:#8C178A;}
</style>
<path class="st0" d="M104.4,133c-0.2,2.6,1.3,4.5,2.3,6.5c13.8,28.4-9.4,64-40.8,62.1c-15.3-0.9-27.4-9.1-37.1-20.4
	c-37.2-43.6-38.5-111.6-3-156.7C37,10.2,51.2,0,70.6,0.3c30.3,0.4,48.3,27.4,37.3,55.7c-2.1,5.4-5.1,10.5-6.8,16.1
	c-1,3.5-0.1,4.8,3.7,4.7c7.6-0.3,15.3-0.2,23-0.2c3.7,0,7.3,0.6,7.2,5.5c-0.1,4.7-3.6,4.9-7.2,4.9c-6.5,0-13,0.1-19.5-0.1
	c-3.6-0.1-4.8,0.5-4.1,4.7c0.8,5,2.3,6.9,7.7,6.8c6.2-0.1,12.1,2,17,6.3c4.1,3.6,5.9,8.3,5.9,13.8c0,39.8,0,79.6,0.1,119.4
	c0,3.7-1.3,6.4-5.3,6.2c-4.3-0.2-5.2-3.4-5.2-7.1c0-27,0-54,0-81c0-3,0-6,0-9c0-7.8-1.8-10.5-9.2-12.6
	C111.8,133.4,108.2,132.3,104.4,133z M10.6,105.2c-0.2,10,2.2,24.4,7.4,38.3c6,15.9,14.6,29.9,28.6,39.9c9.3,6.7,19.6,10.3,31,6.3
	c13.2-4.6,22.2-18.2,22.8-32.3c0.3-8.8-4.5-15.5-7.8-22.9c-0.9-2-2.6-0.9-3.8-0.1c-3.3,2.1-6.9,3.2-10.8,3.5
	c-3.7,0.3-6.4-0.8-6.8-4.7c-0.3-3.8,2.2-5.3,5.6-5.5c5.8-0.4,10-3.6,13-8.2c4.6-6.9,6.3-14.8,4.9-22.9c-1.9-11.1-6-20.5-19.3-22
	c-3-0.3-4.7-2.7-4.2-5.8s2.8-4.5,5.8-4.4c3.7,0.1,7.2,1.2,10.5,3c2.6,1.5,4,1.3,5.1-1.9c1.3-3.8,3-7.4,4.8-11
	c4.3-8.6,4-17.5,0.9-26.2C93.4,14.9,78.5,8,63.2,11.3c-13.6,3-23.5,11.5-31.5,22.2C16.8,53.3,10.8,76,10.6,105.2z M110.2,108.7
	c-5-0.2-5-0.1-6.6,4.9c-0.5,1.7-1,3.5-1.8,5.2c-1.1,2.3-0.7,3.1,2,3.3c6.1,0.6,12.2,1.1,17.9,3.5c2.2,1,2.8-0.1,3.1-2.3
	C125.8,113.7,121.3,109.1,110.2,108.7z"/>
<path class="st0" d="M157.9,177.3c0-18.1,0-36.3,0-54.5c0-16,6.9-23.3,22.9-24.6c2.1-0.2,5.1,0.9,6.1-1c1.3-2.6,1.6-5.7,1.9-8.7
	c0.3-2.2-1.8-1.5-2.9-1.5c-7.2-0.1-14.3-0.1-21.5,0c-3.8,0-7-1.1-7-5.2c0-4.3,3.3-5.1,7.1-5c7.8,0.1,15.7-0.2,23.5,0.1
	c4.5,0.2,4.8-1.8,3.5-5.1c-1.8-4.5-3.7-8.9-5.6-13.3c-7.2-16.5-5.6-32.5,6.1-45.8C203,0,218.4-2.2,234.2,1.8
	c19.6,4.9,32,19,41.6,35.7c16,28.1,20.1,58.1,14.2,89.7c-0.8,4.1-1.9,4.2-4.8,1.8c-3.4-2.7-5.2-5.2-4.5-10.3
	c4.4-32.1-1.4-62.1-21.9-88c-10.1-12.7-22.7-21.4-40.2-19.8c-19.7,1.8-31.7,20.5-24.8,39.1c2,5.5,4.6,10.7,6.8,16.1
	c1,2.6,2.4,2.1,4.2,1.1c3.6-2,7.3-3.2,11.4-3c3,0.1,5.1,1.8,5.3,4.9c0.3,3.2-1.7,4.9-4.6,5.5c-11.6,2.5-18,10-19,22.2
	c-0.6,7.5,0.2,14.7,4.1,21.2c1.4,2.3,0.9,3.4-1.2,4.8c-3.8,2.3-7.4,5.1-10.6,8.3c-1.1,1.1-2.4,1.6-4,1.7c-2.3,0.2-4.6,0.6-6.9,1.1
	c-9.1,2.1-11.2,4.9-11.2,14.1c0,29.1,0,58.3,0,87.4c0,0.7-0.1,1.3,0,2c0.3,4-1.4,6.7-5.5,6.6c-3.7-0.1-4.7-3-4.7-6.4
	c0.1-10.2,0-20.3,0-30.5C157.9,197.2,157.9,187.3,157.9,177.3z M191.9,121.7c-1-2.8-2.4-5.4-2.8-8.1c-0.6-4.4-2.9-5.5-6.8-4.9
	c-1.6,0.3-3.3,0.2-4.9,0.6c-7.8,1.8-10.9,7-9.4,14.8c0.4,1.9,1.3,2.2,2.7,1.6C177.4,122.9,184.5,122.7,191.9,121.7z"/>
<path class="st0" d="M239,121.8c33.7,0.1,60.8,27.1,60.8,60.5c0,33.2-27.1,61.2-59.3,61.1c-35.5,0-62.5-26.5-62.5-61.4
	C178,148.6,205.3,121.8,239,121.8z M289.3,182.7c-0.1-28.2-22.4-50.8-50.1-50.8c-28.4,0.1-50.8,22.6-50.9,51.3
	c-0.1,26.8,23.4,49.8,50.9,49.8C266.9,232.9,289.4,210.4,289.3,182.7z"/>
<path class="st0" d="M267.4,195c0.1-1.8-0.1-4.7-1.5-7.5c-1.6-3.1-0.8-5.6,2.2-7.1c3.1-1.5,5.6-0.1,7.1,2.7
	c2.8,5.1,3.2,10.8,2.2,16.4c-0.5,3.1-2,5.5-5.5,5.1c-3.6-0.4-4.9-3-4.7-6.4C267.2,197.6,267.2,196.9,267.4,195z"/>
<path class="st0" d="M243.6,220.6c-3-0.1-5.2-1.5-5.5-4.6c-0.4-3,1.1-5.4,4.2-5.7c4.2-0.4,7.5-2.5,10.6-5c2.7-2.1,5.4-1.9,7.4,0.7
	c2,2.5,1.3,4.9-0.9,7C255,217.4,249.7,220,243.6,220.6z"/>
<path class="st0" d="M249.6,194.3c-0.1,2.7-1.5,4.6-4.2,5.2c-2.9,0.7-5.1-0.7-5.8-3.4c-1.1-4.6-2.5-8.8-5.6-12.6
	c-1.9-2.3-0.7-4.8,1.4-6.5c2.3-1.9,4.7-1.4,6.8,0.6C247,182.1,248.5,188,249.6,194.3z"/>
<path class="st0" d="M268.9,158.9c0,4.8-7.1,14.8-11.8,16.4c-2.5,0.9-4.6,0-6.1-2c-1.5-2-1.2-4.3,0.5-5.9c3.4-3.2,6.4-6.6,8.1-11.1
	c0.9-2.4,3.5-3,6-2.3C267.9,154.7,268.9,156.5,268.9,158.9z"/>
<path class="st0" d="M220.6,214c-1.6,0.1-3.1-1-4.6-2.1c-4.3-3.5-6.7-8.2-8.1-13.4c-0.8-2.9,0.2-5.4,3.3-6.3c3-0.9,5.3,0.5,6.4,3.3
	c1.4,3.8,3.2,7.2,6.6,9.7c2,1.4,2.3,3.7,1.4,5.9C224.9,213,223.2,214,220.6,214z"/>
<path class="st0" d="M207.6,159.7c2.5-0.2,4.2,1,4.9,3.3c1.1,3.8,3.5,6.7,6.4,9.3c2.7,2.4,3.2,5.2,0.8,7.8c-2.3,2.5-5.1,1.9-7.6-0.1
	c-4.1-3.3-7.3-7.3-8.9-12.3C201.7,163.2,203.7,159.9,207.6,159.7z"/>
<path class="st0" d="M236.4,144.6c2.1,0.2,4.3,0.2,6.4,0.7c2.6,0.6,3.8,2.6,3.6,5.2c-0.2,2.7-1.9,4.5-4.5,4.4
	c-4.9-0.1-9.5,0.3-14.1,1.9c-2.4,0.9-4.7-0.4-5.6-2.9c-0.8-2.3-0.4-4.5,1.9-6.1C227.8,145.2,232,144.6,236.4,144.6z"/>
</svg>
