<?xml version="1.0" encoding="utf-8"?>
<!-- Generator: Adobe Illustrator 25.2.1, SVG Export Plug-In . SVG Version: 6.00 Build 0)  -->
<svg version="1.1" id="Camada_1" xmlns="http://www.w3.org/2000/svg" xmlns:xlink="http://www.w3.org/1999/xlink" x="0px" y="0px"
	 viewBox="0 0 125.84 125.84" style="enable-background:new 0 0 125.84 125.84;" xml:space="preserve">
<style type="text/css">
	.st0{fill:#782681;}
	.st1{fill:#FFFFFF;}
	.st2{fill:url(#SVGID_1_);}
</style>
<circle class="st0" cx="62.92" cy="63.2" r="62.92"/>
<g>
	<path class="st1" d="M100.54,97.99c-26.56,0-53.12,0-79.73,0c0-0.89,0-1.71,0-2.61c1.28,0,2.56,0,3.97,0c0-0.38,0-0.68,0-0.98
		c0-7.87,0-15.74,0-23.6c0-1.69,0.35-2.04,2.06-2.04c3.97,0,7.95,0,11.92,0c1.54,0,1.95,0.41,1.95,1.93c0,7.87,0,15.74,0,23.6
		c0,0.31,0,0.62,0,0.99c0.87,0,1.71,0,2.65,0c0-0.32,0-0.65,0-0.97c0-13.97,0-27.94,0-41.91c0-1.95,0.29-2.23,2.27-2.23
		c3.92,0,7.84,0,11.77,0c1.53,0,1.92,0.39,1.92,1.95c0,14.05,0,28.1,0,42.14c0,0.33,0,0.66,0,1.04c0.9,0,1.72,0,2.67,0
		c0-0.32,0-0.65,0-0.97c0-9.58,0-19.16,0-28.75c0-1.81,0.34-2.15,2.12-2.15c3.95,0,7.9,0,11.84,0c1.58,0,1.99,0.41,1.99,1.98
		c0,9.63,0,19.27,0,28.9c0,0.31,0,0.61,0,0.97c0.9,0,1.73,0,2.65,0c0-0.36,0-0.69,0-1.02c0-15.79,0-31.58,0-47.36
		c0-1.71,0.34-2.06,2.04-2.06c3.97,0,7.95,0,11.92,0c1.61,0,1.97,0.36,1.97,1.96c0,15.81,0,31.63,0,47.44c0,0.33,0,0.66,0,1.1
		c1.39,0,2.71,0,4.02,0C100.54,96.23,100.54,97.11,100.54,97.99z M93.82,47.56c-3.55,0-7.04,0-10.52,0c0,15.95,0,31.85,0,47.74
		c3.53,0,7,0,10.52,0C93.82,79.38,93.82,63.5,93.82,47.56z M56.58,95.31c0-14.19,0-28.32,0-42.43c-3.55,0-7.04,0-10.52,0
		c0,14.17,0,28.28,0,42.43C49.58,95.31,53.05,95.31,56.58,95.31z M64.68,95.29c3.56,0,7.04,0,10.55,0c0-9.74,0-19.43,0-29.14
		c-3.54,0-7.02,0-10.55,0C64.68,75.87,64.68,85.55,64.68,95.29z M27.47,95.28c3.58,0,7.07,0,10.54,0c0-7.97,0-15.88,0-23.81
		c-3.53,0-7.02,0-10.54,0C27.47,79.43,27.47,87.34,27.47,95.28z"/>
	<linearGradient id="SVGID_1_" gradientUnits="userSpaceOnUse" x1="26.0982" y1="36.8418" x2="95.2621" y2="36.8418">
		<stop  offset="0" style="stop-color:#EB5E1D"/>
		<stop  offset="0.9693" style="stop-color:#F28A1A"/>
	</linearGradient>
	<path class="st2" d="M89.48,18.22c1.78,0.44,3.38,1.19,4.46,2.74c1.61,2.33,1.79,4.79,0.37,7.25c-1.33,2.31-3.42,3.44-6.09,3.26
		c-0.93-0.06-1.85-0.43-2.74-0.76c-0.42-0.15-0.66-0.21-1.01,0.14c-2.83,2.86-5.68,5.7-8.54,8.54c-0.33,0.33-0.37,0.57-0.15,1
		c1.79,3.42,0.48,7.39-2.97,9.12c-3.2,1.6-7.21,0.19-8.84-3.15c-0.69-1.42-0.87-2.93-0.41-4.46c0.16-0.54,0.08-0.87-0.4-1.23
		c-2.43-1.82-4.82-3.69-7.13-5.45c-1.05,0.49-1.99,1.06-3,1.38c-1.65,0.52-3.29,0.3-4.81-0.55c-0.42-0.24-0.66-0.2-0.99,0.14
		c-2.83,2.86-5.68,5.7-8.54,8.54c-0.34,0.33-0.36,0.57-0.14,0.99c1.23,2.41,1.1,4.8-0.47,6.97c-1.66,2.29-4,3.19-6.77,2.6
		c-2.71-0.58-4.45-2.35-5.04-5.03c-0.6-2.71,0.27-5.06,2.53-6.73c2.14-1.59,4.49-1.77,6.9-0.58c0.53,0.26,0.82,0.26,1.25-0.18
		c2.75-2.79,5.52-5.56,8.32-8.32c0.43-0.42,0.45-0.71,0.17-1.24c-1.31-2.49-0.85-5.39,1.12-7.56c1.77-1.95,4.79-2.58,7.37-1.52
		c2.42,0.99,4.12,3.56,4.04,6.21c-0.02,0.69-0.28,1.36-0.37,2.05c-0.03,0.26,0.01,0.66,0.18,0.79c2.43,1.91,4.88,3.78,7.26,5.61
		c0.94-0.53,1.77-1.13,2.69-1.48c1.78-0.68,3.57-0.56,5.26,0.35c0.47,0.26,0.74,0.23,1.13-0.16c2.79-2.83,5.6-5.63,8.42-8.43
		c0.29-0.29,0.48-0.5,0.23-0.98c-2.16-4.17,0.12-8.84,4.72-9.73c0.1-0.02,0.18-0.08,0.28-0.12C88.33,18.22,88.91,18.22,89.48,18.22z
		 M84.6,24.91c0,2.2,1.75,3.96,3.95,3.96c2.18,0.01,3.97-1.75,4-3.93c0.03-2.17-1.83-4.04-4.01-4.02
		C86.35,20.94,84.59,22.72,84.6,24.91z M51.35,26.24c-2.19,0.01-3.96,1.78-3.97,3.96c-0.01,2.19,1.75,3.99,3.92,4.01
		c2.2,0.02,4.04-1.81,4.03-4C55.32,28.04,53.51,26.24,51.35,26.24z M73.91,43.48c-0.01-2.19-1.77-3.93-3.97-3.94
		c-2.2,0-4.02,1.83-3.98,4.02c0.04,2.17,1.86,3.94,4.03,3.9C72.22,47.41,73.93,45.69,73.91,43.48z M36.7,48.8
		c-0.02-2.19-1.77-3.94-3.96-3.95c-2.21,0-4.03,1.84-3.99,4.01c0.04,2.18,1.85,3.94,4.02,3.91C34.98,52.75,36.72,50.99,36.7,48.8z"
		/>
</g>
</svg>
