<?xml version="1.0" encoding="utf-8"?>
<!-- Generator: Adobe Illustrator 24.1.2, SVG Export Plug-In . SVG Version: 6.00 Build 0)  -->
<svg version="1.1" id="Camada_1" xmlns="http://www.w3.org/2000/svg" xmlns:xlink="http://www.w3.org/1999/xlink" x="0px" y="0px"
	 viewBox="0 0 32.4 20.2" style="enable-background:new 0 0 32.4 20.2;" xml:space="preserve">
<style type="text/css">
	.st0{opacity:0.82;fill:url(#SVGID_1_);}
</style>
<linearGradient id="SVGID_1_" gradientUnits="userSpaceOnUse" x1="0" y1="10.0987" x2="32.3903" y2="10.0987">
	<stop  offset="0" style="stop-color:#FF5C00"/>
	<stop  offset="0.9693" style="stop-color:#FF8F00"/>
</linearGradient>
<path class="st0" d="M0,10.2c0,0,0-0.1,0-0.1c0.1-0.2,0.3-0.4,0.4-0.7c5.8-10.6,20.1-12.6,28.5-4c1.3,1.4,2.3,3.1,3.5,4.6
	c0,0,0,0.1,0,0.1c-0.1,0.2-0.3,0.4-0.4,0.7c-5.8,10.6-20.1,12.6-28.5,4C2.1,13.4,1.1,11.7,0,10.2z M8.5,5.3c-1.6,0.7-4.1,3.1-5,4.9
	c0.1,0.1,0.1,0.2,0.2,0.3c3.3,5.1,9.5,7.7,15.5,6.5c3.9-0.8,7.1-3,9.4-6.3c0.1-0.2,0.3-0.6,0.2-0.7c-1.2-1.9-2.8-3.5-4.9-4.7
	c1,4.1,0,7.4-3.5,9.6c-2.8,1.7-5.8,1.7-8.5-0.1C8.4,12.4,7.5,9.1,8.5,5.3z M13.1,9.9c1.7,0,3.1-1.4,3.1-3c0-1.6-1.4-3-3-3
	c-1.7,0-3.1,1.4-3.1,3C10.1,8.5,11.5,9.9,13.1,9.9z"/>
<g>
</g>
<g>
</g>
<g>
</g>
<g>
</g>
<g>
</g>
<g>
</g>
<g>
</g>
<g>
</g>
<g>
</g>
<g>
</g>
<g>
</g>
</svg>
