<?xml version="1.0" encoding="utf-8"?>
<!-- Generator: Adobe Illustrator 25.2.1, SVG Export Plug-In . SVG Version: 6.00 Build 0)  -->
<svg version="1.1" id="Camada_1" xmlns="http://www.w3.org/2000/svg" xmlns:xlink="http://www.w3.org/1999/xlink" x="0px" y="0px"
	 viewBox="0 0 117.6 105.7" style="enable-background:new 0 0 117.6 105.7;" xml:space="preserve">
<style type="text/css">
	.st0{fill:#782681;}
	.st1{fill:url(#SVGID_1_);}
	.st2{fill:url(#SVGID_2_);}
	.st3{fill:url(#SVGID_3_);}
</style>
<g>
	<path class="st0" d="M19.6,105.7c0-8.9,0-17.6,0-26.4c-0.3,0-0.6,0-0.9,0c-1.9,0-3.8,0-5.7,0C5.8,79.2,0,73.4,0,66.2
		c0-9.9,0-19.7,0-29.6C0,28.8,0,21,0,13.1C0,7.3,3.8,2.2,9.4,0.6C10.7,0.2,12.1,0,13.5,0c22.3,0,44.6,0,66.8,0c7.9,0,15.8,0,23.7,0
		c7.8,0,13.5,5.7,13.5,13.5c0,17.4,0,34.9,0,52.3c0,7.5-5.9,13.6-13.6,13.6c-17.4-0.1-34.8,0-52.1,0c-0.6,0-1.1,0.2-1.6,0.6
		c-10,8.5-20,16.9-30,25.3C20.1,105.4,19.9,105.5,19.6,105.7z M26.1,85.9c0.4-0.2,0.6-0.4,0.8-0.5c6-4,12-8.1,17.9-12.1
		c0.6-0.4,1.1-0.5,1.8-0.5c19.1,0,38.2,0,57.3,0c4.2,0,7-2.7,7-6.9c0-17.4,0-34.9,0-52.3c0-4.1-2.8-6.9-6.9-6.9
		c-30.2,0-60.4,0-90.6,0c-4.2,0-7,2.8-7,6.9c0,17.4,0,34.8,0,52.2c0,4.2,2.8,6.9,7,6.9c3.9,0,7.9,0,11.8,0c0.7,0,0.8,0.2,0.8,0.8
		c0,2.3,0,4.7,0,7C26.1,82.2,26.1,84,26.1,85.9z"/>
	<linearGradient id="SVGID_1_" gradientUnits="userSpaceOnUse" x1="78.3612" y1="39.6586" x2="91.408" y2="39.6586">
		<stop  offset="0" style="stop-color:#EB5E1D"/>
		<stop  offset="0.9693" style="stop-color:#F28A1A"/>
	</linearGradient>
	<path class="st1" d="M91.4,39.7c0,3.7-2.9,6.6-6.6,6.6c-3.6,0-6.5-3-6.5-6.6c0-3.7,3-6.6,6.6-6.6C88.5,33.1,91.4,36,91.4,39.7z"/>
	<linearGradient id="SVGID_2_" gradientUnits="userSpaceOnUse" x1="26.1335" y1="39.6584" x2="39.1802" y2="39.6584">
		<stop  offset="0" style="stop-color:#EB5E1D"/>
		<stop  offset="0.9693" style="stop-color:#F28A1A"/>
	</linearGradient>
	<path class="st2" d="M32.7,33c3.6,0,6.5,3,6.5,6.7c0,3.6-2.9,6.5-6.5,6.5c-3.6,0-6.5-3-6.5-6.6C26.1,36,29.1,33,32.7,33z"/>
	<linearGradient id="SVGID_3_" gradientUnits="userSpaceOnUse" x1="52.2629" y1="39.6582" x2="65.2786" y2="39.6582">
		<stop  offset="0" style="stop-color:#EB5E1D"/>
		<stop  offset="0.9693" style="stop-color:#F28A1A"/>
	</linearGradient>
	<path class="st3" d="M65.3,39.6c0,3.7-2.9,6.6-6.5,6.6c-3.6,0-6.5-2.9-6.5-6.6c0-3.6,2.9-6.6,6.4-6.6C62.3,33,65.3,35.9,65.3,39.6z
		"/>
</g>
<g>
</g>
<g>
</g>
<g>
</g>
<g>
</g>
<g>
</g>
<g>
</g>
</svg>
