<?xml version="1.0" encoding="utf-8"?>
<!-- Generator: Adobe Illustrator 24.1.2, SVG Export Plug-In . SVG Version: 6.00 Build 0)  -->
<svg version="1.1" id="Camada_1" xmlns="http://www.w3.org/2000/svg" xmlns:xlink="http://www.w3.org/1999/xlink" x="0px" y="0px"
	 viewBox="0 0 93.2 93.2" style="enable-background:new 0 0 93.2 93.2;" xml:space="preserve">
<style type="text/css">
	.st0{fill:url(#SVGID_1_);}
</style>
<linearGradient id="SVGID_1_" gradientUnits="userSpaceOnUse" x1="0" y1="46.6185" x2="93.2352" y2="46.6185">
	<stop  offset="8.379889e-03" style="stop-color:#7A1687"/>
	<stop  offset="1" style="stop-color:#851687"/>
</linearGradient>
<path class="st0" d="M77.2,0c0.9,0.2,1.8,0.4,2.7,0.6c3.6,1.1,6.4,3.3,8.7,6.3c6.5,8.5,6.1,21.7-0.9,29.8c-3.7,4.3-8.5,6.4-14.2,5.8
	c-4.3-0.5-6.8-3.1-8.1-7c-0.9-2.6-0.8-5.3,0-8.1c-2.1,0-4.1-0.1-6.1,0c-1.1,0.1-1.6,1.3-1.3,2.5c1.1,4.7,2.2,9.4,3.3,14.1
	c1.1,4.8,2.3,9.6,3.3,14.3c1.4,6.2-1.7,12.4-7.7,15.4c-0.7,0.4-1.1,0.7-1.1,1.5c0,1-0.2,1.9-0.4,2.9c-0.4,2.7-2.3,4.3-5,4.4
	c-0.3,0-0.6,0-1,0c0,0.4,0,0.7,0,1c0,2.2,0,4.4,0,6.6c0,1.7-1.2,3-2.8,3c-1.6,0-2.7-1.2-2.7-3c0-2.5,0-5,0-7.6c-0.5,0-0.8,0-1.2,0
	c-2.5-0.1-4.4-1.7-4.8-4.2c-0.2-1.1-0.4-2.2-0.4-3.2c0-0.7-0.4-1-1-1.3c-4.2-2.2-7-5.6-7.9-10.3c-0.5-2.4,0-4.7,0.5-7
	c1.7-8.9,3.5-17.7,5.2-26.6c0.3-1.6-0.5-2.5-2.1-2.5c-1.4,0-2.8,0-4,0c0.1,1.8,0.4,3.5,0.3,5.2c-0.3,4-2,7.3-5.8,9
	c-2.8,1.3-5.9,1.2-8.8,0.4c-5.4-1.5-9-5.2-11.4-10.1c-1.2-2.5-1.9-5.1-2.2-7.8c0-0.2-0.1-0.5-0.2-0.7c0-1.5,0-2.9,0-4.4
	c0.3-1.5,0.5-3.1,0.9-4.6C2.6,8.8,5.7,4.1,11.3,1.4c1.5-0.7,3.2-1,4.7-1.4c1.6,0,3.2,0,4.7,0c1.7,0.5,3.3,1.2,4.6,2.5
	c3.9,4,4.1,10.9,0.5,15.2c-0.2,0.2-0.4,0.6-0.4,0.8c0,1.1,0.2,2.3,0.3,3.5c2.3,0,4.6,0,6.8,0c4.4,0.1,7.8,4.2,7,8.5
	C37.8,40.3,35.9,50,34,59.7c-0.5,2.5,0.1,4.7,1.6,6.8c0.1,0.2,0.2,0.4,0.4,0.6c0.1-0.1,0.1-0.2,0.2-0.2c0-0.4-0.1-0.8-0.1-1.3
	c-0.4-3,1.6-5.5,4.7-5.6c3.9-0.1,7.9-0.1,11.8,0c2.6,0,4.5,1.9,4.8,4.5c0.1,0.8-0.1,1.6-0.2,2.4c0,0,0.1,0,0.1,0
	c0.1-0.1,0.3-0.2,0.4-0.4c1.6-2,2.2-4.3,1.6-6.8c-2.2-9.4-4.3-18.8-6.5-28.2c-1.2-5.2,2.1-9.4,7.5-9.4c2.2,0,4.3,0,6.5,0
	c0.3,0,0.6,0,0.8,0c0.1-1.1,0.2-2.1,0.2-3.1c0-0.4-0.1-0.8-0.4-1.1c-3.1-3.7-3.5-9.3-0.9-13.5c1.4-2.3,3.5-3.7,6-4.3
	C74,0,75.6,0,77.2,0z M5.4,21.4c0.1,4,1,7.7,3.5,11c2.5,3.3,5.7,5.2,10,4.8c1.2-0.1,2.2-0.6,2.9-1.6c1.5-2.1,1.6-5.5,0.1-7.6
	c-0.2-0.3-0.4-0.5-0.7-0.7c-1.4-0.8-1.7-2-1.4-3.4c0.5-1.9,0.4-3.8-0.1-5.7c-0.4-1.3-0.1-2.4,1.1-3.1c2.5-1.5,2.9-5.9,1.1-8.1
	c-0.5-0.6-1.3-1.2-2.1-1.3C15.4,5,11.8,6.5,9.1,10C6.5,13.4,5.5,17.2,5.4,21.4z M87.8,20.5c-0.2-1-0.3-2.8-0.8-4.6
	C85.2,9,80.6,5.4,74,5.5c-1.2,0-2.1,0.5-2.8,1.5c-1.7,2.4-1.2,6.6,1.2,8.1c1,0.6,1.4,1.7,1.1,2.9c-0.6,2.1-0.6,4.2-0.1,6.3
	c0.3,1.2-0.2,2.2-1.3,3c-0.3,0.2-0.6,0.5-0.8,0.8c-1.5,2.2-1.4,5.6,0.2,7.7c0.6,0.8,1.4,1.4,2.5,1.5c3.8,0.5,7-0.8,9.5-3.7
	C86.5,30,87.7,25.8,87.8,20.5z M50.1,77.2c0.6-4,1.1-7.8,1.7-11.8c-3.5,0-6.8,0-10.2,0c0.6,4,1.1,7.8,1.7,11.8
	C45.5,77.2,47.7,77.2,50.1,77.2z"/>
<g>
</g>
<g>
</g>
<g>
</g>
<g>
</g>
<g>
</g>
<g>
</g>
<g>
</g>
<g>
</g>
<g>
</g>
<g>
</g>
<g>
</g>
</svg>
