<?xml version="1.0" encoding="utf-8"?>
<!-- Generator: Adobe Illustrator 25.2.1, SVG Export Plug-In . SVG Version: 6.00 Build 0)  -->
<svg version="1.1" id="Camada_1" xmlns="http://www.w3.org/2000/svg" xmlns:xlink="http://www.w3.org/1999/xlink" x="0px" y="0px"
	 viewBox="0 0 86.3 86.3" style="enable-background:new 0 0 86.3 86.3;" xml:space="preserve">
<style type="text/css">
	.st0{fill:url(#SVGID_1_);}
	.st1{fill:url(#SVGID_2_);}
	.st2{fill:url(#SVGID_3_);}
</style>
<g>
	<g>
		<g>
			<linearGradient id="SVGID_1_" gradientUnits="userSpaceOnUse" x1="0" y1="43.1655" x2="86.3311" y2="43.1655">
				<stop  offset="8.379889e-03" style="stop-color:#772182"/>
				<stop  offset="1" style="stop-color:#812082"/>
			</linearGradient>
			<path class="st0" d="M64.8,86.3c-21.6,0-43.2,0-64.8,0C0,57.6,0,28.8,0,0c16.6,0,33.3,0,49.9,0c0.4,0.4,0.7,0.9,1.1,1.3
				c4.2,4.2,8.4,8.4,12.6,12.6c0.7,0.7,1.1,1.8,1.2,2.8c0.1,6.4,0.1,12.8,0.1,19.1c0,0.7,0,1.4,0,2c0.7,0.2,1.2,0.3,1.7,0.4
				c7.7,1.5,13.5,5.7,17,12.6c1.4,2.7,1.9,5.7,2.9,8.6c0,1.7,0,3.3,0,5c-0.1,0.3-0.3,0.6-0.3,0.9c-1.1,8-5.3,14-12.3,17.8
				C71,84.7,67.8,85.3,64.8,86.3z M5.4,80.9c13.7,0,27.3,0,41,0c-1.3-1.4-2.6-2.7-3.6-4.1c-0.7-1-1.5-1.3-2.7-1.3
				c-9.1,0-18.2,0-27.2,0c-0.7,0-1.3,0-2.1,0c0-5.4,0-10.5,0-15.6c0-3.9,2-5.9,5.9-5.9c6.8,0,13.7,0,20.5,0c1.4,0,2.1-0.4,2.7-1.7
				c3.2-7.2,8.7-11.8,16.4-13.8c1-0.3,2.1-0.4,3-0.6c0-5.5,0-10.9,0-16.4c-5.4,0-10.7,0-16.1,0c0-5.4,0-10.7,0-16
				c-12.7,0-25.2,0-37.7,0C5.4,30.6,5.4,55.6,5.4,80.9z M80.9,62.1c0-10.3-8.5-18.9-18.9-19C51.8,43,43.1,51.7,43.1,62
				C43,72.3,51.7,80.9,62,81C72.4,81,80.9,72.5,80.9,62.1z M48.6,16c3.2,0,6.2,0,9.8,0c-1.9-1.8-3.5-3.3-5-4.8c-1.5-1.5-3-3-4.7-4.7
				C48.6,10,48.6,13,48.6,16z"/>
			<linearGradient id="SVGID_2_" gradientUnits="userSpaceOnUse" x1="21.5899" y1="37.7511" x2="43.0549" y2="37.7511">
				<stop  offset="8.379889e-03" style="stop-color:#772182"/>
				<stop  offset="1" style="stop-color:#812082"/>
			</linearGradient>
			<path class="st1" d="M43.1,38c-0.1,6-4.8,10.6-10.9,10.5c-6-0.1-10.7-4.9-10.6-10.8c0.1-6,4.9-10.7,10.8-10.6
				C38.5,27.1,43.1,31.9,43.1,38z"/>
			<linearGradient id="SVGID_3_" gradientUnits="userSpaceOnUse" x1="51.4494" y1="60.656" x2="72.7325" y2="60.656">
				<stop  offset="0" style="stop-color:#EB5E1D"/>
				<stop  offset="0.9693" style="stop-color:#F28A1A"/>
			</linearGradient>
			<path class="st2" d="M70.7,59.3c0.7,0.1,1.4,0.1,2.1,0.2c0,4.4,0,8.7,0,13.2c-7.1,0-14.1,0-21.3,0c0-4.3,0-8.7,0-13.1
				c0.6-0.1,1.2-0.2,2-0.3c0.2-3.4,0.3-7,3.6-9.3c2-1.4,4.2-1.5,6.4-1.3C67.9,49.2,70.1,52.3,70.7,59.3z M59,59.3c2.1,0,4,0,6,0
				c0.2-1.9,0.4-3.9-1.3-4.9c-0.9-0.5-2.7-0.4-3.5,0.1C58.6,55.6,58.9,57.5,59,59.3z"/>
		</g>
	</g>
</g>
<g>
</g>
<g>
</g>
<g>
</g>
<g>
</g>
<g>
</g>
<g>
</g>
</svg>
