<?xml version="1.0" encoding="utf-8"?>
<!-- Generator: Adobe Illustrator 24.1.2, SVG Export Plug-In . SVG Version: 6.00 Build 0)  -->
<svg version="1.1" id="Camada_1" xmlns="http://www.w3.org/2000/svg" xmlns:xlink="http://www.w3.org/1999/xlink" x="0px" y="0px"
	 viewBox="0 0 148.2 148.1" style="enable-background:new 0 0 148.2 148.1;" xml:space="preserve">
<style type="text/css">
	.st0{fill:url(#SVGID_1_);}
	.st1{fill:url(#SVGID_2_);}
	.st2{fill:url(#SVGID_3_);}
	.st3{fill:url(#SVGID_4_);}
	.st4{fill:url(#SVGID_5_);}
	.st5{fill:url(#SVGID_6_);}
	.st6{fill:url(#SVGID_7_);}
	.st7{fill:url(#SVGID_8_);}
	.st8{fill:url(#SVGID_9_);}
	.st9{fill:url(#SVGID_10_);}
</style>
<g>
	<linearGradient id="SVGID_1_" gradientUnits="userSpaceOnUse" x1="9.094947e-13" y1="74.066" x2="148.178" y2="74.066">
		<stop  offset="8.379889e-03" style="stop-color:#7A1687"/>
		<stop  offset="1" style="stop-color:#851687"/>
	</linearGradient>
	<path class="st0" d="M33.4,148.1c-1.9,0-3.9,0-5.8,0c-0.3-0.1-0.6-0.2-1-0.3c-4.3-0.5-8.3-1.9-12-4.2C-2.2,133.3-4.9,110.4,9,96.3
		c7-7.1,14-14.1,21.1-21.1c0.4-0.4,0.7-0.7,1.2-1.2c-0.5-0.4-0.9-0.7-1.2-1.1c-7.2-7.2-14.5-14.2-21.5-21.6c-8-8.5-10.4-18.6-7-29.7
		C8-0.3,35.4-7.2,51.7,8.7c7.2,7,14.2,14.2,21.3,21.3c0.4,0.4,0.8,0.7,1.2,1.1c0.4-0.4,0.8-0.8,1.2-1.1C82.5,22.7,89.6,15.4,97,8.4
		c16.4-15.8,44.1-8.1,50.1,13.9c0.5,1.7,0.8,3.5,1.1,5.2c0,1.9,0,3.9,0,5.8c-0.1,0.2-0.2,0.4-0.2,0.7c-0.9,7.4-4.2,13.5-9.4,18.7
		c-6.8,6.7-13.5,13.5-20.2,20.2c-0.4,0.4-0.7,0.8-1.1,1.2c0.4,0.4,0.8,0.8,1.1,1.2c6.9,7,13.9,13.9,20.8,20.9c3.9,3.9,6.7,8.6,8,14
		c0.4,1.6,0.7,3.2,1,4.8c0,1.9,0,3.9,0,5.8c-0.1,0.3-0.2,0.6-0.3,1c-2,12.7-9.2,21.1-21.3,25.2c-1.9,0.6-3.9,0.9-5.9,1.3
		c-1.9,0-3.9,0-5.8,0c-0.2-0.1-0.3-0.2-0.5-0.2c-7.5-0.9-13.8-4.3-19.1-9.6c-6.6-6.7-13.3-13.4-20-20.1c-0.4-0.4-0.8-0.7-1.2-1.1
		c-0.4,0.4-0.8,0.8-1.2,1.1c-6.9,6.9-13.8,13.8-20.7,20.8c-3.7,3.7-8,6.4-13.1,7.9C37.2,147.4,35.3,147.7,33.4,148.1z M8.7,29.5
		c0.1,7.1,2.5,12.4,7,16.8c28.7,28.7,57.4,57.4,86.1,86.1c0.6,0.6,1.3,1.3,2,1.9c7,5.6,14.8,6.9,23,3.1c8.1-3.7,12.4-10.4,12.7-19.3
		c0.2-6.5-2.4-11.9-7-16.5c-23.3-23.2-46.5-46.5-69.7-69.7C57,26.2,51.4,20.3,45.5,14.8c-6.8-6.4-14.9-7.9-23.5-4.3
		C13.3,14.1,9.2,21.1,8.7,29.5z M37.1,80.5c0,0-0.1,0.1-0.2,0.2c-7.5,7.5-15,14.8-22.3,22.4c-5.4,5.7-7.1,12.7-5,20.4
		c4.3,16.2,24.2,21.4,36.3,9.6c7.2-7,14.2-14.2,21.3-21.3c0.3-0.3,0.5-0.6,0.6-0.7C57.5,100.8,47.4,90.7,37.1,80.5z M111.1,67.8
		c0.2-0.2,0.4-0.3,0.6-0.5C118.8,60.1,126,53,133,45.8c7.1-7.2,8.5-17.5,3.7-26.1c-7-12.6-23.9-14.9-34.3-4.6
		c-7.2,7.1-14.3,14.3-21.5,21.5c-0.2,0.2-0.4,0.4-0.5,0.5C90.7,47.4,100.8,57.5,111.1,67.8z"/>
	<linearGradient id="SVGID_2_" gradientUnits="userSpaceOnUse" x1="43.7693" y1="74.0005" x2="104.5212" y2="74.0005">
		<stop  offset="8.379889e-03" style="stop-color:#7A1687"/>
		<stop  offset="1" style="stop-color:#851687"/>
	</linearGradient>
	<path class="st1" d="M43.8,61.7c6-6,12.1-12.1,18.1-18.1c14.2,14.2,28.5,28.5,42.7,42.7c-6,6-12.1,12.1-18.1,18.1
		C72.3,90.2,58,75.9,43.8,61.7z M56.1,61.8c10.1,10.1,20.3,20.3,30.3,30.3c1.9-1.9,3.9-3.9,5.8-5.8C82.1,76.3,72,66.1,61.9,56
		C60,57.9,58,59.9,56.1,61.8z"/>
	<linearGradient id="SVGID_3_" gradientUnits="userSpaceOnUse" x1="31.5247" y1="98.6255" x2="43.1023" y2="98.6255">
		<stop  offset="8.379889e-03" style="stop-color:#7A1687"/>
		<stop  offset="1" style="stop-color:#851687"/>
	</linearGradient>
	<path class="st2" d="M37.3,104.4c-1.9-1.9-3.9-3.9-5.8-5.8c1.9-1.9,3.9-3.9,5.8-5.8c1.9,1.9,3.8,3.9,5.8,5.8
		C41.2,100.5,39.2,102.5,37.3,104.4z"/>
	<linearGradient id="SVGID_4_" gradientUnits="userSpaceOnUse" x1="19.2251" y1="110.902" x2="30.8505" y2="110.902">
		<stop  offset="8.379889e-03" style="stop-color:#7A1687"/>
		<stop  offset="1" style="stop-color:#851687"/>
	</linearGradient>
	<path class="st3" d="M25,105.1c1.9,1.9,3.9,3.9,5.8,5.8c-1.9,1.9-3.9,3.9-5.8,5.8c-1.9-1.9-3.9-3.9-5.8-5.8
		C21.1,109,23.1,107,25,105.1z"/>
	<linearGradient id="SVGID_5_" gradientUnits="userSpaceOnUse" x1="43.884" y1="111.0015" x2="55.4541" y2="111.0015">
		<stop  offset="8.379889e-03" style="stop-color:#7A1687"/>
		<stop  offset="1" style="stop-color:#851687"/>
	</linearGradient>
	<path class="st4" d="M49.6,116.8c-1.9-2-3.9-3.9-5.7-5.8c1.9-1.9,3.9-3.9,5.8-5.8c1.8,1.8,3.8,3.8,5.8,5.8
		C53.6,112.8,51.6,114.8,49.6,116.8z"/>
	<linearGradient id="SVGID_6_" gradientUnits="userSpaceOnUse" x1="31.4558" y1="123.1567" x2="43.0954" y2="123.1567">
		<stop  offset="8.379889e-03" style="stop-color:#7A1687"/>
		<stop  offset="1" style="stop-color:#851687"/>
	</linearGradient>
	<path class="st5" d="M31.5,123.1c2-2,3.9-3.9,5.8-5.8c1.9,1.9,3.9,3.9,5.8,5.9c-1.9,1.9-3.9,3.9-5.8,5.8
		C35.4,127.1,33.4,125.1,31.5,123.1z"/>
	<linearGradient id="SVGID_7_" gradientUnits="userSpaceOnUse" x1="105.1431" y1="24.9613" x2="116.7675" y2="24.9613">
		<stop  offset="8.379889e-03" style="stop-color:#7A1687"/>
		<stop  offset="1" style="stop-color:#851687"/>
	</linearGradient>
	<path class="st6" d="M110.9,19.2c1.9,1.9,3.9,3.9,5.8,5.8c-1.9,1.9-3.9,3.9-5.8,5.8c-1.9-1.9-3.9-3.9-5.8-5.8
		C107,23.1,109,21.1,110.9,19.2z"/>
	<linearGradient id="SVGID_8_" gradientUnits="userSpaceOnUse" x1="92.9059" y1="37.2273" x2="104.4589" y2="37.2273">
		<stop  offset="8.379889e-03" style="stop-color:#7A1687"/>
		<stop  offset="1" style="stop-color:#851687"/>
	</linearGradient>
	<path class="st7" d="M92.9,37.2c1.9-1.9,3.9-3.9,5.8-5.8c1.9,1.9,3.9,3.9,5.8,5.8c-1.9,1.9-3.8,3.9-5.7,5.8
		C96.8,41.1,94.8,39.1,92.9,37.2z"/>
	<linearGradient id="SVGID_9_" gradientUnits="userSpaceOnUse" x1="117.5784" y1="37.3018" x2="129.0235" y2="37.3018">
		<stop  offset="8.379889e-03" style="stop-color:#7A1687"/>
		<stop  offset="1" style="stop-color:#851687"/>
	</linearGradient>
	<path class="st8" d="M129,37.4c-1.8,1.8-3.8,3.8-5.6,5.7c-1.9-1.9-3.9-3.9-5.8-5.8c1.8-1.8,3.8-3.8,5.7-5.7
		C125,33.4,127,35.4,129,37.4z"/>
	<linearGradient id="SVGID_10_" gradientUnits="userSpaceOnUse" x1="105.1818" y1="49.5164" x2="116.7551" y2="49.5164">
		<stop  offset="8.379889e-03" style="stop-color:#7A1687"/>
		<stop  offset="1" style="stop-color:#851687"/>
	</linearGradient>
	<path class="st9" d="M110.9,55.3c-1.8-1.9-3.8-3.8-5.7-5.8c1.9-1.9,3.9-3.9,5.8-5.8c1.9,1.9,3.9,3.8,5.8,5.7
		C114.8,51.4,112.8,53.4,110.9,55.3z"/>
</g>
<g>
</g>
<g>
</g>
<g>
</g>
<g>
</g>
<g>
</g>
<g>
</g>
<g>
</g>
<g>
</g>
<g>
</g>
<g>
</g>
<g>
</g>
</svg>
