<?xml version="1.0" encoding="utf-8"?>
<!-- Generator: Adobe Illustrator 24.1.2, SVG Export Plug-In . SVG Version: 6.00 Build 0)  -->
<svg version="1.1" id="Camada_1" xmlns="http://www.w3.org/2000/svg" xmlns:xlink="http://www.w3.org/1999/xlink" x="0px" y="0px"
	 viewBox="0 0 77.6 64.2" style="enable-background:new 0 0 77.6 64.2;" xml:space="preserve">
<style type="text/css">
	.st0{fill:#FFFFFF;}
</style>
<path class="st0" d="M0,3.2c0.2-0.5,0.4-1,0.7-1.5c0.7-1,1.7-1.6,2.9-1.6c2.7,0,5.3-0.1,8,0c3.3,0.1,5.9,2.6,6.7,5.9
	c1.9,8.4,3.9,16.7,5.9,25.1c0.4,1.7,0.4,1.7,2.1,1.7c12.5,0,25,0,37.4,0c1.3,0,1.4-0.1,1.9-1.3c2.2-6,4.4-12,6.7-17.9
	c0.5-1.4,0.2-1.9-1.3-1.9c-12.3,0-24.6,0-36.8,0c-1.7,0-2.8-0.7-3-2.1c-0.3-1.4,0.7-2.7,2.1-2.9c0.3,0,0.7-0.1,1-0.1
	c12,0,24,0.1,36,0c3.7,0,6.5,1.3,7.5,5.3c0,0.6,0,1.2,0,1.8c-2.4,6.6-4.9,13.3-7.3,19.9c-0.8,2.2-2.2,3.7-4.5,4.2
	c-0.7,0.2-1.4,0.2-2.1,0.2c-12.3,0-24.7,0-37,0c-0.3,0-0.5,0-0.9,0c0.3,1.5,0.6,2.8,1,4.3c0.3,0,0.7,0,1,0c11.7,0,23.4,0,35.1,0
	c2.2,0,3.6,0.9,4.1,2.7c0.7,2.3-0.8,4.7-3.2,4.9c-1.2,0.1-2.5,0-3.8,0.1c2.3,2.1,3.4,4.7,2.9,7.8c-0.4,2.1-1.5,3.7-3.2,5
	c-3,2.3-7.8,1.8-10.4-1c-2.9-3.2-2.9-8.3,1-11.7c-4.8,0-9.6,0-14.4,0c2.2,1.9,3.3,4.2,3,7.1c-0.2,2-1.1,3.8-2.7,5.1
	c-3.4,2.9-8,2.5-10.9-0.5c-3-3.1-3.2-8.4,0.9-11.9c-0.4-0.1-0.8-0.1-1.1-0.2c-3.1-0.7-5-2.6-5.8-5.7c-1.5-6.4-3-12.9-4.5-19.3
	c-1.3-5.7-2.7-11.3-4-17.1c-0.2,0-0.5,0-0.7,0c-1.7,0-3.4,0-5.2,0C2,7.7,1.1,7.1,0,4.5C0,4.1,0,3.6,0,3.2z"/>
<g>
</g>
<g>
</g>
<g>
</g>
<g>
</g>
<g>
</g>
<g>
</g>
<g>
</g>
<g>
</g>
<g>
</g>
<g>
</g>
<g>
</g>
</svg>
