<?xml version="1.0" encoding="utf-8"?>
<!-- Generator: Adobe Illustrator 24.1.2, SVG Export Plug-In . SVG Version: 6.00 Build 0)  -->
<svg version="1.1" id="Camada_1" xmlns="http://www.w3.org/2000/svg" xmlns:xlink="http://www.w3.org/1999/xlink" x="0px" y="0px"
	 viewBox="0 0 45 29.6" style="enable-background:new 0 0 45 29.6;" xml:space="preserve">
<style type="text/css">
	.st0{fill:#772580;}
</style>
<g>
	<path class="st0" d="M22.6,0c6,0,12.1,0,18.1,0C43.6,0,45,1.5,45,4.4c0,7,0,14,0,20.9c0,2.9-1.5,4.3-4.3,4.3c-12.1,0-24.3,0-36.4,0
		c-2.8,0-4.3-1.5-4.3-4.3c0-7,0-14,0-21.1C0,1.5,1.5,0,4.3,0C10.4,0,16.5,0,22.6,0z M2.2,12c-0.1,0.1-0.1,0.2-0.1,0.3
		c0,4.5,0,9,0,13.5c0,1.3,0.8,1.8,2,1.8c12.3,0,24.5,0,36.8,0c1.5,0,2-0.6,2-2.2c0-2,0-4,0-6c0-2.4,0-4.9,0-7.4
		C29.3,12,15.7,12,2.2,12z M2.1,5.8c13.7,0,27.3,0,40.8,0c0.3-3.3,0-3.7-3.1-3.7C32.9,2,26,2,19.2,2c-5,0-10,0-14.9,0
		c-1.6,0-2.1,0.5-2.2,2.2C2.1,4.7,2.1,5.2,2.1,5.8z"/>
	<path class="st0" d="M12.2,16.3c2.3,0,4.1,1.7,4.2,4.1c0,2.3-1.8,4.2-4.1,4.2c-2.2,0-4.1-1.8-4.1-4.1C8.1,18.1,9.9,16.3,12.2,16.3z
		"/>
	<path class="st0" d="M8.7,24.3c-1.6,0.5-3.3-0.1-4.3-1.6c-1-1.4-0.9-3.5,0.1-4.9c1-1.4,2.7-1.9,4.2-1.4c-0.4,1.3-1.2,2.6-1.2,3.9
		C7.5,21.6,8.2,22.9,8.7,24.3z"/>
	<path class="st0" d="M37.9,21.4c-0.7,0-1.4,0.1-2.1,0c-0.4-0.1-0.8-0.6-0.9-1c0-0.2,0.5-0.9,0.9-0.9c1.5-0.1,2.9-0.1,4.4,0
		c0.3,0,0.6,0.6,1,1c-0.4,0.3-0.7,0.8-1.1,0.9C39.3,21.5,38.6,21.4,37.9,21.4C37.9,21.4,37.9,21.4,37.9,21.4z"/>
	<path class="st0" d="M22.3,21.4c-0.7,0-1.4,0.1-2,0c-0.4-0.1-0.7-0.6-1-0.9c0.3-0.3,0.7-0.9,1-0.9c1.4-0.1,2.8-0.1,4.3,0
		c0.4,0,0.7,0.6,1,0.9c-0.3,0.3-0.6,0.9-1,1C23.8,21.5,23.1,21.4,22.3,21.4z"/>
	<path class="st0" d="M30.1,21.4c-0.7,0-1.4,0.1-2,0c-0.4-0.1-0.7-0.6-1.1-0.9c0.3-0.3,0.7-0.9,1-1c1.4-0.1,2.8-0.1,4.3,0
		c0.4,0,0.7,0.6,1.1,0.9c-0.4,0.3-0.7,0.9-1.1,1C31.5,21.5,30.8,21.4,30.1,21.4z"/>
</g>
<g>
</g>
<g>
</g>
<g>
</g>
<g>
</g>
<g>
</g>
<g>
</g>
<g>
</g>
<g>
</g>
<g>
</g>
<g>
</g>
<g>
</g>
</svg>
