<?xml version="1.0" encoding="utf-8"?>
<!-- Generator: Adobe Illustrator 25.2.1, SVG Export Plug-In . SVG Version: 6.00 Build 0)  -->
<svg version="1.1" id="Camada_1" xmlns="http://www.w3.org/2000/svg" xmlns:xlink="http://www.w3.org/1999/xlink" x="0px" y="0px"
	 viewBox="0 0 125.84 125.84" style="enable-background:new 0 0 125.84 125.84;" xml:space="preserve">
<style type="text/css">
	.st0{fill:#782681;}
	.st1{opacity:0.82;}
	.st2{fill:#FFFFFF;}
	.st3{fill:url(#SVGID_1_);}
	.st4{fill:url(#SVGID_2_);}
	.st5{fill:url(#SVGID_3_);}
	.st6{fill:url(#SVGID_4_);}
	.st7{fill:url(#SVGID_5_);}
	.st8{fill:url(#SVGID_6_);}
</style>
<circle class="st0" cx="62.92" cy="62.92" r="62.92"/>
<g class="st1">
	<path class="st2" d="M31.64,43.08c0,13.27,0,26.42,0,39.83c0.88,0,1.67,0,2.47,0c8.2,0,16.39-0.07,24.59,0.05
		c1.92,0.03,3.83,0.68,5.7,1.03c1.79-0.34,3.7-0.96,5.62-1.03c4.46-0.16,8.94-0.13,13.41,0.02c0.87,0.03,2.35,0.86,2.43,1.45
		c0.18,1.48-1.19,1.54-2.37,1.53c-4.69-0.02-9.39,0.02-14.08-0.02c-1.86-0.02-3.16,0.49-3.56,2.55c-0.11,0.57-0.99,1.48-1.33,1.4
		c-0.62-0.13-1.45-0.82-1.58-1.41c-0.45-2.03-1.71-2.55-3.58-2.54c-9.31,0.04-18.63,0.02-27.94,0.01c-2.67,0-2.9-0.23-2.9-2.98
		c-0.01-13.41,0.03-26.82-0.03-40.23c-0.01-2.12,0.71-2.89,2.86-2.86c8.57,0.09,17.14,0.09,25.7,0c2.83-0.03,5.32,0.51,7.36,2.78
		c2.03-2.37,4.63-2.8,7.51-2.77c8.49,0.08,16.99,0.09,25.48-0.01c2.15-0.02,2.9,0.71,2.88,2.84c-0.07,9.83-0.02,19.67-0.03,29.5
		c0,1.17,0.2,2.7-1.48,2.74c-1.72,0.04-1.53-1.47-1.53-2.66c0-8.87,0-17.73,0-26.6c0-0.81,0-1.61,0-2.62
		c-0.95-0.04-1.74-0.11-2.53-0.11c-7.67-0.01-15.35-0.01-23.02,0c-4.45,0-5.76,1.28-5.76,5.67c0,9.91,0,19.82,0,29.73
		c0,0.52,0.18,1.15-0.05,1.54c-0.38,0.67-1.01,1.21-1.54,1.8c-0.48-0.56-1.1-1.05-1.4-1.7c-0.23-0.49-0.05-1.17-0.05-1.77
		c0-9.98,0-19.97,0-29.95c0-3.85-1.43-5.31-5.22-5.31c-7.97-0.01-15.94-0.01-23.92,0C33.05,42.97,32.4,43.04,31.64,43.08z"/>
	<path class="st2" d="M23.2,66.74c0-6.18-0.02-12.36,0.01-18.54c0.01-1.19-0.42-2.92,1.44-2.96c2.1-0.04,1.53,1.82,1.53,3.04
		c0.03,12.14,0.02,24.28,0.02,36.42c0,3.02,0.13,3.14,3.17,3.15c9.53,0.01,19.07,0.02,28.6-0.01c1.66-0.01,2.85,0.18,3.12,2.25
		c0.21,1.61,1.54,2.21,3.15,2.24c1.71,0.02,3.05-0.65,3.31-2.34c0.29-1.89,1.36-2.24,2.95-2.23c4.39,0.03,8.79-0.07,13.18,0.08
		c0.78,0.03,1.53,0.95,2.3,1.46c-0.77,0.51-1.53,1.42-2.33,1.45c-3.72,0.16-7.45,0.1-11.17,0.05c-1.2-0.02-1.92,0.22-2.6,1.45
		c-2.35,4.25-8.65,4.32-11.08,0.12c-0.75-1.3-1.54-1.49-2.82-1.48c-9.01,0.04-18.02,0.02-27.04,0.02c-4.21,0-5.74-1.55-5.74-5.83
		C23.19,78.96,23.2,72.85,23.2,66.74z"/>
	<linearGradient id="SVGID_1_" gradientUnits="userSpaceOnUse" x1="83.1669" y1="83.4216" x2="107.3186" y2="83.4216">
		<stop  offset="0" style="stop-color:#EB5E1D"/>
		<stop  offset="0.9693" style="stop-color:#F28A1A"/>
	</linearGradient>
	<path class="st3" d="M96.76,90.75c-0.68,0.85-1.28,1.71-2,2.46c-1.1,1.14-2.16,0.97-2.82-0.46c-2.93-6.42-5.83-12.86-8.67-19.31
		c-0.22-0.49-0.05-1.67,0.19-1.75c0.75-0.24,1.73-0.37,2.42-0.07c5.32,2.3,10.58,4.72,15.87,7.1c4.42,1.99,5.82,1.84,0.85,6.81
		c1.29,1.06,2.62,2.1,3.89,3.19c1.14,0.98,1.09,1.98,0.01,3.03c-5,4.93-3.75,4.71-8.24,0.34C97.89,91.73,97.49,91.4,96.76,90.75z
		 M101.71,82.01c-4.74-2.13-9.19-4.13-14.2-6.38c2.29,5.07,4.29,9.49,6.37,14.09c0.53-0.48,0.9-0.73,1.17-1.07
		c1.43-1.83,2.77-1.64,4.15,0.07c0.51,0.63,1.13,1.18,1.73,1.74c0.42,0.39,0.88,0.74,1.38,1.16c0.48-0.53,0.87-0.95,1.13-1.24
		C102.58,87.53,96.04,86.37,101.71,82.01z"/>
	<path class="st2" d="M105.18,61.28c0,4.55,0.08,9.1-0.07,13.64c-0.03,0.87-0.83,2.35-1.45,2.44c-1.54,0.23-1.53-1.19-1.53-2.35
		c0-9.09,0-18.19,0-27.28c0-1.11-0.17-2.49,1.45-2.5c1.76-0.01,1.58,1.46,1.58,2.64C105.19,52.33,105.18,56.81,105.18,61.28z"/>
	<path class="st2" d="M47.11,77.51c-2.53,0-5.07,0.1-7.59-0.06c-0.75-0.05-1.45-0.86-2.17-1.33c0.73-0.54,1.44-1.54,2.19-1.56
		c5.06-0.14,10.13-0.13,15.18,0c0.7,0.02,1.37,0.96,2.06,1.47c-0.69,0.49-1.36,1.36-2.08,1.41C52.18,77.61,49.65,77.5,47.11,77.51z"
		/>
	<path class="st2" d="M46.95,65.74c-2.46,0-4.93,0.13-7.37-0.07c-0.78-0.06-1.49-0.99-2.23-1.52c0.71-0.48,1.4-1.36,2.12-1.37
		c5.06-0.12,10.13-0.12,15.19,0c0.71,0.02,1.41,0.9,2.11,1.39c-0.74,0.53-1.46,1.45-2.24,1.51C52.03,65.86,49.48,65.74,46.95,65.74z
		"/>
	<path class="st2" d="M47.07,71.63c-2.53,0-5.07,0.11-7.59-0.07c-0.74-0.05-1.42-0.91-2.12-1.4c0.67-0.53,1.33-1.49,2.01-1.51
		c5.14-0.13,10.28-0.13,15.42,0c0.68,0.02,1.34,0.99,2,1.52c-0.7,0.49-1.38,1.34-2.12,1.39C52.14,71.74,49.6,71.63,47.07,71.63z"/>
	<path class="st2" d="M47.29,56.82c1.48,0,3-0.17,4.44,0.07c0.74,0.12,1.37,0.95,2.05,1.45c-0.63,0.49-1.24,1.38-1.89,1.41
		c-3.04,0.15-6.09,0.15-9.13,0c-0.66-0.03-1.28-0.89-1.91-1.37c0.66-0.52,1.26-1.37,1.99-1.49C44.3,56.65,45.81,56.82,47.29,56.82z"
		/>
	<linearGradient id="SVGID_2_" gradientUnits="userSpaceOnUse" x1="62.794" y1="18.8059" x2="65.941" y2="18.8059">
		<stop  offset="0" style="stop-color:#EB5E1D"/>
		<stop  offset="0.9693" style="stop-color:#F28A1A"/>
	</linearGradient>
	<path class="st4" d="M65.88,18.92c0,1.26,0.17,2.56-0.06,3.78c-0.13,0.7-0.92,1.27-1.42,1.9c-0.52-0.61-1.44-1.18-1.48-1.82
		c-0.17-2.67-0.17-5.36,0-8.02c0.04-0.62,0.98-1.18,1.51-1.76c0.48,0.63,1.26,1.22,1.38,1.92C66.04,16.22,65.88,17.59,65.88,18.92z"
		/>
	<linearGradient id="SVGID_3_" gradientUnits="userSpaceOnUse" x1="37.263" y1="30.243" x2="47.2598" y2="30.243">
		<stop  offset="0" style="stop-color:#EB5E1D"/>
		<stop  offset="0.9693" style="stop-color:#F28A1A"/>
	</linearGradient>
	<path class="st5" d="M38.61,27.08c0.47,0.21,0.96,0.39,1.4,0.65c2.06,1.2,4.18,2.31,6.11,3.68c0.63,0.45,0.77,1.59,1.14,2.41
		c-0.85,0.06-1.86,0.46-2.51,0.13c-2.32-1.18-4.55-2.54-6.72-3.97c-0.47-0.31-0.72-1.2-0.76-1.85c-0.04-0.56,0.35-1.15,0.56-1.73
		C38.08,26.63,38.35,26.86,38.61,27.08z"/>
	<linearGradient id="SVGID_4_" gradientUnits="userSpaceOnUse" x1="81.4015" y1="30.6913" x2="91.5721" y2="30.6913">
		<stop  offset="0" style="stop-color:#EB5E1D"/>
		<stop  offset="0.9693" style="stop-color:#F28A1A"/>
	</linearGradient>
	<path class="st6" d="M91.57,29c-0.2,0.23-0.49,0.78-0.95,1.06c-2.28,1.41-4.55,2.83-6.93,4.04c-0.56,0.29-1.52-0.21-2.29-0.35
		c0.22-0.7,0.23-1.72,0.7-2.04c2.28-1.53,4.67-2.92,7.07-4.25C90.43,26.78,91.61,27.45,91.57,29z"/>
	<linearGradient id="SVGID_5_" gradientUnits="userSpaceOnUse" x1="49.793" y1="23.6972" x2="54.9947" y2="23.6972">
		<stop  offset="0" style="stop-color:#EB5E1D"/>
		<stop  offset="0.9693" style="stop-color:#F28A1A"/>
	</linearGradient>
	<path class="st7" d="M54.17,27.1c-0.99-0.7-1.48-0.91-1.79-1.28c-0.89-1.08-1.83-2.16-2.48-3.39c-0.28-0.53,0.09-1.42,0.17-2.14
		c0.67,0.07,1.62-0.11,1.97,0.27c1.11,1.17,2.16,2.47,2.89,3.89C55.2,24.98,54.52,25.99,54.17,27.1z"/>
	<linearGradient id="SVGID_6_" gradientUnits="userSpaceOnUse" x1="73.5911" y1="23.0583" x2="78.9855" y2="23.0583">
		<stop  offset="0" style="stop-color:#EB5E1D"/>
		<stop  offset="0.9693" style="stop-color:#F28A1A"/>
	</linearGradient>
	<path class="st8" d="M78.46,19.77c0.19,0.92,0.73,1.93,0.44,2.51c-0.69,1.36-1.7,2.6-2.77,3.71c-0.37,0.39-1.34,0.44-1.94,0.27
		c-0.31-0.08-0.74-1.17-0.56-1.44c1.04-1.59,2.22-3.09,3.4-4.59C77.18,20.05,77.57,20.05,78.46,19.77z"/>
</g>
</svg>
