<?xml version="1.0" encoding="utf-8"?>
<!-- Generator: Adobe Illustrator 25.2.1, SVG Export Plug-In . SVG Version: 6.00 Build 0)  -->
<svg version="1.1" id="Camada_1" xmlns="http://www.w3.org/2000/svg" xmlns:xlink="http://www.w3.org/1999/xlink" x="0px" y="0px"
	 viewBox="0 0 105.9 105.9" style="enable-background:new 0 0 105.9 105.9;" xml:space="preserve">
<style type="text/css">
	.st0{fill:url(#SVGID_1_);}
	.st1{fill:#FFFFFF;}
	.st2{fill:url(#SVGID_2_);}
</style>
<linearGradient id="SVGID_1_" gradientUnits="userSpaceOnUse" x1="0" y1="52.9493" x2="105.8987" y2="52.9493">
	<stop  offset="8.379889e-03" style="stop-color:#772182"/>
	<stop  offset="1" style="stop-color:#812082"/>
</linearGradient>
<circle class="st0" cx="52.9" cy="52.9" r="52.9"/>
<path class="st1" d="M45.4,26.2c0-1.5,0-2.9,0-4.3c-0.1-1.5,0.6-2,2.1-1.9c4.1,0.3,7.4,2,9.9,5.1c0.7,0.9,1.5,1.2,2.6,1.2
	c7,0,13.9,0,20.9,0c2.2,0,2.3,0.1,2.3,2.3c0,12.6,0,25.2,0,37.8c0,0.7,0,1.3,0,2c0.5,0.1,0.7,0.2,1,0.2c4.1-0.1,3.3,0.3,3.4,3.6
	c0,1.1,0,2.3,0,3.4c-0.1,2.6-2.1,4.6-4.7,4.8c-0.5,0-0.9,0-1.4,0c-19,0-38.1,0-57.1,0c-3.1,0-5-1.1-5.7-3.5c-0.3-0.9-0.3-2-0.3-3
	c0-1.5-0.5-3.4,0.3-4.5c0.6-0.9,2.5-0.8,4.1-1.2c0-0.5,0-1.1,0-1.8c0-12.5,0-25.1,0-37.6c0-2.4,0.1-2.5,2.5-2.5c1.9,0,3.7,0,5.6,0
	c2.4,0,4.7,0.2,7-1c1-0.5,2.3-0.5,3.5-0.6c0.4,0,1.3,0.2,1.3,0.5C43.1,26.7,44.2,26.2,45.4,26.2z M59.8,28.6
	c0.3,1.5,0.6,2.9,0.8,4.3c0.2,1.4-0.3,2.1-1.8,2.1c-3.8,0-7.6,0-11.4,0c-1.4,0-1.9-0.6-1.9-2c0-1.5,0-2.9,0-4.4c-0.9,0-1.6,0-2.3,0
	c0,2.9,0,5.7,0,8.7c3,0,6,0,8.9,0c4.1-0.1,4.2-0.2,3.4,4.4c0,0.1,0,0.1-0.1,0.2c-1.5,5.5-6,9.7-11.3,10.4c-6,0.8-11.5-1.9-14.4-7
	c-2.8-5-2.2-11,1.4-15.6c0.3-0.3,0.5-0.7,0.8-1.1c-2.3,0-4.4,0-6.6,0c0,11.8,0,23.5,0,35.3c18.6,0,37,0,55.5,0c0-11.9,0-23.6,0-35.4
	C73.7,28.6,66.8,28.6,59.8,28.6z M20.6,70.9c0,0.8,0,1.5,0,2.2c0,4.2,0.7,4.8,4.8,4.8c18.4,0,36.8,0,55.3,0c0.7,0,1.5,0.2,2-0.1
	c0.9-0.5,2.1-1.2,2.3-2.1c0.4-1.6,0.3-3.3,0.3-5c-6.3,0-12.2,0-18.1,0c-0.4,3.1-1.3,3.9-4.4,3.9c-6.5,0-12.9,0-19.4,0
	c-3.4,0-4.1-0.5-4.8-3.9C32.7,70.9,26.8,70.9,20.6,70.9z M40.6,27.3c-5.5-0.1-10.4,5.5-10.4,11.4c0.1,6.4,5.4,11.7,11.8,11.5
	c5.8-0.1,11.3-5.3,11.1-10.5c-3.4,0-6.8,0-10.2,0c-2.1,0-2.3-0.2-2.3-2.3C40.6,34.1,40.6,30.7,40.6,27.3z M25.3,68.5
	c0.6,0,1.2,0,1.8,0c4,0,7.9,0,11.9,0c1.5,0,2.3,0.4,2.1,2c-0.2,1.5,0.4,1.9,1.9,1.9c6.6-0.1,13.1-0.1,19.7,0c1.5,0,2.3-0.3,2-2
	c-0.2-1.5,0.6-2,2-2c4,0.1,8,0,12.1,0c0.6,0,1.2,0,2,0c0-0.8-0.1-1.4-0.1-2c-0.5,0-0.7-0.1-1-0.1c-17.7,0-35.5,0-53.2,0
	C24.9,66.4,25,67.2,25.3,68.5z M58,32.6c0-4.7-5.2-10.3-10.2-10c0,3.3,0,6.6,0,10C51.3,32.6,54.6,32.6,58,32.6z"/>
<linearGradient id="SVGID_2_" gradientUnits="userSpaceOnUse" x1="52.7141" y1="54.3871" x2="78.0144" y2="54.3871">
	<stop  offset="0" style="stop-color:#EB5E1D"/>
	<stop  offset="0.9693" style="stop-color:#F28A1A"/>
</linearGradient>
<path class="st2" d="M65.3,58.4c-2.7,0-5.3,0-8,0c-2.8,0-4.5-1.6-4.6-4c0-2.5,1.7-4.1,4.6-4.1c5.4,0,10.8,0,16.1,0
	c2.8,0,4.6,1.7,4.6,4.1c0,2.3-1.9,3.9-4.6,4C70.7,58.5,68,58.4,65.3,58.4z M65.4,52.7c-2.7,0-5.4,0-8.1,0c-1.2,0-2.2,0.3-2.2,1.7
	c0,1.3,0.9,1.7,2.1,1.6c5.4,0,10.9,0,16.3,0c1.2,0,2.1-0.3,2.1-1.6c0-1.4-1-1.7-2.2-1.7C70.7,52.7,68.1,52.7,65.4,52.7z"/>
<g>
</g>
<g>
</g>
<g>
</g>
<g>
</g>
<g>
</g>
<g>
</g>
</svg>
