<?xml version="1.0" encoding="utf-8"?>
<!-- Generator: Adobe Illustrator 24.1.2, SVG Export Plug-In . SVG Version: 6.00 Build 0)  -->
<svg version="1.1" id="Camada_1" xmlns="http://www.w3.org/2000/svg" xmlns:xlink="http://www.w3.org/1999/xlink" x="0px" y="0px"
	 viewBox="0 0 64.1 50.9" style="enable-background:new 0 0 64.1 50.9;" xml:space="preserve">
<style type="text/css">
	.st0{fill:#772580;}
</style>
<g>
	<g>
		<path class="st0" d="M27.3,0.6L17.6,36l-3.2-13.3c4.2,0,7.7,1.2,10.3,3.7c2.7,2.5,4,5.9,4,10.2c0,4.2-1.4,7.6-4.1,10.3
			c-2.7,2.6-6.1,3.9-10.1,3.9c-4.1,0-7.5-1.3-10.3-3.9c-2.7-2.6-4.1-6-4.1-10.3c0-1.3,0.1-2.5,0.3-3.8c0.2-1.2,0.6-2.7,1.2-4.4
			c0.6-1.7,1.4-3.9,2.5-6.6l8.6-21.2H27.3z M62.1,0.6L52.4,36l-3.2-13.3c4.2,0,7.7,1.2,10.3,3.7c2.7,2.5,4,5.9,4,10.2
			c0,4.2-1.4,7.6-4.1,10.3c-2.7,2.6-6.1,3.9-10.1,3.9c-4.1,0-7.5-1.3-10.3-3.9c-2.7-2.6-4.1-6-4.1-10.3c0-1.3,0.1-2.5,0.3-3.8
			c0.2-1.2,0.6-2.7,1.2-4.4c0.6-1.7,1.4-3.9,2.5-6.6l8.6-21.2H62.1z"/>
	</g>
</g>
<g>
</g>
<g>
</g>
<g>
</g>
<g>
</g>
<g>
</g>
<g>
</g>
<g>
</g>
<g>
</g>
<g>
</g>
<g>
</g>
<g>
</g>
</svg>
