<?xml version="1.0" encoding="utf-8"?>
<!-- Generator: Adobe Illustrator 25.2.1, SVG Export Plug-In . SVG Version: 6.00 Build 0)  -->
<svg version="1.1" id="Camada_1" xmlns="http://www.w3.org/2000/svg" xmlns:xlink="http://www.w3.org/1999/xlink" x="0px" y="0px"
	 viewBox="0 0 99 81.9" style="enable-background:new 0 0 99 81.9;" xml:space="preserve">
<style type="text/css">
	.st0{fill:url(#SVGID_1_);}
</style>
<linearGradient id="SVGID_1_" gradientUnits="userSpaceOnUse" x1="0" y1="40.9588" x2="98.9886" y2="40.9588">
	<stop  offset="0" style="stop-color:#EB5E1D"/>
	<stop  offset="0.9693" style="stop-color:#F28E1C"/>
</linearGradient>
<path class="st0" d="M0,4c0.3-0.6,0.5-1.3,0.9-1.9C1.8,0.9,3,0.1,4.6,0C7.9,0,11.3,0,14.7,0.1c4.2,0.2,7.5,3.3,8.5,7.6
	c2.5,10.7,5,21.4,7.5,32c0.5,2.2,0.5,2.2,2.7,2.2c15.9,0,31.8,0,47.8,0c1.7,0,1.8-0.1,2.4-1.6c2.8-7.6,5.7-15.3,8.5-22.9
	c0.7-1.8,0.3-2.5-1.7-2.5c-15.7,0-31.3,0-47,0c-2.2,0-3.5-0.9-3.8-2.7c-0.3-1.8,0.9-3.5,2.7-3.7c0.4-0.1,0.8-0.1,1.3-0.1
	c15.3,0,30.6,0.1,45.9-0.1c4.8,0,8.4,1.6,9.6,6.7c0,0.8,0,1.5,0,2.3c-3.1,8.5-6.2,16.9-9.4,25.4c-1,2.8-2.9,4.7-5.8,5.4
	c-0.9,0.2-1.8,0.2-2.7,0.2c-15.7,0-31.4,0-47.2,0c-0.3,0-0.7,0-1.2,0c0.4,1.9,0.8,3.6,1.3,5.4c0.4,0,0.8,0,1.2,0
	c14.9,0,29.8,0,44.7,0c2.8,0,4.6,1.2,5.3,3.5c0.9,2.9-1.1,5.9-4.1,6.2c-1.6,0.1-3.2,0-4.9,0.1c2.9,2.7,4.3,6,3.6,9.9
	c-0.5,2.7-1.9,4.7-4,6.4c-3.9,3-10,2.3-13.3-1.3C59,74.5,59,68,64,63.8c-6.2,0-12.2,0-18.4,0c2.8,2.4,4.2,5.4,3.9,9.1
	c-0.3,2.6-1.4,4.8-3.4,6.5c-4.3,3.7-10.2,3.2-13.9-0.6c-3.8-4-4.1-10.7,1.2-15.1c-0.5-0.1-1-0.1-1.4-0.2c-3.9-0.9-6.4-3.3-7.4-7.2
	c-2-8.2-3.9-16.4-5.8-24.6c-1.7-7.2-3.4-14.5-5.1-21.8c-0.3,0-0.6,0-0.9,0c-2.2,0-4.4,0-6.6,0C2.5,9.8,1.4,9.1,0,5.8
	C0,5.2,0,4.6,0,4z"/>
<g>
</g>
<g>
</g>
<g>
</g>
<g>
</g>
<g>
</g>
<g>
</g>
</svg>
