<?xml version="1.0" encoding="utf-8"?>
<!-- Generator: Adobe Illustrator 25.2.1, SVG Export Plug-In . SVG Version: 6.00 Build 0)  -->
<svg version="1.1" id="Camada_1" xmlns="http://www.w3.org/2000/svg" xmlns:xlink="http://www.w3.org/1999/xlink" x="0px" y="0px"
	 viewBox="0 0 119 118.5" style="enable-background:new 0 0 119 118.5;" xml:space="preserve">
<style type="text/css">
	.st0{fill:url(#SVGID_1_);}
	.st1{fill:url(#SVGID_2_);}
	.st2{fill:url(#SVGID_3_);}
	.st3{fill:url(#SVGID_4_);}
</style>
<g>
	<linearGradient id="SVGID_1_" gradientUnits="userSpaceOnUse" x1="0" y1="98.5074" x2="118.9848" y2="98.5074">
		<stop  offset="8.379889e-03" style="stop-color:#772182"/>
		<stop  offset="1" style="stop-color:#812082"/>
	</linearGradient>
	<path class="st0" d="M0.1,98.9c0-5.7,0-11.4,0-17.1c0-0.4,0.1-0.8,0.1-1.3c0.2-1.3,0.6-1.8,1.9-1.8c4.3-0.1,8.6-0.2,12.9-0.2
		c2.5,0,5,0.1,7.5,0.2c1.3,0.1,2.1,0.8,2.2,2.1c0.1,0.7,0,1.4,0.1,2.2c0,0.9,0.1,1,1,0.9c5-0.3,10-0.6,15-0.8
		c6.3-0.2,12.5,0.7,18.5,2.6c7.5,2.3,15.1,4.4,22.6,6.6c1.7,0.5,3.3,1.2,4.6,2.4c0.4,0.4,0.8,0.4,1.3,0.2c6.3-2.9,12.6-5.8,19-8.6
		c4.2-1.9,9.3,0,11.3,4.1c2,4.1,0.5,9.2-3.7,11.4c-2.5,1.3-5.1,2.5-7.6,3.6c-7.3,3.3-14.7,6.5-22,9.8c-2.6,1.2-5.3,1.7-8.1,1.8
		c-5,0.3-10.1,0.3-15.1-0.4c-8.2-1-16.2-3.1-23.7-6.4c-2.7-1.2-5.3-1.2-8-0.7c-1.5,0.3-2.9,0.7-4.3,1c-0.4,0.1-0.5,0.3-0.6,0.7
		c-0.1,1.8-0.1,3.5-0.2,5.3c-0.1,1.2-0.5,1.7-1.7,1.7c-2.4,0.1-4.8,0.2-7.2,0.2c-4.5,0-9,0-13.5,0c-1,0-2.3-1.3-2.3-2.3
		c0-5.8,0-11.5,0-17.3C0,98.9,0.1,98.9,0.1,98.9z M24.8,105.5c1.4-0.3,2.7-0.6,4-0.8c3.6-0.6,7.1-0.7,10.6,0.9
		c5.9,2.6,12,4.4,18.3,5.5c5.9,1.1,11.9,1.7,17.9,1.2c2.6-0.2,5.2-0.7,7.6-1.8c6.4-2.9,12.8-5.7,19.2-8.6c3.4-1.5,6.7-3.2,10.1-4.7
		c0.8-0.4,1.5-1,1.6-2c0.2-1.7-0.5-3.1-1.7-4.2c-1.1-1-2.3-0.7-3.5-0.1c-6,2.7-12.1,5.5-18.2,8.1c-1.3,0.6-1.8,1.2-1.8,2.6
		c0,4.2-4.9,9.1-10.4,7.7c-3.9-1-7.7-2.1-11.5-3.2c-6.1-1.8-12.1-3.7-18.2-5.6c-1.4-0.4-2-1.6-1.6-2.9c0.4-1.3,1.7-2,3-1.6
		c6.2,1.8,12.4,3.6,18.6,5.4c3.7,1,7.3,2.1,11,3c2.3,0.6,3.2-0.1,3.9-2.3c0.1-0.2,0.1-0.3,0.1-0.5c0.5-2-0.4-3.5-2.3-4.1
		c-0.3-0.1-0.6-0.2-0.8-0.3c-8-2.3-15.9-4.7-23.9-7c-2.3-0.6-4.5-1.5-6.8-1.6c-5.1-0.3-10.3-0.4-15.4-0.3c-3,0-6.1,0.5-9.1,0.7
		c-0.7,0-0.8,0.3-0.8,0.9c0,4.9,0,9.9,0,14.8C24.8,104.9,24.8,105.1,24.8,105.5z M19.9,113.5c0-10,0-19.9,0-29.9c-5,0-9.9,0-14.9,0
		c0,10,0,19.9,0,29.9C10,113.5,14.9,113.5,19.9,113.5z"/>
	<linearGradient id="SVGID_2_" gradientUnits="userSpaceOnUse" x1="40.2182" y1="38.6213" x2="99.6784" y2="38.6213">
		<stop  offset="0" style="stop-color:#EB5E1D"/>
		<stop  offset="0.9693" style="stop-color:#F28A1A"/>
	</linearGradient>
	<path class="st1" d="M82.7,32.9c1.5,0.7,3,1.2,4.4,1.9c7,3.8,11.5,9.6,12.4,17.7c0.8,6.9-1.6,12.9-6.3,17.8
		c-4.7,4.9-10.6,7.3-17.4,6.8c-6.4-0.4-11.6-3.4-15.7-8.2c-4.5-5.3-6.1-11.5-4.9-18.3c0.3-1.8,1.1-3.5,1.8-5.3
		c0.4-1.2,0.4-1.2-0.8-1.6c-7.6-2.7-12.9-7.8-15.1-15.5c-2.2-7.9-0.3-15,5.3-21c3.6-3.9,8.1-6.4,13.4-7.1c6.9-0.8,12.9,1.2,18.1,6
		c4.4,4.1,6.7,9.2,7.2,15.1c0.3,3.6-0.5,7.1-1.9,10.4c-0.1,0.3-0.3,0.6-0.4,1C82.8,32.7,82.8,32.8,82.7,32.9z M94.5,54.8
		c-0.1-1.3,0-2.6-0.2-3.9c-0.7-3.7-2.6-6.9-5.4-9.3c-5.5-4.6-11.8-5.5-18.3-3c-6.4,2.4-9.8,7.4-10.7,14.1
		c-1.1,9.1,4.9,17.5,13.7,19.1c4.8,0.9,9.6,0.3,13.6-2.6C92.1,65.8,94.9,61,94.5,54.8z M80,22.5c-0.1-1.3-0.1-2.7-0.3-4
		c-0.8-4.2-3.1-7.4-6.4-10c-2.9-2.3-6.2-3.3-9.9-3.5C59,4.8,55,5.9,51.5,8.8c-5.4,4.5-7,10.5-5.9,17.3c1.1,6.7,6.6,11.9,13.4,13.4
		c1.2,0.3,2.2,0,3.1-0.9c3.9-3.8,8.6-5.8,14-6.2c1-0.1,1.5-0.4,1.9-1.2C79.5,28.5,80.2,25.6,80,22.5z"/>
	<linearGradient id="SVGID_3_" gradientUnits="userSpaceOnUse" x1="67.68" y1="54.7281" x2="85.7131" y2="54.7281">
		<stop  offset="0" style="stop-color:#EB5E1D"/>
		<stop  offset="0.9693" style="stop-color:#F28A1A"/>
	</linearGradient>
	<path class="st2" d="M73.6,49.3c0,0.7,0.3,1.3,0.9,1.7c0.8,0.4,1.7,0.8,2.6,1.1c2,0.6,3.8,1.3,5.5,2.6c3,2.2,3.9,5.2,2.4,8.3
		c-0.9,1.8-2.3,3.1-4.1,4c-0.8,0.4-1.3,0.8-1.4,1.8c-0.1,1.2-1.3,2.1-2.6,2c-1.2-0.1-2.2-0.9-2.3-2.2c0-0.8-0.4-1.1-1-1.3
		c-1.4-0.6-2.8-1.3-4.1-2.1c-0.6-0.3-1.1-0.8-1.5-1.4c-0.7-0.9-0.5-2.1,0.2-2.9c0.8-0.9,1.9-1.1,3-0.5c0.5,0.3,0.9,0.6,1.3,0.9
		c1.8,1.3,3.8,1.8,6,1.4c1.2-0.2,1.8-0.9,2-2.2c0.2-1-0.2-1.7-1.3-2.2c-1-0.5-2.1-0.8-3.2-1.3c-1.4-0.6-2.9-1.2-4.2-2
		c-4.2-2.7-4.6-7.4-0.9-10.8c0.8-0.8,1.9-1.3,2.9-1.9c0.5-0.3,0.8-0.6,0.8-1.3c0.1-1.3,0.9-2.2,2.1-2.3c1.3-0.1,2.5,0.6,2.7,1.9
		c0.2,1,0.7,1.5,1.6,1.9c1.3,0.6,2.4,1.6,3.3,2.7c1.2,1.6,0.2,3.8-1.8,3.9c-0.5,0-1.1-0.3-1.6-0.5c-0.2-0.1-0.4-0.4-0.6-0.6
		c-1.4-1.7-3.3-1.7-5.2-1.1C74.1,47.3,73.6,48.1,73.6,49.3z"/>
	<linearGradient id="SVGID_4_" gradientUnits="userSpaceOnUse" x1="54.5491" y1="22.3893" x2="70.6445" y2="22.3893">
		<stop  offset="0" style="stop-color:#EB5E1D"/>
		<stop  offset="0.9693" style="stop-color:#F28A1A"/>
	</linearGradient>
	<path class="st3" d="M69.9,15.2c0,1.5-0.6,2.2-1.5,2.7c-0.9,0.4-1.7,0.3-2.5-0.4c-0.2-0.2-0.4-0.3-0.5-0.5c-1.1-1.4-2.5-1.3-3.9-1
		c-0.7,0.2-1.2,0.7-1.3,1.5c-0.1,0.8,0.3,1.3,1,1.6c0.8,0.4,1.7,0.7,2.5,1c1.2,0.5,2.5,1,3.6,1.6c4.3,2.6,4.6,7.4,0.5,10.6
		c-0.5,0.4-1.2,0.7-1.7,1.1c-0.3,0.2-0.6,0.6-0.7,1c-0.3,1.2-1.3,2.3-2.2,2.2c-1.4,0-2.5-0.9-2.7-2.3c-0.1-0.4-0.2-0.6-0.7-0.8
		c-1.4-0.7-2.8-1.4-4.1-2.3c-1.4-1-1.4-2.6-0.3-3.8c0.6-0.7,1.4-0.9,2.2-0.5c0.9,0.4,1.8,0.9,2.7,1.4c1.3,0.7,2.6,1.1,4,0.7
		c0.7-0.2,1.1-0.6,1.3-1.3c0.2-0.9,0-1.4-0.8-1.8c-1-0.5-2.1-0.7-3-1.2c-1.4-0.7-3-1.3-4.2-2.3c-2.6-2-3-5.6-0.9-8.2
		c0.8-1.1,1.8-2,3.1-2.5c0.5-0.2,0.8-0.5,0.8-1.1c0.1-1.1,1.4-2.2,2.5-2.2c1.2,0,2.2,0.8,2.4,2.1c0.1,0.6,0.6,0.9,1,1.2
		c0.9,0.7,1.9,1.3,2.8,2.1C69.6,14.1,69.8,14.8,69.9,15.2z"/>
</g>
<g>
</g>
<g>
</g>
<g>
</g>
<g>
</g>
<g>
</g>
<g>
</g>
</svg>
