<?xml version="1.0" encoding="utf-8"?>
<!-- Generator: Adobe Illustrator 24.1.2, SVG Export Plug-In . SVG Version: 6.00 Build 0)  -->
<svg version="1.1" id="Camada_1" xmlns="http://www.w3.org/2000/svg" xmlns:xlink="http://www.w3.org/1999/xlink" x="0px" y="0px"
	 viewBox="0 0 69.9 69.9" style="enable-background:new 0 0 69.9 69.9;" xml:space="preserve">
<style type="text/css">
	.st0{fill:#772580;}
</style>
<g>
	<path class="st0" d="M0,34.9C0.1,15.6,15.8-0.1,35,0c19.3,0.1,35,15.8,34.9,35c-0.1,19.3-15.8,35-35,34.9
		C15.6,69.8-0.1,54.1,0,34.9z M34.9,6.4C19.2,6.4,6.4,19.2,6.4,34.9c0,15.8,12.8,28.6,28.6,28.6c15.8,0,28.6-12.8,28.6-28.6
		C63.5,19.2,50.7,6.4,34.9,6.4z"/>
	<path class="st0" d="M38.1,24.5c0,2.8,0,5.7,0,8.5c0,0.4,0.2,0.9,0.5,1.1c2.5,2.5,5,5,7.5,7.5c0.9,0.9,1.2,2.1,0.8,3.3
		c-0.4,1.2-1.3,1.9-2.6,2.1c-1,0.1-1.9-0.2-2.6-0.9c-3-3-6-6-9-9c-0.6-0.6-0.9-1.3-0.9-2.1c0-6.4,0-12.7,0-19.1
		c0-1.8,1.4-3.1,3.2-3.1c1.8,0,3.1,1.3,3.1,3.2C38.1,18.7,38.1,21.6,38.1,24.5z"/>
</g>
<g>
</g>
<g>
</g>
<g>
</g>
<g>
</g>
<g>
</g>
<g>
</g>
<g>
</g>
<g>
</g>
<g>
</g>
<g>
</g>
<g>
</g>
</svg>
