<?xml version="1.0" encoding="utf-8"?>
<!-- Generator: Adobe Illustrator 24.1.2, SVG Export Plug-In . SVG Version: 6.00 Build 0)  -->
<svg version="1.1" id="Camada_1" xmlns="http://www.w3.org/2000/svg" xmlns:xlink="http://www.w3.org/1999/xlink" x="0px" y="0px"
	 viewBox="0 0 1954.3 723.8" style="enable-background:new 0 0 1954.3 723.8;" xml:space="preserve">
<style type="text/css">
	.st0{opacity:6.000000e-02;fill:url(#SVGID_1_);enable-background:new    ;}
	.st1{opacity:6.000000e-02;}
	.st2{fill:url(#SVGID_2_);}
	.st3{fill:url(#SVGID_3_);}
	.st4{fill:url(#SVGID_4_);}
	.st5{fill:url(#SVGID_5_);}
	.st6{opacity:6.000000e-02;fill:url(#SVGID_6_);enable-background:new    ;}
	.st7{fill:url(#SVGID_7_);}
	.st8{fill:url(#SVGID_8_);}
	.st9{fill:url(#SVGID_9_);}
	.st10{fill:url(#SVGID_10_);}
</style>
<linearGradient id="SVGID_1_" gradientUnits="userSpaceOnUse" x1="2157.5322" y1="-1613.3638" x2="2386.8323" y2="-1613.3638" gradientTransform="matrix(1 0 0 1 -2132.0322 1673.3137)">
	<stop  offset="0" style="stop-color:#D7C7DA"/>
	<stop  offset="1" style="stop-color:#936D9F"/>
</linearGradient>
<path class="st0" d="M244.2,89c0-2.9,2.4-5.3,5.3-5.3s5.3,2.4,5.3,5.3s-2.4,5.3-5.3,5.3C246.6,94.3,244.2,91.9,244.2,89z
	 M213.1,94.3c2.9,0,5.3-2.4,5.3-5.3s-2.4-5.3-5.3-5.3c-2.9,0-5.3,2.4-5.3,5.3S210.1,94.3,213.1,94.3z M176.6,94.3
	c2.9,0,5.3-2.4,5.3-5.3s-2.4-5.3-5.3-5.3c-2.9,0-5.3,2.4-5.3,5.3S173.6,94.3,176.6,94.3z M140.1,94.3c2.9,0,5.3-2.4,5.3-5.3
	s-2.4-5.3-5.3-5.3c-2.9,0-5.3,2.4-5.3,5.3S137.2,94.3,140.1,94.3z M103.7,94.3c2.9,0,5.3-2.4,5.3-5.3s-2.4-5.3-5.3-5.3
	s-5.3,2.4-5.3,5.3C98.3,91.9,100.7,94.3,103.7,94.3z M67.2,94.3c2.9,0,5.3-2.4,5.3-5.3s-2.4-5.3-5.3-5.3s-5.3,2.4-5.3,5.3
	S64.3,94.3,67.2,94.3z M30.8,94.3c2.9,0,5.3-2.4,5.3-5.3s-2.4-5.3-5.3-5.3s-5.3,2.4-5.3,5.3S27.8,94.3,30.8,94.3z M249.5,65.3
	c2.9,0,5.3-2.4,5.3-5.3c0-2.9-2.4-5.3-5.3-5.3c-2.9,0-5.3,2.4-5.3,5.3S246.6,65.3,249.5,65.3z M213.1,65.3c2.9,0,5.3-2.4,5.3-5.3
	s-2.4-5.3-5.3-5.3s-5.3,2.4-5.3,5.3C207.7,62.9,210.1,65.3,213.1,65.3z M176.6,65.3c2.9,0,5.3-2.4,5.3-5.3s-2.4-5.3-5.3-5.3
	s-5.3,2.4-5.3,5.3S173.6,65.3,176.6,65.3z M140.1,65.3c2.9,0,5.3-2.4,5.3-5.3c0-2.9-2.4-5.3-5.3-5.3s-5.3,2.4-5.3,5.3
	S137.2,65.3,140.1,65.3z M103.7,65.3c2.9,0,5.3-2.4,5.3-5.3c0-2.9-2.4-5.3-5.3-5.3s-5.3,2.4-5.3,5.3
	C98.3,62.9,100.7,65.3,103.7,65.3z M67.2,65.3c2.9,0,5.3-2.4,5.3-5.3c0-2.9-2.4-5.3-5.3-5.3s-5.3,2.4-5.3,5.3S64.3,65.3,67.2,65.3z
	 M30.8,65.3c2.9,0,5.3-2.4,5.3-5.3c0-2.9-2.4-5.3-5.3-5.3s-5.3,2.4-5.3,5.3S27.8,65.3,30.8,65.3z M249.5,36.2c2.9,0,5.3-2.4,5.3-5.3
	s-2.4-5.3-5.3-5.3s-5.3,2.4-5.3,5.3S246.6,36.2,249.5,36.2z M213.1,36.2c2.9,0,5.3-2.4,5.3-5.3s-2.4-5.3-5.3-5.3s-5.3,2.4-5.3,5.3
	C207.7,33.8,210.1,36.2,213.1,36.2z M176.6,36.2c2.9,0,5.3-2.4,5.3-5.3s-2.4-5.3-5.3-5.3s-5.3,2.4-5.3,5.3S173.6,36.2,176.6,36.2z
	 M140.1,36.2c2.9,0,5.3-2.4,5.3-5.3s-2.4-5.3-5.3-5.3s-5.3,2.4-5.3,5.3S137.2,36.2,140.1,36.2z M103.7,36.2c2.9,0,5.3-2.4,5.3-5.3
	s-2.4-5.3-5.3-5.3s-5.3,2.4-5.3,5.3C98.3,33.8,100.7,36.2,103.7,36.2z M67.2,36.2c2.9,0,5.3-2.4,5.3-5.3s-2.4-5.3-5.3-5.3
	s-5.3,2.4-5.3,5.3S64.3,36.2,67.2,36.2z M30.8,36.2c2.9,0,5.3-2.4,5.3-5.3s-2.4-5.3-5.3-5.3s-5.3,2.4-5.3,5.3S27.8,36.2,30.8,36.2z"
	/>
<g class="st1">
	
		<linearGradient id="SVGID_2_" gradientUnits="userSpaceOnUse" x1="1832.8354" y1="-483.1" x2="1895.1648" y2="-483.1" gradientTransform="matrix(1 0 0 1 0 694)">
		<stop  offset="8.379889e-03" style="stop-color:#772182"/>
		<stop  offset="1" style="stop-color:#812082"/>
	</linearGradient>
	<path class="st2" d="M1890.5,201.3h-12.3c-2.6,0-4.7-2.1-4.7-4.7v-12.3c0-2.6-2.1-4.7-4.7-4.7h-9.8c-2.6,0-4.7,2.1-4.7,4.7v12.3
		c0,2.6-2.1,4.7-4.7,4.7h-12.3c-2.6,0-4.7,2.1-4.7,4.7v9.8c0,2.6,2.1,4.7,4.7,4.7h12.3c2.6,0,4.7,2.1,4.7,4.7v12.3
		c0,2.6,2.1,4.7,4.7,4.7h9.8c2.6,0,4.7-2.1,4.7-4.7V225c0-2.6,2.1-4.7,4.7-4.7h12.3c2.6,0,4.7-2.1,4.7-4.7V206
		C1895.2,203.4,1893.1,201.3,1890.5,201.3z"/>
	
		<linearGradient id="SVGID_3_" gradientUnits="userSpaceOnUse" x1="1895.1648" y1="-519.2" x2="1935.8972" y2="-519.2" gradientTransform="matrix(1 0 0 1 0 694)">
		<stop  offset="8.379889e-03" style="stop-color:#772182"/>
		<stop  offset="1" style="stop-color:#812082"/>
	</linearGradient>
	<path class="st3" d="M1932.9,168.6h-8c-1.7,0-3-1.4-3-3v-8c0-1.7-1.4-3-3-3h-6.4c-1.7,0-3,1.4-3,3v8c0,1.7-1.4,3-3,3h-8
		c-1.7,0-3,1.4-3,3v6.4c0,1.7,1.4,3,3,3h8c1.7,0,3,1.4,3,3v8c0,1.7,1.4,3,3,3h6.4c1.7,0,3-1.4,3-3v-8c0-1.7,1.4-3,3-3h8
		c1.7,0,3-1.4,3-3v-6.4C1935.9,170,1934.5,168.6,1932.9,168.6z"/>
	
		<linearGradient id="SVGID_4_" gradientUnits="userSpaceOnUse" x1="1806.9419" y1="-539.4" x2="1847.6743" y2="-539.4" gradientTransform="matrix(1 0 0 1 0 694)">
		<stop  offset="8.379889e-03" style="stop-color:#772182"/>
		<stop  offset="1" style="stop-color:#812082"/>
	</linearGradient>
	<path class="st4" d="M1833.5,163.8c0-1.7,1.4-3,3-3h8c1.7,0,3-1.4,3-3v-6.4c0-1.7-1.4-3-3-3h-8c-1.7,0-3-1.4-3-3v-8
		c0-1.7-1.4-3-3-3h-6.4c-1.7,0-3,1.4-3,3v8c0,1.7-1.4,3-3,3h-8c-1.7,0-3,1.4-3,3v6.4c0,1.7,1.4,3,3,3h8c1.7,0,3,1.4,3,3v8
		c0,1.7,1.4,3,3,3h6.4c1.7,0,3-1.4,3-3V163.8z"/>
	
		<linearGradient id="SVGID_5_" gradientUnits="userSpaceOnUse" x1="1863.2" y1="-559.85" x2="1894.4739" y2="-559.85" gradientTransform="matrix(1 0 0 1 0 694)">
		<stop  offset="8.379889e-03" style="stop-color:#772182"/>
		<stop  offset="1" style="stop-color:#812082"/>
	</linearGradient>
	<path class="st5" d="M1865.5,138.9h6.2c1.3,0,2.3,1,2.3,2.3v6.2c0,1.3,1,2.3,2.3,2.3h4.9c1.3,0,2.3-1,2.3-2.3v-6.2
		c0-1.3,1-2.3,2.3-2.3h6.2c1.3,0,2.3-1,2.3-2.3v-4.9c0-1.3-1-2.3-2.3-2.3h-6.2c-1.3,0-2.3-1-2.3-2.3v-6.2c0-1.3-1-2.3-2.3-2.3h-4.9
		c-1.3,0-2.3,1-2.3,2.3v6.2c0,1.3-1,2.3-2.3,2.3h-6.2c-1.3,0-2.3,1-2.3,2.3v4.9C1863.2,137.9,1864.3,138.9,1865.5,138.9z"/>
</g>
<linearGradient id="SVGID_6_" gradientUnits="userSpaceOnUse" x1="2961.4321" y1="-1317.9137" x2="3190.8323" y2="-1317.9137" gradientTransform="matrix(1 0 0 1 -2132.0322 1673.3137)">
	<stop  offset="0" style="stop-color:#D7C7DA"/>
	<stop  offset="1" style="stop-color:#936D9F"/>
</linearGradient>
<path class="st6" d="M1048.1,384.4c0-2.9,2.4-5.3,5.3-5.3s5.3,2.4,5.3,5.3s-2.4,5.3-5.3,5.3S1048.1,387.3,1048.1,384.4z M1017,389.7
	c2.9,0,5.3-2.4,5.3-5.3s-2.4-5.3-5.3-5.3c-2.9,0-5.3,2.4-5.3,5.3S1014.1,389.7,1017,389.7z M980.6,389.7c2.9,0,5.3-2.4,5.3-5.3
	s-2.4-5.3-5.3-5.3c-2.9,0-5.3,2.4-5.3,5.3C975.2,387.3,977.6,389.7,980.6,389.7z M944.1,389.7c2.9,0,5.3-2.4,5.3-5.3
	s-2.4-5.3-5.3-5.3c-2.9,0-5.3,2.4-5.3,5.3C938.8,387.3,941.1,389.7,944.1,389.7z M907.6,389.7c2.9,0,5.3-2.4,5.3-5.3
	s-2.4-5.3-5.3-5.3s-5.3,2.4-5.3,5.3C902.3,387.3,904.7,389.7,907.6,389.7z M871.2,389.7c2.9,0,5.3-2.4,5.3-5.3s-2.4-5.3-5.3-5.3
	s-5.3,2.4-5.3,5.3C865.8,387.3,868.2,389.7,871.2,389.7z M834.7,389.7c2.9,0,5.3-2.4,5.3-5.3s-2.4-5.3-5.3-5.3s-5.3,2.4-5.3,5.3
	C829.4,387.3,831.8,389.7,834.7,389.7z M1053.5,360.7c2.9,0,5.3-2.4,5.3-5.3s-2.4-5.3-5.3-5.3s-5.3,2.4-5.3,5.3
	C1048.1,358.3,1050.5,360.7,1053.5,360.7z M1017,360.7c2.9,0,5.3-2.4,5.3-5.3s-2.4-5.3-5.3-5.3c-2.9,0-5.3,2.4-5.3,5.3
	C1011.7,358.3,1014.1,360.7,1017,360.7z M980.6,360.7c2.9,0,5.3-2.4,5.3-5.3s-2.4-5.3-5.3-5.3s-5.3,2.4-5.3,5.3
	C975.2,358.3,977.6,360.7,980.6,360.7z M944.1,360.7c2.9,0,5.3-2.4,5.3-5.3s-2.4-5.3-5.3-5.3c-2.9,0-5.3,2.4-5.3,5.3
	S941.1,360.7,944.1,360.7z M907.6,360.7c2.9,0,5.3-2.4,5.3-5.3s-2.4-5.3-5.3-5.3s-5.3,2.4-5.3,5.3
	C902.3,358.3,904.7,360.7,907.6,360.7z M871.2,360.7c2.9,0,5.3-2.4,5.3-5.3s-2.4-5.3-5.3-5.3c-2.9,0-5.3,2.4-5.3,5.3
	C865.8,358.3,868.2,360.7,871.2,360.7z M834.7,360.7c2.9,0,5.3-2.4,5.3-5.3s-2.4-5.3-5.3-5.3c-2.9,0-5.3,2.4-5.3,5.3
	C829.4,358.3,831.8,360.7,834.7,360.7z M1053.5,331.7c2.9,0,5.3-2.4,5.3-5.3s-2.4-5.3-5.3-5.3s-5.3,2.4-5.3,5.3
	C1048.1,329.3,1050.5,331.7,1053.5,331.7z M1017,331.7c2.9,0,5.3-2.4,5.3-5.3s-2.4-5.3-5.3-5.3s-5.3,2.4-5.3,5.3
	C1011.7,329.3,1014.1,331.7,1017,331.7z M980.6,331.7c2.9,0,5.3-2.4,5.3-5.3s-2.4-5.3-5.3-5.3c-2.9,0-5.3,2.4-5.3,5.3
	C975.2,329.3,977.6,331.7,980.6,331.7z M944.1,331.7c2.9,0,5.3-2.4,5.3-5.3s-2.4-5.3-5.3-5.3c-2.9,0-5.3,2.4-5.3,5.3
	C938.8,329.3,941.1,331.7,944.1,331.7z M907.6,331.7c2.9,0,5.3-2.4,5.3-5.3s-2.4-5.3-5.3-5.3c-2.9,0-5.3,2.4-5.3,5.3
	C902.3,329.3,904.7,331.7,907.6,331.7z M871.2,331.7c2.9,0,5.3-2.4,5.3-5.3s-2.4-5.3-5.3-5.3c-2.9,0-5.3,2.4-5.3,5.3
	S868.2,331.7,871.2,331.7z M834.7,331.7c2.9,0,5.3-2.4,5.3-5.3s-2.4-5.3-5.3-5.3s-5.3,2.4-5.3,5.3
	C829.4,329.3,831.8,331.7,834.7,331.7z"/>
<g class="st1">
	
		<linearGradient id="SVGID_7_" gradientUnits="userSpaceOnUse" x1="335.212" y1="-46.5" x2="397.5414" y2="-46.5" gradientTransform="matrix(1 0 0 1 0 694)">
		<stop  offset="8.379889e-03" style="stop-color:#772182"/>
		<stop  offset="1" style="stop-color:#812082"/>
	</linearGradient>
	<path class="st7" d="M392.9,637.9h-12.3c-2.6,0-4.7-2.1-4.7-4.7V621c0-2.6-2.1-4.7-4.7-4.7h-9.8c-2.6,0-4.7,2.1-4.7,4.7v12.3
		c0,2.6-2.1,4.7-4.7,4.7h-12.3c-2.6,0-4.7,2.1-4.7,4.7v9.8c0,2.6,2.1,4.7,4.7,4.7H352c2.6,0,4.7,2.1,4.7,4.7V674
		c0,2.6,2.1,4.7,4.7,4.7h9.8c2.6,0,4.7-2.1,4.7-4.7v-12.3c0-2.6,2.1-4.7,4.7-4.7h12.3c2.6,0,4.7-2.1,4.7-4.7v-9.8
		C397.5,640,395.5,637.9,392.9,637.9z"/>
	
		<linearGradient id="SVGID_8_" gradientUnits="userSpaceOnUse" x1="397.5414" y1="-82.5" x2="438.2738" y2="-82.5" gradientTransform="matrix(1 0 0 1 0 694)">
		<stop  offset="8.379889e-03" style="stop-color:#772182"/>
		<stop  offset="1" style="stop-color:#812082"/>
	</linearGradient>
	<path class="st8" d="M435.2,605.3h-8c-1.7,0-3-1.4-3-3v-8c0-1.7-1.4-3-3-3h-6.4c-1.7,0-3,1.4-3,3v8c0,1.7-1.4,3-3,3h-8
		c-1.7,0-3,1.4-3,3v6.4c0,1.7,1.4,3,3,3h8c1.7,0,3,1.4,3,3v8c0,1.7,1.4,3,3,3h6.4c1.7,0,3-1.4,3-3v-8c0-1.7,1.4-3,3-3h8
		c1.7,0,3-1.4,3-3v-6.4C438.3,606.6,436.9,605.3,435.2,605.3z"/>
	
		<linearGradient id="SVGID_9_" gradientUnits="userSpaceOnUse" x1="309.3185" y1="-102.8" x2="350.0508" y2="-102.8" gradientTransform="matrix(1 0 0 1 0 694)">
		<stop  offset="8.379889e-03" style="stop-color:#772182"/>
		<stop  offset="1" style="stop-color:#812082"/>
	</linearGradient>
	<path class="st9" d="M335.9,600.4c0-1.7,1.4-3,3-3h8c1.7,0,3-1.4,3-3V588c0-1.7-1.4-3-3-3h-8c-1.7,0-3-1.4-3-3v-8c0-1.7-1.4-3-3-3
		h-6.4c-1.7,0-3,1.4-3,3v8c0,1.7-1.4,3-3,3h-8c-1.7,0-3,1.4-3,3v6.4c0,1.7,1.4,3,3,3h8c1.7,0,3,1.4,3,3v8c0,1.7,1.4,3,3,3h6.4
		c1.7,0,3-1.4,3-3V600.4z"/>
	
		<linearGradient id="SVGID_10_" gradientUnits="userSpaceOnUse" x1="365.6" y1="-123.15" x2="396.8739" y2="-123.15" gradientTransform="matrix(1 0 0 1 0 694)">
		<stop  offset="8.379889e-03" style="stop-color:#772182"/>
		<stop  offset="1" style="stop-color:#812082"/>
	</linearGradient>
	<path class="st10" d="M367.9,575.6h6.2c1.3,0,2.3,1,2.3,2.3v6.2c0,1.3,1,2.3,2.3,2.3h4.9c1.3,0,2.3-1,2.3-2.3v-6.2
		c0-1.3,1-2.3,2.3-2.3h6.2c1.3,0,2.3-1,2.3-2.3v-4.9c0-1.3-1-2.3-2.3-2.3h-6.2c-1.3,0-2.3-1-2.3-2.3v-6.2c0-1.3-1-2.3-2.3-2.3h-4.9
		c-1.3,0-2.3,1-2.3,2.3v6.2c0,1.3-1,2.3-2.3,2.3h-6.2c-1.3,0-2.3,1-2.3,2.3v4.9C365.6,574.5,366.6,575.6,367.9,575.6z"/>
</g>
</svg>
