<?xml version="1.0" encoding="utf-8"?>
<!-- Generator: Adobe Illustrator 24.1.2, SVG Export Plug-In . SVG Version: 6.00 Build 0)  -->
<svg version="1.1" id="Camada_1" xmlns="http://www.w3.org/2000/svg" xmlns:xlink="http://www.w3.org/1999/xlink" x="0px" y="0px"
	 viewBox="0 0 300.4 158" style="enable-background:new 0 0 300.4 158;" xml:space="preserve">
<style type="text/css">
	.st0{fill:#FFFFFF;stroke:#000000;stroke-miterlimit:10;}
	.st1{fill:#772580;}
	.st2{fill-rule:evenodd;clip-rule:evenodd;fill:#772580;}
</style>
<rect x="0.5" y="0.5" class="st0" width="299.4" height="157"/>
<g>
	<path class="st1" d="M36.3,63.1H21.4v28.4H85V77.2H38.4c-1.2,0-2-0.9-2-2C36.3,75.1,36.3,63.1,36.3,63.1z M21.4,40.5h15v-12
		c0-1.2,0.9-2,2-2H85V11.9H21.4V40.5z M19.4,44.6c-1.2,0-2-0.9-2-2V9.9c-0.1-1.2,0.9-2,2-2h19.1h48.6c1.2,0,2,0.9,2,2v18.6
		c0,1.2-0.9,2-2,2H40.5v10h27.8c1.2,0,2,0.9,2,2v18.6c0,1.2-0.9,2-2,2H40.5v10H87c1.2,0,2,0.9,2,2v18.6c0,1.2-0.9,2-2,2H38.4h-19
		c-1.2,0-2-0.9-2-2V61.1c0-1.2,0.9-2,2-2h19.1h27.8V44.6H38.4H19.4z"/>
	<path class="st1" d="M153.9,54.9l-5.5-13.8l-5.5,13.8H153.9z M163.4,78.5h-30.1L127,94.4c-0.4,0.8-1.1,1.3-1.9,1.3l0,0h-20.4
		c-1.2,0-2-0.9-2-2c0-0.4,0.1-0.6,0.2-0.9l33.3-83.5c0.4-0.8,1.1-1.3,1.9-1.3l0,0h20.5c1,0,1.7,0.6,2,1.5l18.7,46.8
		c0.4,1.1-0.1,2.2-1.2,2.7c-0.3,0.1-0.5,0.2-0.8,0.2l0,0h-0.8h-19.6h-17.2c-1.2,0-2-0.9-2-2c0-0.4,0.1-0.6,0.3-1l8.4-21.1
		c0.2-0.5,0.6-1,1.2-1.2c1.1-0.4,2.2,0.1,2.7,1.2l8.1,20.1h16l-17.1-42.9h-17.8l-31.7,79.5h15.9l6.3-15.7c0.3-0.9,1.1-1.5,2-1.5
		h32.9h19.6h0.7c0.9,0,1.7,0.6,2,1.4l6.8,17.1c0.4,1.1-0.1,2.2-1.2,2.7c-0.3,0.1-0.5,0.2-0.8,0.2l0,0h-20.4c-0.9,0-1.7-0.6-2-1.4
		L163.4,78.5z M183.8,78.5h-15.9l5.2,13.1H189L183.8,78.5z"/>
	<path class="st1" d="M224.1,72.8h15.4c5.9,0,11.1-2.4,14.9-6.2c3.8-3.8,6.2-9.1,6.2-14.9s-2.4-11.1-6.2-14.9
		c-3.8-3.8-9.1-6.2-14.9-6.2h-15.4V72.8z M241.7,26.6c6,0.5,11.5,3.2,15.6,7.3c4.5,4.5,7.4,10.8,7.4,17.9s-2.8,13.2-7.4,17.9
		c-4.1,4.1-9.5,6.8-15.6,7.3c-0.2,0.1-0.4,0.1-0.6,0.1h-1.6h-17.4H203c-1.2,0-2-0.9-2-2V9.9c0-1.2,0.9-2,2-2h38.2
		c0.4,0,0.6,0.1,0.9,0.2c11.1,0.6,21.1,5.4,28.4,12.7c7.9,7.9,12.8,18.8,12.8,30.9s-4.9,23-12.8,30.9c-7.4,7.4-17.3,12.1-28.4,12.7
		c-0.3,0.1-0.5,0.2-0.9,0.2H203c-1.2,0-2-0.9-2-2c0-1.2,0.9-2,2-2h36.5v-0.1c10.9,0,20.9-4.4,28-11.6c7.2-7.2,11.6-17.1,11.6-28
		s-4.4-20.9-11.6-28c-7.2-7.2-17.1-11.6-28-11.6v-0.1H205v60.9h15V28.6c0-1.2,0.9-2,2-2h17.4h1.6C241.3,26.5,241.6,26.5,241.7,26.6"
		/>
	<polygon class="st2" points="236.2,35.2 247.4,35.2 247.4,46.4 258.2,46.4 258.2,56.9 247.4,56.9 247.4,68.1 236.2,68.1 
		236.2,56.9 225.5,56.9 225.5,46.4 236.2,46.4 	"/>
	<path class="st1" d="M282,117H18.5v31.7H282V117z M17.7,115.5h265c0.4,0,0.7,0.4,0.7,0.7v33.2c0,0.4-0.4,0.7-0.7,0.7h-265
		c-0.4,0-0.7-0.4-0.7-0.7v-33.2C17,115.8,17.3,115.5,17.7,115.5"/>
	<path class="st1" d="M264.9,138.4h7.8v-2h-5.9v-2h3.9v-2h-3.9v-2h5.9v-2h-7.8V138.4z M249.7,136.5h-1v-5.9h1c1.6,0,2.9,1.3,2.9,2.9
		C252.6,135.1,251.3,136.5,249.7,136.5 M249.7,128.6h-2.9v9.8l0,0h2.9c1.3,0,2.5-0.5,3.5-1.4c0.9-0.9,1.4-2.1,1.4-3.5
		c0-1.3-0.5-2.5-1.4-3.5C252.1,129.2,251,128.6,249.7,128.6 M234.3,128.6v5.9c0,1.1-0.9,2-2,2c-1.1,0-2-0.9-2-2v-5.9h-1.9v5.9
		c0,1.1,0.4,2,1.2,2.8c0.7,0.7,1.7,1.2,2.8,1.2c1.1,0,2-0.4,2.8-1.2c0.7-0.7,1.2-1.7,1.2-2.8v-5.9H234.3z M232.9,126.7
		c0.5-0.5,0.9-1.3,0.9-2l0,0h-2l0,0c0,0.5-0.4,1-1,1l0,0v2l0,0C231.7,127.6,232.4,127.2,232.9,126.7 M215.8,134.5h-1.4l0.7-2.4
		L215.8,134.5z M216.2,128.6h-2l-2.8,9.8l0,0h2l0.5-2h2.6l0.5,2l0,0h2L216.2,128.6L216.2,128.6z M198.6,128.6h-2
		c-0.8,0-1.5,0.3-2,0.9c-0.5,0.5-0.9,1.3-0.9,2s0.3,1.5,0.9,2c0.5,0.5,1.3,0.9,2,0.9h2c0.5,0,1,0.4,1,1s-0.4,1-1,1h-2
		c-0.5,0-1-0.4-1-1l0,0h-2l0,0c0,0.8,0.3,1.5,0.9,2c0.5,0.5,1.3,0.9,2,0.9h2c0.8,0,1.5-0.3,2-0.9c0.5-0.5,0.9-1.3,0.9-2
		c0-0.8-0.3-1.5-0.9-2c-0.5-0.5-1.3-0.9-2-0.9h-2c-0.5,0-1-0.4-1-1s0.4-1,1-1h2c0.5,0,1,0.4,1,1l0,0h2l0,0c0-0.8-0.3-1.5-0.9-2
		C200.1,129,199.4,128.6,198.6,128.6 M166,138.4h7.8v-2h-5.8v-2h3.9v-2h-3.9v-2h5.9v-2h-7.8L166,138.4L166,138.4z M150.9,136.5h-1
		v-5.9h1c1.6,0,2.9,1.3,2.9,2.9C153.8,135.1,152.5,136.5,150.9,136.5 M150.9,128.6H148v9.8l0,0h2.9c1.3,0,2.5-0.5,3.5-1.4
		c0.9-0.9,1.4-2.1,1.4-3.5c0-1.3-0.5-2.5-1.4-3.5C153.4,129.2,152.2,128.6,150.9,128.6 M125,134.5h-1.4l0.7-2.4L125,134.5z
		 M125.3,128.6h-2l-2.8,9.8l0,0h2l0.5-2h2.6l0.5,2l0,0h2L125.3,128.6L125.3,128.6z M104.1,128.6h-2v9.8h7.8v-2h-5.9V128.6z
		 M86.9,136.5c-1.6,0-2.9-1.3-2.9-2.9c0-1.6,1.3-2.9,2.9-2.9s2.9,1.3,2.9,2.9C89.8,135.1,88.6,136.5,86.9,136.5 M86.9,128.6
		c-1.3,0-2.5,0.5-3.5,1.4c-0.9,0.9-1.4,2.1-1.4,3.5c0,1.3,0.5,2.5,1.4,3.5c0.9,0.9,2.1,1.4,3.5,1.4s2.5-0.5,3.5-1.4
		c0.9-0.9,1.4-2.1,1.4-3.5c0-1.3-0.5-2.5-1.4-3.5C89.5,129.2,88.2,128.6,86.9,128.6 M70.7,131.5L70.7,131.5l1.4-1.4l0,0
		c-0.9-0.9-2.1-1.4-3.5-1.4s-2.5,0.5-3.5,1.4c-0.9,0.9-1.4,2.1-1.4,3.5c0,1.3,0.5,2.5,1.4,3.5c0.9,0.9,2.1,1.4,3.5,1.4
		s2.5-0.5,3.5-1.4l0,0l-1.4-1.4l0,0l0,0c-0.5,0.5-1.2,0.9-2,0.9c-0.8,0-1.5-0.3-2-0.9c-1.2-1.2-1.2-3,0-4.1
		C67.7,130.3,69.6,130.3,70.7,131.5 M50.7,128.6h-2c-0.8,0-1.5,0.3-2,0.9c-0.5,0.5-0.9,1.3-0.9,2s0.3,1.5,0.9,2
		c0.5,0.5,1.3,0.9,2,0.9h2c0.5,0,1,0.4,1,1s-0.4,1-1,1h-2c-0.5,0-1-0.4-1-1l0,0h-2l0,0c0,0.8,0.3,1.5,0.9,2c0.5,0.5,1.3,0.9,2,0.9h2
		c0.8,0,1.5-0.3,2-0.9c0.5-0.5,0.9-1.3,0.9-2c0-0.8-0.3-1.5-0.9-2c-0.5-0.5-1.3-0.9-2-0.9h-2c-0.5,0-1-0.4-1-1s0.4-1,1-1h2
		c0.5,0,1,0.4,1,1l0,0h2l0,0c0-0.8-0.3-1.5-0.9-2C52.3,129,51.5,128.6,50.7,128.6 M27.8,138.4h7.8v-2h-5.9v-2h3.9v-2h-3.9v-2h5.9v-2
		h-7.8V138.4z"/>
</g>
</svg>
