<?xml version="1.0" encoding="utf-8"?>
<!-- Generator: Adobe Illustrator 24.1.2, SVG Export Plug-In . SVG Version: 6.00 Build 0)  -->
<svg version="1.1" id="Camada_1" xmlns="http://www.w3.org/2000/svg" xmlns:xlink="http://www.w3.org/1999/xlink" x="0px" y="0px"
	 viewBox="0 0 457.7 453.5" style="enable-background:new 0 0 457.7 453.5;" xml:space="preserve">
<style type="text/css">
	.st0{fill:#772580;}
	.st1{fill:url(#SVGID_1_);}
</style>
<g>
	<path class="st0" d="M406.9,359.3c-23.7,34.8-55.5,59.8-94,76.1c-128,54.3-273.4-18.8-306.5-153.8C-24.5,155.3,59.4,28.3,187.8,7.3
		c12.1-2,24.2-4.4,36.6-2.7c0,71.2,0.1,142.4-0.1,213.6c0,7.1,2,11.5,7.8,15.6C290.4,275.5,348.7,317.5,406.9,359.3z"/>
	<linearGradient id="SVGID_1_" gradientUnits="userSpaceOnUse" x1="232.3852" y1="177.4193" x2="457.6822" y2="177.4193">
		<stop  offset="0" style="stop-color:#FF5C00"/>
		<stop  offset="0.9693" style="stop-color:#FF8F00"/>
	</linearGradient>
	<path class="st1" d="M415.1,354.8C356.8,313,298.6,271,240.2,229.3c-5.8-4.2-7.8-8.6-7.8-15.6c0.2-71.2,0.1-142.4,0.1-213.6
		c41.3-1,79.9,9.5,114.8,31c71.2,43.7,108.5,108.2,110.3,191.6C458.7,271,444.7,315.7,415.1,354.8z"/>
</g>
<g>
</g>
<g>
</g>
<g>
</g>
<g>
</g>
<g>
</g>
<g>
</g>
<g>
</g>
<g>
</g>
<g>
</g>
<g>
</g>
<g>
</g>
</svg>
