<?xml version="1.0" encoding="utf-8"?>
<!-- Generator: Adobe Illustrator 24.1.2, SVG Export Plug-In . SVG Version: 6.00 Build 0)  -->
<svg version="1.1" id="Camada_1" xmlns="http://www.w3.org/2000/svg" xmlns:xlink="http://www.w3.org/1999/xlink" x="0px" y="0px"
	 viewBox="0 0 299.9 160.2" style="enable-background:new 0 0 299.9 160.2;" xml:space="preserve">
<style type="text/css">
	.st0{fill:#772580;}
	.st1{fill-rule:evenodd;clip-rule:evenodd;fill:#772580;}
</style>
<g>
	<path class="st0" d="M21.8,62.2H5v32h71.5V78H24.1c-1.3,0-2.3-1-2.3-2.3V62.2z M5,36.7h16.9V23.2c0-1.3,1-2.3,2.3-2.3h52.3V4.6H5
		V36.7z M2.7,41.3c-1.3,0-2.3-1-2.3-2.3V2.3C0.3,1,1.4,0,2.7,0h21.5h54.7c1.3,0,2.3,1,2.3,2.3v20.9c0,1.3-1,2.3-2.3,2.3H26.5v11.2
		h31.3c1.3,0,2.3,1,2.3,2.3v20.9c0,1.3-1,2.3-2.3,2.3H26.5v11.2h52.3c1.3,0,2.3,1,2.3,2.3v20.9c0,1.3-1,2.3-2.3,2.3H24.1H2.7
		c-1.3,0-2.3-1-2.3-2.3V59.9c0-1.3,1-2.3,2.3-2.3h21.5h31.3V41.3H24.1H2.7z"/>
	<path class="st0" d="M154.1,52.9l-6.2-15.5l-6.2,15.5H154.1z M164.8,79.5h-33.9l-7.1,17.9c-0.4,0.9-1.2,1.5-2.1,1.5v0H98.7
		c-1.3,0-2.3-1-2.3-2.3c0-0.4,0.1-0.7,0.2-1l37.5-93.9c0.4-0.9,1.2-1.5,2.1-1.5v0h23.1c1.1,0,1.9,0.7,2.2,1.7l21,52.6
		c0.5,1.2-0.1,2.5-1.3,3c-0.3,0.1-0.6,0.2-0.9,0.2v0h-0.9h-22h-19.3c-1.3,0-2.3-1-2.3-2.3c0-0.4,0.1-0.7,0.3-1.1l9.5-23.7
		c0.2-0.6,0.7-1.1,1.3-1.4c1.2-0.5,2.5,0.1,3,1.3l9.1,22.6h18L157.8,4.8h-20l-35.7,89.5H120l7.1-17.7c0.3-1,1.2-1.7,2.2-1.7h37h22.1
		h0.8c1,0,1.9,0.7,2.2,1.6l7.7,19.2c0.5,1.2-0.1,2.5-1.3,3c-0.3,0.1-0.6,0.2-0.9,0.2v0h-22.9c-1,0-1.9-0.7-2.2-1.6L164.8,79.5z
		 M187.7,79.5h-17.9l5.9,14.7h17.9L187.7,79.5z"/>
	<path class="st0" d="M233,73.1h17.3c6.6,0,12.5-2.7,16.8-7c4.3-4.3,7-10.2,7-16.8s-2.7-12.5-7-16.8c-4.3-4.3-10.2-7-16.8-7H233
		V73.1z M252.9,21.1c6.8,0.6,12.9,3.6,17.5,8.2c5.1,5.1,8.3,12.2,8.3,20.1s-3.2,14.9-8.3,20.1c-4.6,4.6-10.7,7.6-17.5,8.2
		c-0.2,0.1-0.5,0.1-0.7,0.1h-1.8h-19.6h-21.5c-1.3,0-2.3-1-2.3-2.3V2.3c0-1.3,1-2.3,2.3-2.3h43c0.4,0,0.7,0.1,1,0.2
		c12.5,0.7,23.7,6.1,32,14.3c8.9,8.9,14.4,21.2,14.4,34.8c0,13.6-5.5,25.9-14.4,34.8c-8.3,8.3-19.5,13.6-32,14.3
		c-0.3,0.1-0.6,0.2-1,0.2h-43c-1.3,0-2.3-1-2.3-2.3c0-1.3,1-2.3,2.3-2.3h41.1v-0.1c12.3,0,23.5-5,31.5-13.1
		c8.1-8.1,13.1-19.2,13.1-31.5s-5-23.5-13.1-31.5c-8.1-8.1-19.2-13.1-31.5-13.1V4.6h-38.8v68.5h16.9V23.3c0-1.3,1-2.3,2.3-2.3h19.6
		h1.8C252.4,21,252.7,21,252.9,21.1"/>
	<polygon class="st1" points="246.7,30.8 259.3,30.8 259.3,43.4 271.4,43.4 271.4,55.2 259.3,55.2 259.3,67.8 246.7,67.8 
		246.7,55.2 234.6,55.2 234.6,43.4 246.7,43.4 	"/>
	<path class="st0" d="M298.2,122.8H1.7v35.7h296.5V122.8z M0.8,121.1h298.2c0.5,0,0.8,0.4,0.8,0.8v37.4c0,0.5-0.4,0.8-0.8,0.8H0.8
		c-0.5,0-0.8-0.4-0.8-0.8v-37.4C0,121.5,0.4,121.1,0.8,121.1"/>
	<path class="st0" d="M278.9,146.9h8.8v-2.2h-6.6v-2.2h4.4v-2.2h-4.4v-2.2h6.6v-2.2h-8.8V146.9z M261.8,144.7h-1.1v-6.6h1.1
		c1.8,0,3.3,1.5,3.3,3.3C265.1,143.2,263.6,144.7,261.8,144.7 M261.8,135.9h-3.3v11h0h3.3c1.5,0,2.8-0.6,3.9-1.6
		c1-1,1.6-2.4,1.6-3.9c0-1.5-0.6-2.8-1.6-3.9C264.6,136.5,263.3,135.9,261.8,135.9 M244.5,135.9l0,6.6c0,1.2-1,2.2-2.2,2.2
		c-1.2,0-2.2-1-2.2-2.2v-6.6H238v6.6c0,1.2,0.5,2.3,1.3,3.1c0.8,0.8,1.9,1.3,3.1,1.3c1.2,0,2.3-0.5,3.1-1.3c0.8-0.8,1.3-1.9,1.3-3.1
		v-6.6H244.5z M243,133.7c0.6-0.6,1-1.5,1-2.3v0h-2.2v0c0,0.6-0.5,1.1-1.1,1.1h0v2.2h0C241.6,134.7,242.4,134.3,243,133.7
		 M223.7,142.5h-1.6l0.8-2.7L223.7,142.5z M224.1,135.9h-2.3l-3.2,11l0,0h2.3l0.6-2.2h2.9l0.6,2.2v0h2.3L224.1,135.9L224.1,135.9z
		 M204.3,135.9h-2.2c-0.9,0-1.7,0.3-2.3,1c-0.6,0.6-1,1.5-1,2.3s0.3,1.7,1,2.3c0.6,0.6,1.5,1,2.3,1h2.2c0.6,0,1.1,0.5,1.1,1.1
		c0,0.6-0.5,1.1-1.1,1.1h-2.2c-0.6,0-1.1-0.5-1.1-1.1v0h-2.2v0c0,0.9,0.3,1.7,1,2.3c0.6,0.6,1.5,1,2.3,1h2.2c0.9,0,1.7-0.3,2.3-1
		c0.6-0.6,1-1.5,1-2.3c0-0.9-0.3-1.7-1-2.3c-0.6-0.6-1.5-1-2.3-1h-2.2c-0.6,0-1.1-0.5-1.1-1.1c0-0.6,0.5-1.1,1.1-1.1h2.2
		c0.6,0,1.1,0.5,1.1,1.1v0h2.2v0c0-0.9-0.3-1.7-1-2.3C206,136.3,205.2,135.9,204.3,135.9 M167.7,146.9h8.8v-2.2H170v-2.2h4.4v-2.2
		H170v-2.2h6.6v-2.2h-8.8V146.9z M150.7,144.7h-1.1v-6.6h1.1c1.8,0,3.3,1.5,3.3,3.3C154,143.2,152.5,144.7,150.7,144.7 M150.7,135.9
		h-3.3v11h0h3.3c1.5,0,2.8-0.6,3.9-1.6c1-1,1.6-2.4,1.6-3.9c0-1.5-0.6-2.8-1.6-3.9C153.5,136.5,152.1,135.9,150.7,135.9
		 M121.5,142.5h-1.6l0.8-2.7L121.5,142.5z M121.9,135.9h-2.3l-3.2,11l0,0h2.3l0.6-2.2h2.9l0.6,2.2v0h2.3L121.9,135.9L121.9,135.9z
		 M98,135.9h-2.2v11h8.8v-2.2H98V135.9z M78.7,144.7c-1.8,0-3.3-1.5-3.3-3.3c0-1.8,1.5-3.3,3.3-3.3c1.8,0,3.3,1.5,3.3,3.3
		C82,143.2,80.6,144.7,78.7,144.7 M78.7,135.9c-1.5,0-2.8,0.6-3.9,1.6c-1,1-1.6,2.4-1.6,3.9c0,1.5,0.6,2.8,1.6,3.9
		c1,1,2.4,1.6,3.9,1.6c1.5,0,2.8-0.6,3.9-1.6c1-1,1.6-2.4,1.6-3.9c0-1.5-0.6-2.8-1.6-3.9C81.6,136.5,80.2,135.9,78.7,135.9
		 M60.5,139.1L60.5,139.1l1.6-1.6l0,0c-1-1-2.4-1.6-3.9-1.6c-1.5,0-2.8,0.6-3.9,1.6c-1,1-1.6,2.4-1.6,3.9c0,1.5,0.6,2.8,1.6,3.9
		c1,1,2.4,1.6,3.9,1.6c1.5,0,2.8-0.6,3.9-1.6l0,0l-1.6-1.6l0,0l0,0c-0.6,0.6-1.4,1-2.3,1c-0.9,0-1.7-0.3-2.3-1
		c-1.3-1.3-1.3-3.4,0-4.6C57.1,137.8,59.2,137.8,60.5,139.1 M38,135.9h-2.2c-0.9,0-1.7,0.3-2.3,1c-0.6,0.6-1,1.5-1,2.3
		s0.3,1.7,1,2.3c0.6,0.6,1.5,1,2.3,1H38c0.6,0,1.1,0.5,1.1,1.1c0,0.6-0.5,1.1-1.1,1.1h-2.2c-0.6,0-1.1-0.5-1.1-1.1v0h-2.2v0
		c0,0.9,0.3,1.7,1,2.3c0.6,0.6,1.5,1,2.3,1H38c0.9,0,1.7-0.3,2.3-1c0.6-0.6,1-1.5,1-2.3c0-0.9-0.3-1.7-1-2.3c-0.6-0.6-1.5-1-2.3-1
		h-2.2c-0.6,0-1.1-0.5-1.1-1.1c0-0.6,0.5-1.1,1.1-1.1H38c0.6,0,1.1,0.5,1.1,1.1v0h2.2v0c0-0.9-0.3-1.7-1-2.3
		C39.7,136.3,38.9,135.9,38,135.9 M12.2,146.9H21v-2.2h-6.6v-2.2h4.4v-2.2h-4.4v-2.2H21v-2.2h-8.8V146.9z"/>
</g>
<g>
</g>
<g>
</g>
<g>
</g>
<g>
</g>
<g>
</g>
<g>
</g>
<g>
</g>
<g>
</g>
<g>
</g>
<g>
</g>
<g>
</g>
</svg>
